<svg xmlns="http://www.w3.org/2000/svg" width="24" height="24" viewBox="0 0 24 24">
  <g clip-path="url(#a)">
    <path fill-rule="evenodd" d="M8 5a4 4 0 0 1 2.646 7A4 4 0 0 1 8 19H4a2 2 0 0 1-2-2V7a2 2 0 0 1 2-2h4Zm9.5 4c2.607 0 4.5 2.368 4.5 5a1 1 0 0 1-.883.993L21 15h-5.86c.358 1.224 1.353 2 2.36 2 1.08 0 1.692-.511 2.24-1.15a1 1 0 1 1 1.52 1.3l-.107.122-.229.246C20.202 18.26 19.146 19 17.5 19c-2.607 0-4.5-2.368-4.5-5s1.893-5 4.5-5ZM8 13H4v4h4a2 2 0 0 0 .15-3.995L8 13Zm9.5-2c-1.007 0-2.002.776-2.36 2h4.72c-.358-1.224-1.353-2-2.36-2ZM8 7H4v4h4a2 2 0 1 0 0-4Zm11-1a1 1 0 1 1 0 2h-3a1 1 0 1 1 0-2h3Z" clip-rule="evenodd"/>
  </g>
  <defs>
    <clipPath id="a">
      <path d="M0 0h24v24H0z"/>
    </clipPath>
  </defs>
</svg>
