<svg xmlns="http://www.w3.org/2000/svg" width="24" height="24" viewBox="0 0 24 24">
  <g clip-path="url(#a)">
    <path d="M5.892 2.93c-1.78-1.06-3.813.446-3.63 2.359l.398 4.185c.176 1.855 1.84 4.026 4.195 3.823C4.5 14 3.132 15.865 4.88 18.145c.286.373.597.745.914 1.062.317.317.69.628 1.062.914 1.88 1.441 4.374-.65 5.055-2.69l.09-.268.09.269c.68 2.04 3.174 4.13 5.054 2.689.372-.286.745-.597 1.063-.914.317-.317.628-.69.914-1.062 1.747-2.28.378-4.145-1.977-4.848 2.355.203 4.018-1.968 4.195-3.823l.4-4.185c.182-1.913-1.852-3.418-3.631-2.36-2.91 1.731-4.625 4.464-6.11 6.973-1.485-2.51-3.2-5.242-6.107-6.972Z"/>
  </g>
  <defs>
    <clipPath id="a">
      <path d="M0 0h24v24H0z"/>
    </clipPath>
  </defs>
</svg>
