<svg xmlns="http://www.w3.org/2000/svg" width="24" height="24" viewBox="0 0 24 24">
  <g clip-path="url(#a)">
    <path fill-rule="evenodd" d="m13 3.228 7.998 4.617a2 2 0 0 1 1 1.732v4.846a2.001 2.001 0 0 1-1 1.732L13 20.772a2 2 0 0 1-2 0l-7.998-4.617a2 2 0 0 1-1-1.732V9.577a2 2 0 0 1 1-1.732L11 3.228a2 2 0 0 1 2 0Zm-4.802 9.927L5.002 15 11 18.463v-3.69l-2.802-1.618Zm7.604 0L13 14.772v3.69L18.998 15l-3.196-1.845Zm-11.8-2.423v2.536L6.198 12l-2.196-1.268Zm15.996 0L17.802 12l2.196 1.268v-2.536ZM12 10.96 10.198 12 12 13.04 13.802 12 12 10.96Zm-1-5.423L5.002 9l3.196 1.845L11 9.228V5.537Zm2 0v3.69l2.802 1.618L18.998 9 13 5.537Z" clip-rule="evenodd"/>
  </g>
  <defs>
    <clipPath id="a">
      <path d="M0 0h24v24H0z"/>
    </clipPath>
  </defs>
</svg>
