<svg xmlns="http://www.w3.org/2000/svg" width="24" height="24" viewBox="0 0 24 24">
  <g clip-path="url(#a)">
    <path fill-rule="evenodd" d="M15.003 4c.744 0 1.53.26 2.25.547l.527.216c1.26.528 1.968 1.636 2.517 2.853.891 1.975 1.51 4.608 1.724 6.61.102.95.127 1.906-.056 2.549-.197.687-.867 1.173-1.518 1.555l-.322.183-.334.186c-.172.096-.349.191-.525.284l-.522.27-.717.357-.577.284a1 1 0 1 1-.894-1.788l.79-.39-.58-.609c-1.39.57-3.027.893-4.766.893-1.739 0-3.376-.322-4.766-.893l-.58.608.793.39a1 1 0 0 1-.894 1.79l-.544-.27c-.402-.2-.805-.398-1.203-.607l-.928-.505-.321-.183c-.651-.382-1.322-.868-1.518-1.555-.184-.643-.158-1.598-.057-2.55.214-2.001.833-4.634 1.724-6.609.549-1.217 1.257-2.325 2.517-2.853C7.059 4.413 8.072 4 9 4c.603 0 1.077.555.99 1.147A13.65 13.65 0 0 1 12 5c.691 0 1.366.05 2.014.148A1.012 1.012 0 0 1 15.003 4ZM8.75 10.5a1.75 1.75 0 1 0 0 3.5 1.75 1.75 0 0 0 0-3.5Zm6.5 0a1.75 1.75 0 1 0 0 3.5 1.75 1.75 0 0 0 0-3.5Z" clip-rule="evenodd"/>
  </g>
  <defs>
    <clipPath id="a">
      <path d="M0 0h24v24H0z"/>
    </clipPath>
  </defs>
</svg>
