<svg xmlns="http://www.w3.org/2000/svg" width="24" height="24" viewBox="0 0 24 24">
  <g clip-path="url(#a)">
    <path d="M13.774 14.439a32.816 32.816 0 0 1 1.536 7A9.989 9.989 0 0 1 12 22a9.954 9.954 0 0 1-5.567-1.692 12.029 12.029 0 0 1 7.34-5.87v.001Zm7.799.463a10.024 10.024 0 0 1-4.355 5.63 34.802 34.802 0 0 0-1.46-6.468 12.058 12.058 0 0 1 5.815.838Zm-9.428-4.417c.332.678.643 1.37.93 2.073a14.034 14.034 0 0 0-8.207 6.451 10.08 10.08 0 0 1-2.827-7.922c3.343.708 6.87.502 10.104-.602Zm7.575-4.841a10.07 10.07 0 0 1 2.24 7.26 14.094 14.094 0 0 0-6.9-.77 34.843 34.843 0 0 0-1.055-2.398 19.05 19.05 0 0 0 5.715-4.092ZM7.266 3.19a33.101 33.101 0 0 1 3.93 5.502 17.13 17.13 0 0 1-8.776.43A10.027 10.027 0 0 1 7.266 3.19ZM12 2c2.388 0 4.58.837 6.3 2.234a17.044 17.044 0 0 1-5.22 3.726 35.076 35.076 0 0 0-3.86-5.568c.903-.26 1.84-.393 2.78-.392Z"/>
  </g>
  <defs>
    <clipPath id="a">
      <path d="M0 0h24v24H0z"/>
    </clipPath>
  </defs>
</svg>
