<svg xmlns="http://www.w3.org/2000/svg" width="24" height="24" viewBox="0 0 24 24">
  <g clip-path="url(#a)">
    <path d="M7.024 2.31A9.08 9.08 0 0 1 9.15 3.356 11.42 11.42 0 0 1 12 3c.993 0 1.951.124 2.85.355a9.091 9.091 0 0 1 2.123-1.045c.697-.237 1.69-.621 2.28.032.4.444.5 1.188.571 1.756.08.634.1 1.46-.11 2.28C20.515 7.415 21 8.652 21 10c0 2.042-1.106 3.815-2.743 5.043a9.457 9.457 0 0 1-2.59 1.356c.214.49.333 1.032.333 1.601v3a1 1 0 0 1-1 1H9a1 1 0 0 1-1-1v-.991c-.955.117-1.756.013-2.437-.276-.712-.302-1.208-.77-1.58-1.218-.355-.424-.74-1.38-1.299-1.566a1 1 0 1 1 .632-1.898c.666.222 1.1.702 1.397 1.088.48.62.87 1.43 1.63 1.753.313.133.772.22 1.49.122L8 17.98a3.986 3.986 0 0 1 .333-1.581 9.457 9.457 0 0 1-2.59-1.356C4.106 13.815 3 12.043 3 10c0-1.346.483-2.582 1.284-3.618-.21-.82-.192-1.648-.112-2.283l.005-.038c.073-.582.158-1.267.566-1.719.59-.653 1.584-.268 2.28-.031l.001-.001Z"/>
  </g>
  <defs>
    <clipPath id="a">
      <path d="M0 0h24v24H0z"/>
    </clipPath>
  </defs>
</svg>
