<?xml version="1.0" encoding="UTF-8"?>
<svg id="Layer_1" data-name="Layer 1" xmlns="http://www.w3.org/2000/svg" version="1.1" viewBox="0 0 24 24">
  <defs>
    <style>
      .cls-1 {
        stroke-width: 0px;
      }
    </style>
  </defs>
  <path class="cls-1"
    d="M14.2,8.3c.2.4.3.9.3,1.4s-.1,1-.3,1.4-.5.8-.9,1c-.4.2-.8.4-1.3.4s-.9-.1-1.3-.4c-.4-.2-.7-.6-.9-1-.2-.4-.3-.9-.3-1.4s.1-1,.3-1.4c.2-.4.5-.7.9-1,.4-.2.8-.3,1.3-.3s.9.1,1.3.3c.4.2.7.5.9,1ZM22,5v14c0,1.7-1.3,3-3,3H5c-1.7,0-3-1.3-3-3V5c0-1.7,1.3-3,3-3h14c1.7,0,3,1.4,3,3ZM17.1,5.7c0-.2,0-.5,0-.7,0-.2-.1-.3-.3-.5-.2-.1-.5-.2-.8-.2s-.8,0-1,.2c-.2.1-.3.4-.3.7v.5c-.3-.4-.7-.8-1.2-1-.5-.2-1.1-.4-1.7-.4s-1.3.1-1.9.4c-.6.3-1.1.6-1.6,1.1-.4.5-.8,1-1,1.7-.2.6-.4,1.3-.4,2s.1,1.4.4,2.1c.2.6.6,1.2,1,1.7.5.5,1,.8,1.6,1.1.6.3,1.2.4,1.9.4s1.6-.2,2.1-.6c.3-.2.5-.4.7-.7v.8c0,.4,0,.8-.2,1.2-.1.3-.3.7-.5.9-.2.3-.5.4-.8.6s-.7.2-1,.2-.8,0-1.1-.2c-.3-.1-.5-.2-.7-.4-.2-.1-.4-.3-.5-.4-.2-.1-.3-.2-.5-.2s-.3,0-.5.1c-.1,0-.3.2-.4.4-.1.1-.2.3-.3.4,0,.1-.1.3-.1.5s.1.4.3.7c.2.2.5.5.9.7.4.2.8.4,1.3.5.5.1,1,.2,1.5.2s1.3-.1,2-.3c.6-.2,1.2-.5,1.7-1,.5-.4.9-1,1.1-1.6.3-.6.4-1.3.4-2.1V5.7Z" />
</svg>