<svg xmlns="http://www.w3.org/2000/svg" width="24" height="24" viewBox="0 0 24 24">
  <g clip-path="url(#a)">
    <path fill-rule="evenodd" d="M7.476 2.43a25.859 25.859 0 0 1 8.956-.016 5.11 5.11 0 0 1 4.163 4.143c.431 2.36.528 4.682.04 7.107-.286 1.428-2.02 2.772-4.026 3.133-1.55.278-6.484.422-8.11.203.438 2 4.634 1.653 5.5 1.5l.235-.043c.572-.105 1.45-.267 1.877-.181.61.123 1.152.553 1.15 1.227 0 .574-.414 1.001-.872 1.286-.35.218-.808.417-1.324.585-1.042.34-2.46.6-4.06.608-3.428.015-6.644-2.263-7.478-5.75-.749-3.133-.743-6.648-.145-9.782a5.03 5.03 0 0 1 4.094-4.02ZM14 8a1 1 0 0 0-1 1v3a1 1 0 1 1-2 0V9a1 1 0 1 0-2 0v4a1 1 0 0 1-2 0V9a3 3 0 0 1 5-2.236A3 3 0 0 1 17 9v4a1 1 0 1 1-2 0V9a1 1 0 0 0-1-1Z" clip-rule="evenodd"/>
  </g>
  <defs>
    <clipPath id="a">
      <path d="M0 0h24v24H0z"/>
    </clipPath>
  </defs>
</svg>
