<svg xmlns="http://www.w3.org/2000/svg" width="24" height="24" viewBox="0 0 24 24">
  <g clip-path="url(#a)">
    <path fill-rule="evenodd" d="M8.212 2a3 3 0 0 0-2.964 2.537L3.192 17.69A2 2 0 0 0 5.168 20h1.69a2 2 0 0 0 2 2h1.976a2 2 0 0 0 1.976-1.691L13.327 17h1.453a6 6 0 0 0 5.857-4.697l.048-.218a5.002 5.002 0 0 0-2.6-5.538C17.578 4.011 15.345 2 12.54 2H8.21h.002Zm1.584 12h1.843a6.578 6.578 0 0 0 6.38-4.977l.01-.036a2.99 2.99 0 0 1 .704 2.664l-.049.217A4 4 0 0 1 14.78 15h-1.453a2 2 0 0 0-1.976 1.691L10.834 20H8.858l.938-6Z" clip-rule="evenodd"/>
  </g>
  <defs>
    <clipPath id="a">
      <path d="M0 0h24v24H0z"/>
    </clipPath>
  </defs>
</svg>
