<svg xmlns="http://www.w3.org/2000/svg" width="24" height="24" viewBox="0 0 24 24">
  <g clip-path="url(#a)">
    <path d="M12 22c5.523 0 10-4.477 10-10S17.523 2 12 2 2 6.477 2 12c0 4.006 2.356 7.462 5.758 9.058l2.29-10.766a1 1 0 0 1 1.956.416C11.73 12 11.49 12.5 11.501 13.1c.017.94.273 1.442.521 1.702.253.265.618.408 1.095.4.487-.01 1.038-.181 1.526-.489C15.592 14.117 16 13.095 16 12a4 4 0 1 0-7.668 1.6 1 1 0 0 1-1.832.8 6 6 0 1 1 11 0c-.368.848-1.04 1.534-1.792 2.007-.755.475-1.657.779-2.555.795-.819.015-1.672-.212-2.359-.808L9.66 21.726c.75.18 1.534.275 2.339.275L12 22Z"/>
  </g>
  <defs>
    <clipPath id="a">
      <path d="M0 0h24v24H0z"/>
    </clipPath>
  </defs>
</svg>
