<?xml version="1.0" encoding="UTF-8"?>
<svg id="Layer_1" data-name="Layer 1" xmlns="http://www.w3.org/2000/svg" version="1.1" viewBox="0 0 24 24">
  <defs>
    <style>
      .cls-1 {
        stroke-width: 0px;
      }
    </style>
  </defs>
  <path class="cls-1"
    d="M12,22c-5.5,0-10-4.5-10-10,0-5.5,4.4-10,10-10,5.5,0,10,4.5,10,10,0,5.5-4.5,10-10,10ZM11.3,7c-1,0-1.8,0-2.6,0-.1,0-.2,0-.2.2,0,3.2,0,6.4,0,9.6,0,.2,0,.2.2.2.5,0,1.1,0,1.6,0,.2,0,.2,0,.2-.2,0-.9,0-1.7,0-2.6,0-.2,0-.2.2-.2.9,0,1.8,0,2.7,0,2.2,0,3.7-1.9,3.4-4.1-.2-1.6-1.6-2.8-3.2-2.9-.8,0-1.6,0-2.3,0h0ZM12.1,12c-.5,0-.9,0-1.4,0-.1,0-.2,0-.2-.2,0-.9,0-1.8,0-2.7,0-.1,0-.2.2-.2.9,0,1.7,0,2.6,0,.6,0,1.1.3,1.4.9s.2,1.1-.2,1.6c-.3.3-.6.5-1,.5-.4,0-.9,0-1.3,0h0Z" />
</svg>