<svg xmlns="http://www.w3.org/2000/svg" width="24" height="24" viewBox="0 0 24 24">
  <g clip-path="url(#a)">
    <path fill-rule="evenodd" d="M12 2a6 6 0 0 0-6 6v1.875L5.1 9.2a1 1 0 0 0-1.2 1.6l1.866 1.4c-.444 1.168-1.527 2.39-3.28 3.443a1.01 1.01 0 0 0-.318 1.412C3.286 18.732 5.06 20 7 20c1.784 0 3.007 2 5 2 2.01 0 3.209-2 5-2 1.94 0 3.714-1.268 4.832-2.945a1.01 1.01 0 0 0-.318-1.412c-1.753-1.053-2.836-2.275-3.28-3.443l1.866-1.4a1 1 0 1 0-1.2-1.6l-.9.675V8a6 6 0 0 0-6-6Z" clip-rule="evenodd"/>
  </g>
  <defs>
    <clipPath id="a">
      <path d="M0 0h24v24H0z"/>
    </clipPath>
  </defs>
</svg>
