<?xml version="1.0" encoding="UTF-8"?>
<svg id="Layer_1" data-name="Layer 1" xmlns="http://www.w3.org/2000/svg" version="1.1" viewBox="0 0 24 24">
  <defs>
    <style>
      .cls-1 {
        stroke-width: 0px;
      }
    </style>
  </defs>
  <path class="cls-1"
    d="M15.9,15.4v-3.3c0-.6.5-1.1,1.1-1.1h3.9c.6,0,1.1.5,1.1,1.1v8.9c0,.6-.5,1.1-1.1,1.1H3.1c-.6,0-1.1-.5-1.1-1.1v-8.9c0-.6.5-1.1,1.1-1.1h3.9c.6,0,1.1.5,1.1,1.1v3.3c0,.6.5,1.1,1.1,1.1h5.7c.6,0,1.1-.5,1.1-1.1ZM9.2,2h5.5c.6,0,1.1.5,1.1,1.1v3.4c0,.6-.5,1.1-1.1,1.1h-5.5c-.6,0-1.1-.5-1.1-1.1v-3.4c0-.6.5-1.1,1.1-1.1Z" />
</svg>