<svg xmlns="http://www.w3.org/2000/svg" width="24" height="24" viewBox="0 0 24 24">
  <g clip-path="url(#a)">
    <path fill-rule="evenodd" d="M7 3a4 4 0 0 0-4 4v10a4 4 0 0 0 4 4h10a4 4 0 0 0 4-4V7a4 4 0 0 0-4-4H7Zm10.332 7.055a1 1 0 0 0-1.664-1.11c-.354.47-.725.92-1.159 1.32-.503.464-1.012.812-1.508 1.018l-.008-1.9A1 1 0 0 0 12 8.5c-.542.031-1 .431-1 1v4.373c-1.948-.54-3-2.43-3-4.373a1 1 0 0 0-2 0c0 3.632 2.51 6.5 6 6.5a1 1 0 0 0 1-1v-1.563c1.332.106 2.624 1.047 3.106 2.01a1 1 0 1 0 1.788-.894c-.478-.957-1.37-1.852-2.468-2.436.148-.121.295-.249.44-.382a9.807 9.807 0 0 0 1.466-1.68Z" clip-rule="evenodd"/>
  </g>
  <defs>
    <clipPath id="a">
      <path d="M0 0h24v24H0z"/>
    </clipPath>
  </defs>
</svg>
