<svg xmlns="http://www.w3.org/2000/svg" width="24" height="24" viewBox="0 0 24 24">
  <g clip-path="url(#a)">
    <path fill-rule="evenodd" d="M12 2C6.477 2 2 6.477 2 12c0 1.89.525 3.66 1.438 5.168L2.546 20.2A1.01 1.01 0 0 0 3.8 21.454l3.032-.892A9.957 9.957 0 0 0 12 22c5.523 0 10-4.477 10-10S17.523 2 12 2ZM9.738 14.263c2.023 2.022 3.954 2.289 4.636 2.314 1.037.038 2.047-.754 2.44-1.673a.696.696 0 0 0-.088-.703c-.548-.7-1.289-1.203-2.013-1.703a.711.711 0 0 0-.973.158l-.6.915a.229.229 0 0 1-.305.076c-.407-.233-1-.629-1.426-1.055-.426-.426-.798-.992-1.007-1.373a.227.227 0 0 1 .067-.291l.924-.686a.712.712 0 0 0 .12-.94c-.448-.656-.97-1.49-1.727-2.043a.695.695 0 0 0-.684-.075c-.92.394-1.716 1.404-1.678 2.443.025.682.292 2.613 2.314 4.636Z" clip-rule="evenodd"/>
  </g>
  <defs>
    <clipPath id="a">
      <path d="M0 0h24v24H0z"/>
    </clipPath>
  </defs>
</svg>
