<svg xmlns="http://www.w3.org/2000/svg" width="24" height="24" viewBox="0 0 24 24">
  <g clip-path="url(#a)">
    <path fill-rule="evenodd" d="M12 4c.855 0 1.732.022 2.582.058l1.004.048.961.057.9.061.822.064a3.802 3.802 0 0 1 3.494 3.423l.04.425.075.91c.07.943.122 1.971.122 2.954 0 .983-.052 2.011-.122 2.954l-.075.91c-.013.146-.026.287-.04.425a3.802 3.802 0 0 1-3.495 3.423l-.82.063-.9.062-.962.057-1.004.048A61.58 61.58 0 0 1 12 20a61.58 61.58 0 0 1-2.582-.058l-1.004-.048-.961-.057-.9-.062-.822-.063a3.802 3.802 0 0 1-3.494-3.423l-.04-.425-.075-.91A40.662 40.662 0 0 1 2 12c0-.983.052-2.011.122-2.954l.075-.91c.013-.146.026-.287.04-.425A3.802 3.802 0 0 1 5.73 4.288l.821-.064.9-.061.962-.057 1.004-.048A61.68 61.68 0 0 1 12 4Zm-2 5.575v4.85c0 .462.5.75.9.52l4.2-2.425a.6.6 0 0 0 0-1.04l-4.2-2.424a.6.6 0 0 0-.9.52v-.001Z" clip-rule="evenodd"/>
  </g>
  <defs>
    <clipPath id="a">
      <path d="M0 0h24v24H0z"/>
    </clipPath>
  </defs>
</svg>
