<?xml version="1.0" encoding="UTF-8"?>
<svg id="Layer_1" data-name="Layer 1" xmlns="http://www.w3.org/2000/svg" version="1.1" viewBox="0 0 24 24">
  <defs>
    <style>
      .cls-1 {
        stroke-width: 0px;
      }
    </style>
  </defs>
  <path class="cls-1"
    d="M12.1,22c-.7,0-1.5,0-2.3-.2-.9-.2-1.6-.6-1.9-1.5-.1-.4-.1-.9-.2-1.3-.2-1.6-.3-3.1-.5-4.7-.1-1.2-.3-2.5-.4-3.7,0-.3.2-.6.5-.6.3,0,.6.2.6.5,0,.7.1,1.3.2,2,.1,1.3.3,2.6.4,3.8.1,1,.2,2,.3,3,.1,1,.5,1.5,1.5,1.5,1.2,0,2.4.2,3.5,0,1-.2,1.3-.5,1.3-1.5.1-1.7.3-3.3.5-5,.1-1.5.3-2.9.4-4.3,0-.4-.1-.5-.5-.5-1.4.2-2.8.2-4.3.2-1.7,0-3.4-.2-5.1-.5-.8-.1-1.3-.9-1.2-1.6,0-.3.1-.6.2-.9.2-.9.8-1.3,1.7-1.1,2.4.4,4.9.5,7.3.3.5,0,1.1,0,1.6-.2.2,0,.3-.1.2-.3,0-.4-.2-.9-.3-1.3,0-.3-.2-.5-.6-.6-.6-.1-1.3-.2-1.9-.3-1.3,0-2.5,0-3.8,0-.3,0-.7,0-1,.2,0,0-.1,0-.1,0,0,.1,0,0,.1.1.7.1,1.3.2,2,.2,1.3,0,2.6,0,3.8-.2.3,0,.6.2.7.5s-.2.6-.5.6c-1.8.2-3.6.3-5.4,0-.6,0-1.3-.2-1.9-.5-.4-.2-.7-.4-.7-.9,0-.5.3-.7.7-.9.7-.3,1.5-.4,2.3-.5,1.3-.1,2.6-.1,3.9,0,.7,0,1.4.2,2.1.3.9.2,1.4.7,1.4,1.6,0,.3.1.7.2,1,0,.3.2.5.5.5.6.1.9.5,1,1,0,.4.2.7.2,1.1,0,.8-.4,1.3-1.1,1.5-.4.1-.5.1-.5.6-.2,1.8-.4,3.7-.6,5.5-.1,1.4-.3,2.9-.4,4.3-.1,1.2-.9,2-2.2,2.3-.7.1-1.3.1-2.1.1ZM11.9,8.6c1.4,0,2.8,0,4.2-.3.4,0,.7,0,1.1-.2.4,0,.6-.3.6-.7,0,0,0-.2,0-.3,0-.5-.3-.6-.8-.5-1.3.2-2.5.4-3.8.4-1.7,0-3.4,0-5.1-.3-.4,0-.8-.2-1.2-.2-.3,0-.4,0-.5.4,0,.2,0,.4-.1.6,0,.3,0,.5.4.5,0,0,.2,0,.3,0,1.7.2,3.4.4,5,.4ZM12.1,20.4c-.5,0-1.1,0-1.6,0-.6,0-1.1-.5-1.2-1.2-.1-1.2-.2-2.3-.3-3.5-.1-1.1-.2-2.3-.3-3.4,0-.1,0-.2,0-.4,0-.2,0-.2.2-.1.4,0,.7.1,1.1.1.8,0,1.6-.2,2.4-.5.4-.2.9-.4,1.3-.5.6-.2,1.2-.1,1.8,0,.1,0,.1,0,.1.2-.1,1.3-.3,2.6-.4,3.9,0,1-.2,2-.3,3,0,.4,0,.8-.1,1.2,0,.7-.6,1.1-1.2,1.1-.4,0-.9,0-1.3,0Z" />
</svg>