<?xml version="1.0" encoding="UTF-8"?>
<svg id="Layer_1" data-name="Layer 1" xmlns="http://www.w3.org/2000/svg" version="1.1" viewBox="0 0 24 24">
  <defs>
    <style>
      .cls-1 {
        stroke-width: 0px;
      }
    </style>
  </defs>
  <path class="cls-1"
    d="M12.3,22h-.9s0,0-.1,0c-1.1-.1-2-.6-2.8-1.4-1.8-1.8-3.5-3.5-5.3-5.3-1.8-1.8-1.8-4.8,0-6.6,1.8-1.8,3.6-3.6,5.4-5.4,1.8-1.8,4.8-1.8,6.6,0,1.8,1.8,3.6,3.6,5.3,5.4.6.6,1,1.3,1.2,2.1,0,.2,0,.5.1.7v.9s0,0,0,.1c-.1,1-.6,1.9-1.3,2.7-1.8,1.8-3.6,3.6-5.4,5.4-.6.6-1.3,1-2.1,1.2-.2,0-.5,0-.7.1ZM15.2,11.9c0-1.8-1.5-3.2-3.4-3.2-1.8,0-3.2,1.5-3.2,3.4,0,1.8,1.5,3.3,3.4,3.2,1.8,0,3.2-1.5,3.2-3.4Z" />
</svg>