<?xml version="1.0" encoding="UTF-8"?>
<svg id="Layer_1" data-name="Layer 1" xmlns="http://www.w3.org/2000/svg" version="1.1" viewBox="0 0 24 24">
  <defs>
    <style>
      .cls-1 {
        stroke-width: 0px;
      }
    </style>
  </defs>
  <path class="cls-1"
    d="M19,2H5c-1.7,0-3,1.3-3,3v14c0,1.7,1.3,3,3,3h14c1.7,0,3-1.3,3-3V5c0-1.7-1.3-3-3-3ZM16,19c0,0,0,0-.2,0h-1.8c-.1,0-.2,0-.3-.1l-3-3.9-.8.8v2.7c0,.3-.2.5-.5.5h-.9c-.3,0-.5-.2-.5-.5V5.5c0-.3.2-.5.5-.5h.9c.3,0,.5.2.5.5v7.4c0,.3.3.4.5.2l3.2-3.2c0,0,.2-.1.3-.1h1.9c0,0,.1,0,.2,0,0,0,0,.2,0,.2l-3.7,3.5c-.1.1-.1.3,0,.4l3.8,4.8c0,0,0,.1,0,.2Z" />
</svg>