<?xml version="1.0" encoding="UTF-8"?>
<svg id="Layer_1" data-name="Layer 1" xmlns="http://www.w3.org/2000/svg" version="1.1" viewBox="0 0 24 24">
  <defs>
    <style>
      .cls-1 {
        stroke-width: 0px;
      }
    </style>
  </defs>
  <path class="cls-1"
    d="M2.9,12.5c0-1.4,0-2.8.4-4.1.4-1.5,1-2.8,2.1-3.9.8-.7,1.7-1.3,2.7-1.6,2.1-.8,4.2-.9,6.4-.7.9.1,1.8.3,2.6.6,1.6.6,2.9,1.7,3.6,3.3.4,1,.5,2,.3,3.1-.3,1.7-1.2,3-2.7,3.9-.7.4-1.5.7-2.3.9-.7.2-1.4.4-2,.7-1,.5-1.7,1.3-2.1,2.2-.4.8-.8,1.7-1.2,2.5-.3.6-.6,1.2-1.1,1.7-1.2,1.3-3.2,1.2-4.4,0-.6-.6-1-1.3-1.3-2-.5-1.2-.7-2.4-.9-3.7-.1-1-.2-2-.2-3Z" />
</svg>