<svg xmlns="http://www.w3.org/2000/svg" width="24" height="24" viewBox="0 0 24 24">
  <g clip-path="url(#a)">
    <path d="M12 2c5.523 0 10 4.477 10 10s-4.477 10-10 10S2 17.523 2 12 6.477 2 12 2Zm3 4c-.3 0-.568.131-.751.34l-1.65-.33a.5.5 0 0 0-.594.42l-.368 2.578c-1.423.063-2.739.493-3.746 1.198-.192.134-.375.28-.547.439a1.5 1.5 0 0 0-1.34 2.684L6 13.5c0 1.382.802 2.532 1.891 3.294C8.983 17.56 10.439 18 12 18c1.56 0 3.017-.441 4.109-1.206C17.199 16.032 18 14.882 18 13.5l-.004-.17a1.5 1.5 0 0 0-1.34-2.685 5.291 5.291 0 0 0-.547-.44c-.94-.657-2.15-1.076-3.465-1.18l.276-1.931 1.132.226A1 1 0 1 0 15 6Zm-5.5 6a1.5 1.5 0 1 1 0 3 1.5 1.5 0 0 1 0-3Zm5 0a1.5 1.5 0 1 1 0 3 1.5 1.5 0 0 1 0-3Z"/>
  </g>
  <defs>
    <clipPath id="a">
      <path d="M0 0h24v24H0z"/>
    </clipPath>
  </defs>
</svg>
