<svg xmlns="http://www.w3.org/2000/svg" width="24" height="24" viewBox="0 0 24 24">
  <g clip-path="url(#a)">
    <path fill-rule="evenodd" d="M19.753 4.659a1 1 0 0 0-1.506-1.317l-5.11 5.84L8.8 3.4A1 1 0 0 0 8 3H4a1 1 0 0 0-.8 1.6l6.437 8.582-5.39 6.16a1 1 0 1 0 1.506 1.317l5.11-5.841L15.2 20.6a.999.999 0 0 0 .8.4h4a1 1 0 0 0 .8-1.6l-6.437-8.582 5.39-6.159ZM16.5 19 6 5h1.5L18 19h-1.5Z" clip-rule="evenodd"/>
  </g>
  <defs>
    <clipPath id="a">
      <path d="M0 0h24v24H0z"/>
    </clipPath>
  </defs>
</svg>
