<svg xmlns="http://www.w3.org/2000/svg" width="24" height="24" viewBox="0 0 24 24">
  <g clip-path="url(#a)">
    <path fill-rule="evenodd" d="M12 2C6.477 2 2 6.477 2 12s4.477 10 10 10 10-4.477 10-10S17.523 2 12 2Zm-4.731 8.44c3.24-.904 6.505-.449 9.334.774a1 1 0 0 0 .793-1.836c-3.17-1.37-6.906-1.913-10.665-.864a1 1 0 0 0 .538 1.926Zm.476 2.866c2.788-.777 5.996-.291 7.78.804a1.002 1.002 0 0 0 1.51-.695 1 1 0 0 0-.464-1.01c-2.312-1.42-6.104-1.934-9.363-1.025a1 1 0 0 0 .537 1.926Zm.431 2.754c1.13-.26 2.387-.263 3.492-.091 1.14.176 1.962.514 2.318.806a1 1 0 0 0 1.266-1.55c-.763-.623-2-1.035-3.277-1.233-1.312-.203-2.829-.207-4.247.12a1 1 0 1 0 .448 1.948Z" clip-rule="evenodd"/>
  </g>
  <defs>
    <clipPath id="a">
      <path d="M0 0h24v24H0z"/>
    </clipPath>
  </defs>
</svg>
