<svg xmlns="http://www.w3.org/2000/svg" width="24" height="24" viewBox="0 0 24 24">
  <g clip-path="url(#a)">
    <path fill-rule="evenodd" d="M5.086 4.28c1.65-1.76 4.03-2.78 6.93-2.78 4.792 0 8.017 2.784 9.033 6.65a1.5 1.5 0 1 1-2.902.762C17.48 6.37 15.45 4.5 12.017 4.5c-2.164 0-3.72.742-4.742 1.832C6.239 7.438 5.64 9.02 5.64 10.875v2.25c0 1.855.598 3.437 1.634 4.543 1.022 1.09 2.578 1.832 4.74 1.832 1.577 0 2.796-.365 3.715-.93.92-.568 1.42-1.285 1.56-2.068.173-.972-.044-1.579-.364-2.001a2.213 2.213 0 0 0-.116-.14c-.14.488-.35.954-.623 1.382-1.514 2.3-4.37 2.46-6.203 1.728-1.091-.435-1.972-1.583-2.247-2.788a3.517 3.517 0 0 1 .168-2.147c.312-.75.884-1.37 1.662-1.828.8-.472 1.927-.665 2.979-.694.418-.011.837.002 1.254.04-.09-.2-.187-.343-.274-.425-.384-.357-1.06-.632-1.746-.628-.647.005-1.126.247-1.41.7a1.5 1.5 0 1 1-2.544-1.59c.948-1.515 2.507-2.1 3.933-2.11 1.388-.01 2.82.512 3.81 1.432.954.888 1.373 2.254 1.513 3.485.836.403 1.63.974 2.234 1.77.874 1.15 1.233 2.624.927 4.34-.32 1.793-1.45 3.178-2.94 4.096-1.457.898-3.24 1.376-5.287 1.376-2.9 0-5.28-1.02-6.93-2.78-1.636-1.746-2.445-4.1-2.445-6.595v-2.25c0-2.494.81-4.85 2.445-6.594V4.28Zm8.947 8.823a7.893 7.893 0 0 0-1.405-.09c-.86.024-1.384.188-1.537.279-.305.18-.39.333-.417.398a.527.527 0 0 0-.011.327c.036.16.12.333.238.48.053.072.12.135.194.186.005.004.006.004 0 .002.985.393 2.105.14 2.586-.592.137-.207.265-.553.352-.99Z" clip-rule="evenodd"/>
  </g>
  <defs>
    <clipPath id="a">
      <path d="M0 0h24v24H0z"/>
    </clipPath>
  </defs>
</svg>
