<svg xmlns="http://www.w3.org/2000/svg" width="24" height="24" viewBox="0 0 24 24">
  <g clip-path="url(#a)">
    <path d="M12 9.235c2.907 2.946 4.956 6.4 6.668 10.217A9.963 9.963 0 0 1 12 22a9.963 9.963 0 0 1-6.668-2.548C7.044 15.635 9.092 12.181 12 9.235ZM5.509 4.393c1.8.97 3.488 2.134 5.033 3.472-2.886 2.934-4.96 6.314-6.667 9.966A9.954 9.954 0 0 1 2 12a9.978 9.978 0 0 1 3.509-7.607Zm12.982 0A9.978 9.978 0 0 1 22 12c0 2.176-.695 4.19-1.875 5.83-1.707-3.651-3.781-7.03-6.667-9.965a27.897 27.897 0 0 1 5.033-3.472ZM12 2c1.675 0 3.254.412 4.641 1.14A29.474 29.474 0 0 0 12 6.483 29.47 29.47 0 0 0 7.359 3.14 9.957 9.957 0 0 1 12 2Z"/>
  </g>
  <defs>
    <clipPath id="a">
      <path d="M0 0h24v24H0z"/>
    </clipPath>
  </defs>
</svg>
