<svg id="Layer_1" data-name="Layer 1" xmlns="http://www.w3.org/2000/svg" viewBox="0 0 1024 1024"><defs><style>.cls-1{fill:#002040;}.cls-2{fill:#005ac9;}.cls-3{fill:#f7931e;}.cls-4{fill:#e09b48;}.cls-5{fill:#f943c1;}.cls-6{fill:#d5d9fd;}.cls-7{fill:#e7d3fd;}.cls-8{fill:#fd9eee;}.cls-9{fill:#2977fb;}</style></defs><path class="cls-1" d="M128.66,940.05c-5.39-5.36-5.52-11.58-3-18.24,2.93-7.61,9.25-9,16.39-9,27.88,0,55.76-.15,83.64-.17,3.44,0,6.81-.1,9.86-1.89C264,894,295.81,888.18,327.68,882.6c17.7-3.1,35.93-4.29,52.74-11.05,26.51-10.67,43.93-30.19,52.65-57.43,10.19-31.85,0-59.32-18.33-85-1-1.37-2.68-2.89-4.22-3.11-9.2-1.3-17.78-4.94-26.79-6.92-2.66-.59-3.29.73-3.92,3.13-11.67,44.43-42.16,68.14-85.88,75.72-18.9,3.28-38.46,3.45-57.17-2.06-28.86-8.49-48.94-28.09-62.57-54.11-7.33-14-15.43-27-27.1-37.78a61.94,61.94,0,0,0-13.47-10c-28.64-14.9-54.28-33.9-74.7-59C3.86,567.22-8,491.44,20.78,409.87c19.55-55.44,58.27-94.59,111.41-119.41,6.46-3,10.92-6.47,13.51-13.71,6.81-19.05,19.91-34.37,32.22-50,2.77-3.52,3.61-6.47,2-11A88.87,88.87,0,0,1,258.35,96.47c28.62-1.68,57,1.46,85.14,7,3.87.76,6.37,0,9.09-2.44C402.81,55.23,463.25,41.71,529,46c44.51,2.87,85.45,16.43,121.27,43.7,6.48,4.93,12.58,10.38,18.65,15.83,3,2.7,5.62,3.26,9.67,1.92a186.9,186.9,0,0,1,81-8.39c33.87,4,56.17,24.28,70,54.44,6.86,14.93,8.21,30.95,6.24,47.16-.44,3.61,1.26,5.54,3.36,7.59q13.13,12.81,26.32,25.57a101,101,0,0,1,30,56.61c1,5.65,3.71,9.11,8.39,12.08,36.44,23.17,63,55,80.27,94.33,44.27,100.6,10.51,219-80.1,280.72-15.86,10.8-28.52,25.15-43.52,36.85-2.28,1.78-2.63,4.66-3.36,7.26-12.35,44.26-50,73.35-96,74.1-14.51.23-29,.44-43.19-3.68-36.51-10.62-58.88-35.8-71.7-70.42-1.78-4.82-3.28-6.47-8.29-4.69a250.15,250.15,0,0,1-33.39,9.14c-4,.83-5.56,3.9-7.75,6.81-39.87,52.86-15.5,115.69,36.13,139.3,13.07,6,28.09,6.64,42.38,9,35.33,5.91,70.6,12.15,102.47,29.93,2.74,1.53,5.62,1.55,8.56,1.55,21.08,0,42.16.06,63.24-.07,6.71,0,12.68,1.07,16.2,7.58s2.83,12.61-1.51,18.43c-4,4.71-9.54,4.62-14.94,4.68-14,.14-28,.33-42,.07-5.27-.1-9,1.39-11.38,6.16-5,3.93-10.82,3.7-16.7,3.7q-273.35,0-546.7,0c-5,0-9.92-.49-14.88-.76-4.66-7.6-11.27-9.8-20.21-9.44-18.23.73-36.51.22-54.77.15C137.92,943.22,132.88,943.39,128.66,940.05ZM377,157.34l.25,0c-2.3-4.73-7-6.55-11.12-9-7.35-2.56-13.42-7.87-21-9.85-28.68-7.46-58-8.31-87.35-7.76-9.62.18-18.52,4-26.44,9.47-2.57,1.79-6.14,3-6.5,7-2.57,2.72-5.85,4.54-8,7.95-11.13,18-12.78,44.08,7.86,62.09-14.27,19.48-29.61,38.26-41.75,59.21-7.56,13.06-10.86,27.21-6.35,42.31,4.28,28.44,36.49,49,65.07,41.31,22.34-6,35.28-22.48,45.92-41.45,1.84-3.29-.17-3.91-2.92-3.89-6.34.05-12.73.64-19,0-7.92-.81-14.7-.21-18.81,7.77-.58,1.13-1.9,1.92-3,2.77-11.06,8.93-25.63,8.75-36.06-.45-8.26-7.3-13.71-21.8-3.87-34.87,5.84-7.76,11.49-15.67,17.09-23.62,10-14.21,21.33-27.5,30-42.67,2.56-1.22,5.32-.93,8-.93q33.24,0,66.48.07c5.12,0,9.55-1.4,11.7-6.4,2.29-5.3.06-9.56-3.78-13.36-5.75-5.69-12.6-8.3-20.62-8.93-15.8-1.24-31.64-.61-47.45-1.39-11-.54-17.9-7.45-17.63-17.35.24-9.29,6.12-14.23,17.59-14.27,12.21-.05,24.41.23,36.62.37,5,1.73,10.3,1.23,15.48,1.47,17.6.83,32.47,7.64,44.41,20.52,16.31,17.6,15.21,45.34-2.27,60.25-9,7.68-19.67,11-31.38,10.94-17.67-.06-35.33-.27-53-.36-2.21,0-4.95-.88-6.49,1-6.92,8.63-13.6,17.46-20.37,26.23l1,2.13q38.7,0,77.41,0c5.43,0,10.87-.05,16.3-.23A55,55,0,0,0,361,279.77c18.09-6.9,31.61-19.4,38.26-37.24,4.9-13.16,7.94-27,4.21-42.08-3.31-13.36-7.83-25.23-17.21-35.2C383.6,162.11,381.67,158.16,377,157.34ZM707.84,691.58c.18-.71.35-1.42.52-2.13,1-7.11,3.45-13.66,9.36-18.12a16.75,16.75,0,0,0,7-13.08c.62-9.24,3.41-18.34,1.9-27.73,1-1.4,2.89-2.87,1.74-4.61s-3.28-.4-4.82.15c-9.54,3.39-18.23,8.22-25.47,15.42-11.47,10.84-19.28,23.64-21.37,39.55-4.13,31.55,12.39,64.82,45.51,73.05,24.54,6.11,50,7.85,74-3.46A43.61,43.61,0,0,0,817,730.42c-.77-.64-.93-.89-1.09-.89q-33.57-.31-67.14-.59c-10.76-1.76-20.64-5.08-26.84-15-.79-10.6-1.37-21.21.29-32.45-6.82,3.4-7.92,4.39-12,10.25Zm-413.63,27.2c-1.3-.46-1.54.31-1.54,1.35-7.19,6.59-16.07,9-25.43,10.25-3-1.34-6,.49-9.54-.57-10-3-16.11-10.33-22.76-17.28-16.08-18.69-31.58-37.94-48.45-55.89-12.09-12.85-16.82-26.35-11-43.17l7.49-6.36c9-2.68,17.74-3.11,26.16,2.09,12.45,7.69,17.62,19.7,17.51,33.34-.09,11.29,4.11,19.11,12.09,26.42s14.79,15.62,22.12,23.51c-.54-19.78-2.34-38.87-4.19-58-1.28-13.31-6.89-24.84-15.27-35-11.69-14.12-25.82-24-45.1-24.07-10.15-1.07-19.31,2.2-27.72,7.24-11,6.62-19.23,15.64-21.05,29.09-2.51,2.69-2.62,6.19-3,9.5-1.82,16.89,2.62,32.13,14,44.6,17.26,18.85,35.27,37,46.4,60.55,10.79,19.33,26.5,32,48.92,34.48,9.63,1.07,19.44.35,29.16.68,29.39,1,56.5-19.6,64.3-51.92a56.36,56.36,0,0,0-2.83-35.76c-7-22.41-21.64-37.23-44.32-43.68-4-1.15-9.77-4.08-12.09-1.37-2.56,3,.71,8.4,2,12.64.43,5.61,1,11.22,1.26,16.84.27,5,1.93,8.88,6.22,12,7,5.17,12.58,11.68,15.41,20.16a6.55,6.55,0,0,0-.42,1l-18.89-12.42c1.35,13.52,3.05,26.26.84,39A1,1,0,0,0,294.21,718.78ZM300,919.63a6.2,6.2,0,0,0-5.25,2.15H300l6-.19c3.62.09,7.25.36,10.86.22,43.26-1.6,86.54-.91,129.81-1,72.93-.21,145.86.42,218.79-1,6.1-.13,12.15,1.87,18.25.25,1.44-.38,3.7.29,3.94-1.74.27-2.3-2.07-1.72-3.45-2.17-7.78-2.52-15.86-3.56-23.92-4.48-36.14-4.1-67-17.83-89.81-47.41-23.87-30.94-33-65-23.37-103.35,2.16-8.64,5.6-17,8.74-26.3a372.39,372.39,0,0,1-99-1.33,134.66,134.66,0,0,1,14,50c-.38,4.73-.7,9.47-1.14,14.19-4.27,46.37-38.23,96-93.92,107.24C350.55,909.76,325.26,914.65,300,919.63ZM846.33,348.91c15.31-15.3,19-34.05,15.31-54.51-4.75-26.11-24.53-41.44-42.88-57.61-3.06-2.68-3.26.54-3.45,2.38-1.08,10.83-2,21.67-3.06,32.49-.3,3,.62,4.75,3.51,6.39,18.34,10.37,23.26,30.52,10,47.94-3.52,2-6.86,4.47-10.58,6-14.3,5.73-28.27,1-39.38-13-2-2.49-3.51-5.13-7.41-5-8.15.24-16.31.24-24.46.16-3.32,0-4,1-2.48,3.94,9.28,17.79,20.74,33.49,39.72,42.15C803.83,370.5,831.63,365.72,846.33,348.91ZM653.55,168.55c-10.55,14.64-15.07,31-14,49,1.5,25.46,14.17,45,35,58.12,17.1,10.73,37.11,8.66,56.87,6-12.27-10.55-20.78-25.24-36.86-31.16a31.44,31.44,0,0,1-9.17-5.71c-26.67-22.28-18.31-65.28,14.59-79,13.73-5.71,28.34-6.13,42.82-4.83,15.35,1.38,23.83,11.43,24.51,27.34.13,3,.47,5.7,2.94,8,7,6.4,13.88,13,20.78,19.54,2.71,2.58,4.88,2.33,6-1.31,1.78-5.6,3.78-11.19,4.89-16.94,3.78-19.6-6.48-43.79-22.26-53.31a51.78,51.78,0,0,0-18.78-10.17c-13.06-4.22-26.41-3-39.62-1.91C693.62,134.56,669.66,144.38,653.55,168.55ZM413.66,143.39c1.5,2.48,2.88,5,4.51,7.42,23.53,34.64,28.17,71.44,9.66,109.28-19.27,39.41-52.32,58.09-96,57.83-5.77,0-8.65,1.45-11.11,7-8.05,18.08-18.34,34.76-33.18,48.33-36.32,33.2-94.87,29.14-126.16-8.67-5.66-6.85-9.26-14.89-14.39-22-1.35-5.48-3-10.9-3.93-16.46-.66-4.09-2.32-4.41-5.36-2.62-6.43,3.78-13.06,7.28-19.21,11.49-32,21.9-55.18,50.63-68,87.6-11.74,34-13.11,68.61-7.65,103.81,8.15,45.69,30.68,82.7,67.32,113,0-3.06,0-4.4,0-5.73-.53-30.86,9.53-57.21,34.63-76.06,38.78-29.11,94.18-19.71,122.83,21.48,7,10,14.18,13.88,25.74,15.34,45,5.64,79.36,38.36,86.8,82.3,1.24,7.34,4.31,9.56,10.55,11.11,39.26,9.75,79.08,15.77,119.52,16.13,42.39.38,83.75-7.26,124.56-18.4,5.32-1.45,7.89-3.62,8.78-9.16,7.32-45.56,43.19-78.06,86.93-85.6,5.38-.93,8.09-3.25,10.88-7.5,20.9-31.85,50.29-48.08,88.58-44.39,37.78,3.65,63.13,24.76,77.34,59.75,3.73,9.19,4.62,19,6.32,30.58,2.75-3.33,4.27-5.29,5.91-7.14,46-51.84,59.6-112.1,45.25-179-9-42.07-32.49-75.65-65-103.26-6.59-5.6-6.79-5.6-10,2.52-26.4,67.39-104.51,71.48-145,35.07-16.83-15.15-28.58-33.78-38.08-54-1.45-3.11-2.74-5.69-7.14-5.91-55.45-2.74-94.09-55.57-93.81-103.67.18-32,12.25-59,35.12-81.2,3.63-3.52,3.76-5.36-.22-8.88-42.88-38-94-48.24-149.24-45-19.41.42-38.18,4.6-56.63,10.11a139.65,139.65,0,0,0-48.29,25.68c-1.62,1.31-5.18,2.68-.81,5.2C396.5,125.94,404.82,135,413.66,143.39ZM787.39,698.57c11.11,0,25.3,0,39.5,0,2.68,0,4.66-1.5,6.53-3.23q15.47-14.3,31-28.56c15.15-14,17.87-31.73,13.26-50.55-6.42-26.24-29.47-43.5-56.26-43.59-27.25-.09-52.3,18-58.74,43.9-5,20-4.16,40.69-6.78,62.81,12.74-11.61,23.72-22.24,34.21-33.39,1.58-1.67,1.11-3.85,1.26-5.83.48-6.09.47-12.22,3.13-18,5.13-11,13.57-17.6,25.79-17.92,10.9-.28,19.91,3.87,25.07,14.21,7.18,14.35-.17,31.59-16.66,39-3.3,1.49-7.08,2.31-9.53,5C808.26,674.67,797.58,687,787.39,698.57Zm4.47-403.25c0-10.37-.17-19.61.07-28.83a14.1,14.1,0,0,0-4.78-11.39c-19.91-18.8-39.66-37.78-59.6-56.56-6.49-6.13-14.47-5.46-20.19,1.19s-5.36,15.9,1.7,20.88c17.47,12.36,32,28,47.77,42.24C768.52,273.45,780,284.3,791.86,295.32Z"/><path class="cls-2" d="M796.11,949.55c2.33-4.77,6.11-6.26,11.38-6.16,14,.26,28,.07,42-.07,5.4-.06,10.95,0,14.94-4.68,6.12,1.61,12.2,3.3,17.74,6.5,3.93,2.27,4,4.43.14,7a30.16,30.16,0,0,1-10.49,4.65c-23.67,5.15-47.68,7.92-71.78,9.78-35.81,2.78-71.59,6-107.53,7.21-22.36.75-44.74,1.74-67.1,2.69-53.18,2.24-106.36,2.62-159.55,2.07-34.16-.35-68.32-1.48-102.46-2.69-28-1-56-2.12-84-4.08-43.48-3.06-87.06-5.33-130.19-12.11-7.53-1.19-15.29-1.82-22.4-5.1-2.83-1.31-6.29-2-6.55-6s2.78-5.22,5.88-6.38c1-.36,1.69-1.44,2.54-2.19,4.22,3.35,9.26,3.18,14.19,3.2,18.26.07,36.54.58,54.77-.15,8.94-.36,15.55,1.84,20.21,9.44,2.24,3.46,5.75,2.05,8.7,2.05q232.56.1,465.12.07,47.6,0,95.19.05C790.86,954.7,795.07,955,796.11,949.55Z"/><path class="cls-2" d="M973.12,230.64c-2.42-.53-3.61-2.42-4.22-4.67-3.27-12-10.53-20.2-22.55-24.05-2.32-.75-4.81-1.81-4.68-5s2.65-4.1,5-4.88c11.6-3.93,19.06-11.64,22.08-23.57.58-2.29,1.65-4.51,4.17-4.82,2.94-.36,3.68,2.35,4.28,4.4C980.67,180.12,988,188.61,1000,193c1.84.67,4,1.53,3.89,4.12s-1.87,3.36-3.88,4.09c-11.58,4.23-19.51,11.8-22.43,24.13C977,227.59,976.61,230.42,973.12,230.64Z"/><path class="cls-2" d="M33.28,743.62c-3.84.3-5-1.54-5.51-3.5C25,729.65,18.37,723,8.23,719.38c-2.29-.81-5.47-1.94-5.18-5.49.26-3.1,3.14-3.83,5.36-4.49,10.38-3.12,15.71-10.6,18.75-20.44.8-2.59,1.16-6.25,5.22-6.08,3.65.15,3.74,3.68,4.56,6,3.61,10.12,9.52,17.86,20.13,21.3,2,.64,3.78,1.8,4,4.17.18,2.61-2,3.45-3.81,4.15-10.55,4-18.07,10.78-21.36,21.84C35.33,742.1,34.15,743.54,33.28,743.62Z"/><path class="cls-3" d="M143.29,760.6c-.13,2.07-1.52,2.94-3.31,3.69-10,4.19-17.29,10.9-21.34,21.26-1.94,5-7.63,5.13-9.67.26-4.08-9.72-10.51-16.61-20.14-20.91-4-1.8-4.18-4.84.24-6.64,9.82-4,16.09-11.09,20.14-20.82,2.24-5.39,7.74-5.42,10.11-.19,4.33,9.53,10.57,16.74,20.65,20.31C141.36,758.05,143.09,758.55,143.29,760.6Z"/><path class="cls-3" d="M950.78,255.59c-.49,2.09-2.4,2.66-4,3.35-7.63,3.34-13.19,8.58-16,16.55-.86,2.42-2.22,4.51-5.18,4.74s-3.66-2.41-4.5-4.32c-3.32-7.64-8.56-13.23-16.37-16.31-1.69-.67-3.56-1.37-3.82-3.47-.33-2.68,2-3.36,3.81-4.09,8.34-3.38,13.63-9.43,16.19-18,.69-2.31,1.91-4.11,4.62-4.28s4.2,1.53,4.9,3.84c2.78,9.1,9.11,14.82,17.38,18.91C951,254.12,950.93,254.33,950.78,255.59Z"/><path class="cls-2" d="M491.51,78.76c55.24-3.26,106.36,7,149.24,45,4,3.52,3.85,5.36.22,8.88-22.87,22.19-34.94,49.2-35.12,81.2-.28,48.1,38.36,100.93,93.81,103.67,4.4.22,5.69,2.8,7.14,5.91,9.5,20.26,21.25,38.89,38.08,54,40.46,36.41,118.57,32.32,145-35.07,3.18-8.12,3.38-8.12,10-2.52,32.52,27.61,56,61.19,65,103.26,14.35,66.86.75,127.12-45.25,179-1.64,1.85-3.16,3.81-5.91,7.14-1.7-11.63-2.59-21.39-6.32-30.58-14.21-35-39.56-56.1-77.34-59.75-38.29-3.69-67.68,12.54-88.58,44.39-2.79,4.25-5.5,6.57-10.88,7.5-43.74,7.54-79.61,40-86.93,85.6-.89,5.54-3.46,7.71-8.78,9.16-40.81,11.14-82.17,18.78-124.56,18.4-40.44-.36-80.26-6.38-119.52-16.13-6.24-1.55-9.31-3.77-10.55-11.11-7.44-43.94-41.82-76.66-86.8-82.3-11.56-1.46-18.78-5.34-25.74-15.34-28.65-41.19-84.05-50.59-122.83-21.48-25.1,18.85-35.16,45.2-34.63,76.06,0,1.33,0,2.67,0,5.73-36.64-30.29-59.17-67.3-67.32-113,9.32-11.1,14.67-24.34,19.86-37.58C69.52,471.5,72,452.87,79,435.66c5.36-13.17,11.1-26.18,16.67-39.26l2.7.2a20.67,20.67,0,0,0,5.71,16.78,21.27,21.27,0,0,0,27.8,2.94c8.22-5.59,11.52-16.27,7.75-25-4.34-10.11-15.44-15.18-27-12.35l1.65-7.52c5.41-5.1,10.57-10.52,16.32-15.21,5.53-4.49,9.48-10.9,16.43-13.66,5.13,7.11,8.73,15.15,14.39,22,31.29,37.81,89.84,41.87,126.16,8.67,14.84-13.57,25.13-30.25,33.18-48.33,2.46-5.52,5.34-7,11.11-7,43.67.26,76.72-18.42,96-57.83,18.51-37.84,13.87-74.64-9.66-109.28-1.63-2.39-3-4.94-4.51-7.42,1.25-2.62,3.85-3.78,6-5.29,14.13-9.78,28.54-19.18,42.49-29.21C473.67,100.62,486.06,93,491.51,78.76Zm14.86,224.41c-5.44,0-10.88-.11-16.32.05a78.91,78.91,0,0,0-8.76,1c-65.32,9.21-117.36,39.54-152.12,96.64-15.78,25.92-20.28,54.55-16.69,84.38,5.7,47.39,32.49,81.36,71,106.55,44.81,29.28,94.49,40.47,147.72,35,38.76-4,74.89-15.88,106.14-39.76,24.07-18.4,44.17-40.55,54.54-69.63,18-50.51,9.49-97.53-24-138.5C626.5,328.36,571.82,303.51,506.37,303.17Zm5.94-217.5c-1.9.84-2.35,2.71-2.92,4.38a122.86,122.86,0,0,1-10.48,22.77C490,128,476.23,137.09,460.46,143.76c-1.73.73-4.52,1-4.31,3.62s2.92,2.8,5,3.68c11.83,5,24.34,9.14,32.45,19.93a101.47,101.47,0,0,1,14.79,28.53c.86,2.52.54,6.95,4.22,6.69,3-.22,3.45-4.33,4.44-7,3.42-9.14,7.22-18,13.06-26,8.68-11.85,20.87-18.46,34.1-23.68,1.64-.65,3.87-1.07,4-3.16.15-2.26-2.3-2.47-3.79-3.29a48.76,48.76,0,0,0-5-2.21c-11.74-4.86-21.66-12-29.35-22.28-6.6-8.86-10.18-19.13-14.78-28.94C514.66,88.16,514.71,86,512.31,85.67ZM233.78,466.89c-1.35-2.83-4.35-3.54-6.95-4.51-12.21-4.57-22.63-11.47-29.42-22.86A102.16,102.16,0,0,1,187.66,418c-.52-1.65-.68-4-2.92-4-1.82,0-1.86,2.22-2.51,3.62-3.33,7.14-5.55,14.75-10,21.44-7.94,11.93-19.62,18.41-32.4,23.56-1.83.74-4.3,1.35-4.53,3.63-.26,2.65,2.55,3,4.26,3.58,22.88,8.16,35.46,25.48,42.73,47.61.54,1.64.38,4.16,2.58,4.22s2.31-2.43,2.84-4.07c2.64-8.19,5.61-16.23,10.27-23.52,7.39-11.57,18.41-18.44,30.81-23.45C230.66,469.79,232.68,469.28,233.78,466.89Zm633.55,44.37c2.67-.56,2.94-3,3.57-5.09,6-19.66,18.13-33.49,37.77-40.39,1.78-.62,4.75-.5,4.79-2.94,0-2.22-2.65-2.68-4.47-3.55-9.1-4.39-18.57-7.93-25.07-16.62-6.07-8.12-10-17.09-13.32-26.48-.59-1.69-1-3.92-3.1-4s-2.3,2.41-3.1,3.93a14,14,0,0,0-1,2.5c-6,19.88-18.39,33.87-38.15,41-1.71.62-3.84,1.21-3.69,3.38.13,1.91,2.31,1.77,3.76,2.27,16.42,5.7,28.6,16,35.28,32.36,1.45,3.54,2.76,7.15,4.19,10.7C865.24,509.52,865.51,511,867.33,511.26Z"/><path class="cls-2" d="M470.86,783.23a134.66,134.66,0,0,0-14-50,372.39,372.39,0,0,0,99,1.33c-3.14,9.35-6.58,17.66-8.74,26.3-9.58,38.3-.5,72.41,23.37,103.35,22.81,29.58,53.67,43.31,89.81,47.41,8.06.92,16.14,2,23.92,4.48,1.38.45,3.72-.13,3.45,2.17-.24,2-2.5,1.36-3.94,1.74-6.1,1.62-12.15-.38-18.25-.25-72.93,1.47-145.86.84-218.79,1-43.27.13-86.55-.56-129.81,1-3.61.14-7.24-.13-10.87-.22,22.54-1.73,45.12-3.57,67.27-8.24,25.66-5.41,50.38-13.46,69.89-32.29,25.72-24.82,39.15-54,31.31-90.47C473.91,788,474.63,784.4,470.86,783.23Z"/><path class="cls-4" d="M779.7,144.24c15.78,9.52,26,33.71,22.26,53.31-1.11,5.75-3.11,11.34-4.89,16.94-1.15,3.64-3.32,3.89-6,1.31-6.9-6.55-13.76-13.14-20.78-19.54-2.47-2.26-2.81-4.94-2.94-8-.68-15.91-9.16-26-24.51-27.34-14.48-1.3-29.09-.88-42.82,4.83-32.9,13.68-41.26,56.68-14.59,79a31.44,31.44,0,0,0,9.17,5.71c16.08,5.92,24.59,20.61,36.86,31.16-19.76,2.67-39.77,4.74-56.87-6-20.86-13.09-33.53-32.66-35-58.12-1-17.92,3.47-34.32,14-49,5.88-.47,8.15-6,12.34-8.88,17.81-12.24,38.11-17.1,59-19.81,14.26-1.85,28.72-3.12,43,1.13C771.74,142.15,775.16,145.34,779.7,144.24Z"/><path class="cls-5" d="M386.24,165.25c9.38,10,13.9,21.84,17.21,35.2,3.73,15.11.69,28.92-4.21,42.08-6.65,17.84-20.17,30.34-38.26,37.24a55,55,0,0,1-17.88,3.69c-5.43.18-10.87.22-16.3.23q-38.7,0-77.41,0l-1-2.13c6.77-8.77,13.45-17.6,20.37-26.23,1.54-1.92,4.28-1.05,6.49-1,17.67.09,35.33.3,53,.36,11.71,0,22.37-3.26,31.38-10.94,17.48-14.91,18.58-42.65,2.27-60.25C350,170.59,335.09,163.78,317.49,163c-5.18-.24-10.44.26-15.48-1.47s-7.61-6.91-12.13-9.08c-4.69-2.25-6.75-5.58-7.14-10.41,2.52-2.24,5.57-1.18,8.39-1.25,15.51-.36,30.87,1.52,46.22,3.35,4.23,2.84,9.09,2.34,13.81,2.61a1.77,1.77,0,0,0,1.06.18c1.82,2.31,4.32,2.77,7,2.56h0c6,2.6,10.74,8.16,18,7.93l-.25,0C379.3,160.92,383.1,162.69,386.24,165.25Z"/><path class="cls-5" d="M787.39,698.57c10.19-11.6,20.87-23.9,31.74-36,2.45-2.74,6.23-3.56,9.53-5,16.49-7.44,23.84-24.68,16.66-39-5.16-10.34-14.17-14.49-25.07-14.21-12.22.32-20.66,6.9-25.79,17.92-2.66,5.73-2.65,11.86-3.13,18-.15,2,.32,4.16-1.26,5.83-10.49,11.15-21.47,21.78-34.21,33.39,2.62-22.12,1.82-42.86,6.78-62.81,6.44-25.92,31.49-44,58.74-43.9,26.79.09,49.84,17.35,56.26,43.59,4.61,18.82,1.89,36.53-13.26,50.55q-15.46,14.31-31,28.56c-1.87,1.73-3.85,3.23-6.53,3.23C812.69,698.58,798.5,698.57,787.39,698.57Z"/><path class="cls-4" d="M313.08,690.57c-2.82-8.49-8.4-15-15.4-20.17-4.29-3.16-5.95-7-6.22-12-.29-5.62-.83-11.23-1.26-16.84,3.7-1.62,6.51.64,9.36,2.28,15.69,9,31.58,17.74,45,30.13a56.36,56.36,0,0,1,2.83,35.76c-7.8,32.32-34.91,52.92-64.3,51.92-9.72-.33-19.53.39-29.16-.68-22.42-2.5-38.13-15.15-48.92-34.48,10.43-3.66,20.12-8.92,29.92-13.92,6.65,7,12.77,14.28,22.76,17.28,3.51,1.06,6.5-.77,9.54.57,15.05,5.27,36-1.55,43.13-15.09C314.33,707.78,318.81,699.51,313.08,690.57Z"/><path class="cls-4" d="M748.75,728.94q33.57.28,67.14.59c.16,0,.32.25,1.09.89a43.61,43.61,0,0,1-20.67,20.2c-24.09,11.31-49.51,9.57-74,3.46-33.12-8.23-49.64-41.5-45.51-73.05,2.09-15.91,9.9-28.71,21.37-39.55,2.49.85,4.24-.63,6.22-1.79,7-4.14,14.25-7.66,22.33-9.17,1.51,9.39-1.28,18.49-1.9,27.73a16.75,16.75,0,0,1-7,13.08c-5.91,4.46-8.32,11-9.36,18.11-.19.75-.39,1.51-.58,2.27-3.22,24.84,14.7,37.27,34.25,39.44C744.22,731.39,747.64,733,748.75,728.94Z"/><path class="cls-2" d="M282.74,142c.39,4.83,2.45,8.16,7.14,10.41,4.52,2.17,7,7.4,12.13,9.08-12.21-.14-24.41-.42-36.62-.37-11.47,0-17.35,5-17.59,14.27-.27,9.9,6.63,16.81,17.63,17.35,15.81.78,31.65.15,47.45,1.39,8,.63,14.87,3.24,20.62,8.93,3.84,3.8,6.07,8.06,3.78,13.36-2.15,5-6.58,6.42-11.7,6.4q-33.24-.09-66.48-.07c-2.69,0-5.45-.29-8,.93l-22-3.62c-.37-2.58-2.44-2.53-4.31-2.8-20.64-18-19-44.08-7.86-62.09,2.11-3.41,5.39-5.23,8-7.95,9.41-2,18.12-6.79,28-6.91S273,137.56,282.74,142Z"/><path class="cls-6" d="M147,342.55c-6.95,2.76-10.9,9.17-16.43,13.66-5.75,4.69-10.91,10.11-16.32,15.21-5.47,5.71-13.06,9.75-14.63,18.55l-.25.39a6.11,6.11,0,0,0-3.73,6c-5.57,13.09-11.31,26.1-16.67,39.27-7,17.21-9.45,35.84-16.22,53.12C57.56,502,52.21,515.26,42.89,526.36c-5.46-35.19-4.09-69.81,7.65-103.8,12.78-37,35.95-65.7,68-87.6,6.15-4.21,12.78-7.71,19.21-11.49,3-1.79,4.7-1.47,5.36,2.62C144,331.65,145.65,337.07,147,342.55Z"/><path class="cls-4" d="M229.05,220.05l22,3.62c-8.66,15.17-20,28.46-30,42.67-5.6,8-11.25,15.86-17.09,23.62-9.84,13.07-4.39,27.57,3.87,34.87,10.43,9.2,25,9.38,36.06.45,1.06-.85,2.38-1.64,3-2.77,4.11-8,10.89-8.58,18.81-7.77,6.27.64,12.66.05,19,0,2.75,0,4.76.6,2.92,3.89-10.64,19-23.58,35.49-45.92,41.45-28.58,7.64-60.79-12.87-65.07-41.31-.65-12.25,1.53-23.92,8.43-34.2C199.58,263,214.37,241.54,229.05,220.05Z"/><path class="cls-2" d="M234.94,712.53c-9.8,5-19.49,10.26-29.92,13.92-11.13-23.51-29.14-41.7-46.4-60.55-11.42-12.47-15.86-27.71-14-44.6.36-3.31.47-6.81,3-9.5,5.31,1.38,10.14,4.73,16.08,3.5,3.91-.81,7.91-1.23,11.88-1.83-5.85,16.82-1.12,30.32,11,43.17C203.36,674.59,218.86,693.84,234.94,712.53Z"/><path class="cls-5" d="M196.33,575.47c19.28.06,33.41,9.95,45.1,24.07,8.38,10.12,14,21.65,15.27,35,1.85,19.1,3.65,38.19,4.19,58-7.33-7.89-14.2-16.27-22.12-23.51s-12.18-15.13-12.09-26.42c.11-13.64-5.06-25.65-17.51-33.34-8.42-5.2-17.17-4.77-26.16-2.1Z"/><path class="cls-5" d="M846.33,348.91c-14.7,16.81-42.5,21.59-65.12,11.27-19-8.66-30.44-24.36-39.72-42.15-1.54-2.94-.84-4,2.48-3.94,8.15.08,16.31.08,24.46-.16,3.9-.12,5.45,2.52,7.41,5,11.11,14,25.08,18.75,39.38,13,3.72-1.5,7.06-4,10.58-6C835,326.89,845.54,338.67,846.33,348.91Z"/><path class="cls-2" d="M791.86,295.32c-11.87-11-23.34-21.87-35-32.47-15.74-14.28-30.3-29.88-47.77-42.24-7.06-5-7.46-14.18-1.7-20.88s13.7-7.32,20.19-1.19c19.94,18.78,39.69,37.76,59.6,56.56a14.1,14.1,0,0,1,4.78,11.39C791.69,275.71,791.86,285,791.86,295.32Z"/><path class="cls-6" d="M491.51,78.76c-5.45,14.25-17.84,21.86-29.33,30.13-13.95,10-28.36,19.43-42.49,29.21-2.18,1.51-4.78,2.67-6,5.29-8.84-8.42-17.16-17.45-27.88-23.64-4.37-2.52-.81-3.89.81-5.2a139.65,139.65,0,0,1,48.29-25.68C453.33,83.36,472.1,79.18,491.51,78.76Z"/><path class="cls-2" d="M846.33,348.91c-.79-10.24-11.34-22-20.53-22.92,13.22-17.42,8.3-37.57-10-47.94-2.89-1.64-3.81-3.34-3.51-6.39,1.07-10.82,2-21.66,3.06-32.49.19-1.84.39-5.06,3.45-2.38,18.35,16.17,38.13,31.5,42.88,57.61C865.36,314.86,861.64,333.61,846.33,348.91Z"/><path class="cls-7" d="M470.86,783.23c3.77,1.17,3.05,4.76,3.61,7.36,7.84,36.44-5.59,65.65-31.31,90.47-19.51,18.83-44.23,26.88-69.89,32.29-22.15,4.67-44.73,6.51-67.27,8.24l-6,.19v-2.15c25.27-5,50.56-9.87,75.81-15,55.69-11.24,89.65-60.87,93.92-107.24C470.16,792.7,470.48,788,470.86,783.23Z"/><path class="cls-7" d="M196.33,575.47,183,607.1l-7.49,6.37c-4,.6-8,1-11.88,1.83-5.94,1.23-10.77-2.12-16.08-3.5,1.82-13.45,10-22.47,21.05-29.09C177,577.67,186.18,574.4,196.33,575.47Z"/><path class="cls-7" d="M282.74,142c-9.75-4.43-19.9-1.82-29.91-1.69s-18.59,4.91-28,6.91c.37-4,3.94-5.19,6.51-7,7.92-5.51,16.82-9.29,26.44-9.47,29.36-.55,58.67.3,87.35,7.76,7.61,2,13.68,7.29,21,9.85-2.07,1.81-4.6.62-6.88,1.08h0c-1.25-3.86-4.4-2.51-7-2.56a1.77,1.77,0,0,1-1.06-.18c-3.77-5.29-9.19-1.8-13.81-2.61-15.35-1.83-30.71-3.71-46.22-3.35C288.31,140.81,285.26,139.75,282.74,142Z"/><path class="cls-7" d="M779.7,144.24c-4.54,1.1-8-2.09-11.87-3.25-14.27-4.25-28.73-3-43-1.13-20.85,2.71-41.15,7.57-59,19.81-4.19,2.87-6.46,8.41-12.34,8.88,16.12-24.17,40.08-34,67.76-36.39,13.21-1.14,26.56-2.31,39.62,1.91A51.78,51.78,0,0,1,779.7,144.24Z"/><path class="cls-7" d="M344.57,673.93c-13.43-12.39-29.32-21.12-45-30.13-2.85-1.64-5.66-3.9-9.36-2.28-1.33-4.24-4.6-9.66-2-12.64,2.32-2.71,8.07.22,12.09,1.37C322.93,636.7,337.54,651.52,344.57,673.93Z"/><path class="cls-8" d="M796.11,949.55c-1,5.4-5.25,5.15-9.27,5.15q-47.6,0-95.19-.05-232.56,0-465.12-.07c-2.95,0-6.46,1.41-8.7-2.05,5,.27,9.92.76,14.88.76q273.36,0,546.7,0C785.29,953.25,791.14,953.48,796.11,949.55Z"/><path class="cls-7" d="M229.05,220.05c-14.68,21.49-29.47,42.91-44,64.52-6.9,10.28-9.08,21.95-8.43,34.2-4.51-15.1-1.21-29.25,6.35-42.31,12.14-20.95,27.48-39.73,41.75-59.21C226.61,217.52,228.68,217.47,229.05,220.05Z"/><path class="cls-9" d="M294.62,718.16c2.21-12.73.51-25.47-.84-39l18.89,12.42C311.57,705.5,305.07,715.06,294.62,718.16Z"/><path class="cls-7" d="M294.62,718.16c10.45-3.1,16.95-12.66,18.05-26.57a6.55,6.55,0,0,1,.42-1c5.72,9,1.24,17.22-2.72,24.73-7.16,13.54-28.08,20.36-43.13,15.09,9.36-1.25,18.24-3.66,25.43-10.25,1,.12,1.45-.41,1.54-1.35A1,1,0,0,1,294.62,718.16Z"/><path class="cls-7" d="M748.75,728.94c-1.11,4-4.53,2.45-6.72,2.21-19.55-2.17-37.47-14.6-34.25-39.45l.06-.12,2.4.17c-.55,10.72,3.5,18.43,11.67,22.2C728.11,723.86,738,727.18,748.75,728.94Z"/><path class="cls-2" d="M721.91,714c-8.17-3.77-12.22-11.48-11.67-22.2,4-5.86,5.14-6.85,12-10.25C720.54,692.74,721.12,703.35,721.91,714Z"/><path class="cls-7" d="M726.67,630.52c-8.08,1.51-15.35,5-22.33,9.17-2,1.16-3.73,2.64-6.22,1.79,7.24-7.2,15.93-12,25.47-15.42,1.54-.55,3.58-2,4.82-.15S727.69,629.12,726.67,630.52Z"/><path class="cls-8" d="M359.28,149.45c2.28-.46,4.81.73,6.88-1.08,4.15,2.46,8.82,4.28,11.12,9C370,157.61,365.3,152.05,359.28,149.45Z"/><path class="cls-8" d="M386.24,165.25c-3.14-2.56-6.94-4.33-9.21-7.91C381.67,158.16,383.6,162.11,386.24,165.25Z"/><path class="cls-9" d="M300,919.63v2.15h-5.25A6.2,6.2,0,0,1,300,919.63Z"/><path class="cls-9" d="M294.21,718.78c-.09.94-.53,1.47-1.54,1.35C292.67,719.09,292.91,718.32,294.21,718.78Z"/><path class="cls-9" d="M707.84,691.58l-.06.12.58-2.26C708.19,690.16,708,690.87,707.84,691.58Z"/><path class="cls-6" d="M506.37,303.17c65.45.34,120.13,25.19,161.51,75.72,33.54,41,42.07,88,24,138.5-10.37,29.08-30.47,51.23-54.54,69.63C606.14,610.9,570,622.77,531.25,626.78c-53.23,5.51-102.91-5.68-147.72-35-38.56-25.19-65.35-59.16-71-106.55-3.59-29.83.91-58.46,16.69-84.38,34.76-57.1,86.8-87.43,152.12-96.64a78.91,78.91,0,0,1,8.76-1C495.49,303.06,500.93,303.17,506.37,303.17ZM395.14,485.46c25.77.22,47.72-21.26,48.21-47.17.51-26.71-21.49-49.21-48.23-49.32s-47.9,21.31-48.12,48.48S367.38,485.22,395.14,485.46Zm176.05-48.59c-.13,26.79,20.87,48.33,47.29,48.49,26.75.17,48.26-20.57,48.34-46.58.07-27.32-21.33-49.47-48-49.68C591.87,388.89,571.34,409.48,571.19,436.87Zm-64.41,13.51v0c-7.92,0-15.84-.11-23.76,0-10.32.17-15.48,5.24-15.25,15.58.33,14.3,5.83,26.53,16.93,35.62,9.33,7.65,20.1,9.85,31.86,5.9,16.09-5.39,28.84-23.42,29.05-41.3.12-10.3-4.77-15.57-15.06-15.83C522.63,450.22,514.7,450.38,506.78,450.38Zm-142.2,44.37c-6.52.11-11.67.09-16.61,2.21-4.51,1.93-8.94,3.88-9.07,9.63-.14,6.12,4.53,8.61,9.24,10.26,11.49,4,23.11,3.47,34.44-.66,3.84-1.4,7.16-3.86,6.87-8.94-.27-4.74-3.12-7.52-7.06-9C376.27,495.93,370,494.14,364.58,494.75Zm283.06,24.59c7.4.12,14.07-1,20.26-4.07,3.3-1.65,6.39-4,6.31-8.14-.08-4-2.7-6.78-6.13-8.33-12.85-5.82-25.78-6-38.6.17-3.47,1.68-6,4.44-5.93,8.4.12,4.24,3,7.1,6.72,8.63A42.1,42.1,0,0,0,647.64,519.34Z"/><path class="cls-7" d="M512.32,85.67c2.39.29,2.34,2.49,3,4,4.6,9.81,8.18,20.08,14.78,28.94,7.69,10.32,17.61,17.42,29.35,22.28a48.76,48.76,0,0,1,5,2.21c1.49.82,3.94,1,3.79,3.29-.14,2.09-2.37,2.51-4,3.16-13.23,5.22-25.42,11.83-34.1,23.68-5.84,8-9.64,16.84-13.06,26-1,2.65-1.43,6.76-4.44,7-3.68.26-3.36-4.17-4.22-6.69A101.47,101.47,0,0,0,493.62,171c-8.11-10.79-20.62-15-32.45-19.93-2.1-.88-4.81-.95-5-3.68s2.58-2.89,4.31-3.62c15.77-6.67,29.53-15.76,38.45-30.94a122.86,122.86,0,0,0,10.48-22.77C510,88.38,510.41,86.51,512.32,85.67Z"/><path class="cls-7" d="M233.78,466.89c-1.1,2.39-3.12,2.9-5,3.67-12.4,5-23.42,11.88-30.81,23.45-4.66,7.29-7.63,15.33-10.27,23.52-.53,1.64-.62,4.14-2.84,4.07s-2-2.58-2.58-4.22c-7.27-22.13-19.85-39.45-42.73-47.61-1.71-.61-4.52-.93-4.26-3.58.23-2.28,2.7-2.89,4.53-3.63,12.78-5.15,24.46-11.63,32.4-23.56,4.46-6.69,6.68-14.3,10-21.44.65-1.4.69-3.61,2.51-3.62,2.24,0,2.4,2.37,2.92,4a102.16,102.16,0,0,0,9.75,21.56c6.79,11.39,17.21,18.29,29.42,22.86C229.43,463.35,232.43,464.06,233.78,466.89Z"/><path class="cls-7" d="M867.33,511.26c-1.82-.28-2.09-1.74-2.58-3-1.43-3.55-2.74-7.16-4.19-10.7-6.68-16.32-18.86-26.66-35.28-32.36-1.45-.5-3.63-.36-3.76-2.27-.15-2.17,2-2.76,3.69-3.38,19.76-7.09,32.12-21.08,38.15-41a14,14,0,0,1,1-2.5c.8-1.52.82-4,3.1-3.93s2.51,2.3,3.1,4c3.3,9.39,7.25,18.36,13.32,26.48,6.5,8.69,16,12.23,25.07,16.62,1.82.87,4.51,1.33,4.47,3.55,0,2.44-3,2.32-4.79,2.94-19.64,6.9-31.8,20.73-37.77,40.39C870.27,508.26,870,510.7,867.33,511.26Z"/><path class="cls-7" d="M112.6,378.94c11.56-2.83,22.66,2.24,27,12.35,3.77,8.76.47,19.44-7.75,25a21.27,21.27,0,0,1-27.8-2.94,20.67,20.67,0,0,1-5.71-16.78c1.51-1.88.92-4.12,1-6.24l.25-.39C104.25,386.66,107.39,381.59,112.6,378.94Z"/><path class="cls-8" d="M112.6,378.94c-5.21,2.65-8.35,7.72-13,11,1.57-8.8,9.16-12.84,14.63-18.55Z"/><path class="cls-8" d="M99.37,390.36c-.11,2.12.48,4.36-1,6.24l-2.7-.2A6.12,6.12,0,0,1,99.37,390.36Z"/><path class="cls-8" d="M337.35,144.09c4.62.81,10-2.68,13.81,2.61C346.44,146.43,341.58,146.93,337.35,144.09Z"/><path class="cls-8" d="M352.22,146.88c2.65.05,5.8-1.3,7,2.56C356.54,149.65,354,149.19,352.22,146.88Z"/><path class="cls-1" d="M395.14,485.46c-27.76-.24-48.35-20.78-48.14-48s21.48-48.6,48.12-48.48,48.74,22.61,48.23,49.32C442.86,464.2,420.91,485.68,395.14,485.46ZM400,424c.08-8.4-7.16-15.79-15.48-15.78a15.58,15.58,0,0,0-15.29,15.19c-.24,8.62,6.13,15.69,14.22,15.8C392.75,439.36,399.89,432.8,400,424Z"/><path class="cls-1" d="M571.19,436.87c.15-27.39,20.68-48,47.62-47.77,26.68.21,48.08,22.36,48,49.68-.08,26-21.59,46.75-48.34,46.58C592.06,485.2,571.06,463.66,571.19,436.87Zm51.36-12.63c.21-8.95-6.57-15.73-15.77-15.77a15.12,15.12,0,0,0-15,15.11c-.1,8.68,6,15.34,14.29,15.67C615.39,439.63,622.33,433.29,622.55,424.24Z"/><path class="cls-1" d="M506.78,450.38c7.92,0,15.85-.16,23.77,0,10.29.26,15.18,5.53,15.06,15.83-.21,17.88-13,35.91-29.05,41.3-11.76,3.95-22.53,1.75-31.86-5.9-11.1-9.09-16.6-21.32-16.93-35.62-.23-10.34,4.93-15.41,15.25-15.58,7.92-.14,15.84,0,23.76,0Z"/><path class="cls-9" d="M364.58,494.75c5.37-.61,11.69,1.18,17.81,3.49,3.94,1.49,6.79,4.27,7.06,9,.29,5.08-3,7.54-6.87,8.94-11.33,4.13-22.95,4.7-34.44.66-4.71-1.65-9.38-4.14-9.24-10.26.13-5.75,4.56-7.7,9.07-9.63C352.91,494.84,358.06,494.86,364.58,494.75Z"/><path class="cls-9" d="M647.64,519.34A42.1,42.1,0,0,1,630.27,516c-3.77-1.53-6.6-4.39-6.72-8.63-.11-4,2.46-6.72,5.93-8.4,12.82-6.21,25.75-6,38.6-.17,3.43,1.55,6,4.36,6.13,8.33.08,4.12-3,6.49-6.31,8.14C661.71,518.34,655,519.46,647.64,519.34Z"/><path class="cls-7" d="M400,424c-.1,8.77-7.24,15.33-16.55,15.21-8.09-.11-14.46-7.18-14.22-15.8a15.58,15.58,0,0,1,15.29-15.19C392.83,408.24,400.07,415.63,400,424Z"/><path class="cls-7" d="M622.55,424.24c-.22,9.05-7.16,15.39-16.44,15-8.32-.33-14.39-7-14.29-15.67a15.12,15.12,0,0,1,15-15.11C616,408.51,622.76,415.29,622.55,424.24Z"/><path class="cls-2" d="M899.7,173c-3-.67-4.5-3-5.26-5.84-4.09-15-13.16-25.23-28.17-30-2.89-.93-6-2.25-5.85-6.27s3.32-5.13,6.18-6.1c14.5-4.91,23.82-14.53,27.59-29.44.72-2.86,2.06-5.63,5.2-6,3.67-.45,4.6,2.93,5.35,5.5,4.4,15.11,13.53,25.72,28.49,31.16,2.29.84,4.94,1.91,4.86,5.14-.08,3.08-2.34,4.2-4.85,5.12-14.46,5.27-24.37,14.73-28,30.13C904.55,169.16,904.06,172.69,899.7,173Z"/><path class="cls-2" d="M58.29,230.64c2.42-.53,3.6-2.42,4.22-4.67,3.27-12,10.53-20.2,22.55-24.05,2.31-.75,4.81-1.81,4.68-5s-2.66-4.1-4.95-4.88c-11.61-3.93-19.07-11.64-22.09-23.57-.58-2.29-1.64-4.51-4.16-4.82-2.94-.36-3.68,2.35-4.28,4.4-3.52,12.1-10.84,20.59-22.81,24.95-1.84.67-4,1.53-3.9,4.12s1.88,3.36,3.89,4.09C43,205.41,51,213,53.87,225.31,54.41,227.59,54.8,230.42,58.29,230.64Z"/><path class="cls-3" d="M80.62,255.59c.5,2.09,2.4,2.66,4,3.35,7.64,3.34,13.2,8.58,16.05,16.55.86,2.42,2.22,4.51,5.17,4.74s3.67-2.41,4.5-4.32c3.33-7.64,8.56-13.23,16.38-16.31,1.69-.67,3.55-1.37,3.81-3.47.34-2.68-2-3.36-3.8-4.09-8.35-3.38-13.63-9.43-16.19-18-.69-2.31-1.92-4.11-4.63-4.28s-4.19,1.53-4.9,3.84c-2.77,9.1-9.11,14.82-17.37,18.91C80.37,254.12,80.48,254.33,80.62,255.59Z"/><path class="cls-2" d="M131.7,173c3-.67,4.5-3,5.27-5.84,4.09-15,13.16-25.23,28.16-30,2.9-.93,6-2.25,5.85-6.27s-3.31-5.13-6.18-6.1c-14.5-4.91-23.81-14.53-27.58-29.44-.73-2.86-2.06-5.63-5.21-6-3.66-.45-4.59,2.93-5.34,5.5-4.4,15.11-13.54,25.72-28.49,31.16-2.3.84-5,1.91-4.86,5.14.08,3.08,2.34,4.2,4.85,5.12,14.45,5.27,24.36,14.73,28,30.13C126.86,169.16,127.34,172.69,131.7,173Z"/><path class="cls-2" d="M990.72,739.15c3.84.3,5-1.53,5.51-3.49,2.8-10.47,9.4-17.13,19.54-20.74,2.29-.82,5.47-1.95,5.18-5.49-.26-3.1-3.14-3.83-5.36-4.5-10.38-3.11-15.71-10.59-18.75-20.43-.8-2.6-1.16-6.26-5.22-6.09-3.65.15-3.74,3.68-4.56,6-3.61,10.12-9.52,17.86-20.13,21.31-2,.64-3.78,1.79-3.95,4.17-.18,2.61,2,3.45,3.81,4.14,10.55,4,18.07,10.79,21.36,21.84C988.67,737.64,989.85,739.07,990.72,739.15Z"/><path class="cls-3" d="M880.71,756.14c.13,2.07,1.52,2.94,3.31,3.68,10,4.19,17.29,10.9,21.34,21.27,1.94,5,7.63,5.12,9.67.26,4.08-9.73,10.51-16.61,20.14-20.91,4.05-1.81,4.18-4.84-.24-6.65-9.82-4-16.09-11.08-20.14-20.81-2.24-5.39-7.74-5.42-10.11-.19-4.33,9.52-10.57,16.74-20.65,20.3C882.64,753.58,880.91,754.08,880.71,756.14Z"/></svg>
