<svg id="Layer_1" data-name="Layer 1" xmlns="http://www.w3.org/2000/svg" xmlns:xlink="http://www.w3.org/1999/xlink" viewBox="0 0 997.96 908.07"><defs><style>.cls-1{fill:#002040;}.cls-2{fill:url(#linear-gradient);}.cls-3{fill:url(#linear-gradient-2);}.cls-4{fill:url(#linear-gradient-3);}.cls-5{fill:url(#linear-gradient-4);}.cls-6{fill:url(#linear-gradient-5);}.cls-7{fill:url(#linear-gradient-6);}.cls-8{fill:url(#linear-gradient-7);}.cls-9{fill:#0c9d4f;}.cls-10{fill:#ac6346;}.cls-11{fill:#6aff87;}.cls-12{fill:#ac7b58;}.cls-13{fill:#2977fb;}.cls-14{fill:#ffffe9;}.cls-15{fill:#ff7bac;}.cls-16{fill:#e7d3fd;}.cls-17{fill:#fbb03b;}.cls-18{fill:#f7931e;}</style><linearGradient id="linear-gradient" x1="676.13" y1="691.95" x2="816.98" y2="691.95" gradientUnits="userSpaceOnUse"><stop offset="0" stop-color="#93a5cf"/><stop offset="1" stop-color="#e4efe9"/></linearGradient><linearGradient id="linear-gradient-2" x1="755.86" y1="635.6" x2="879.68" y2="635.6" xlink:href="#linear-gradient"/><linearGradient id="linear-gradient-3" x1="144.19" y1="668.46" x2="349.07" y2="668.46" xlink:href="#linear-gradient"/><linearGradient id="linear-gradient-4" x1="175.62" y1="246.46" x2="405.11" y2="246.46" xlink:href="#linear-gradient"/><linearGradient id="linear-gradient-5" x1="740.71" y1="300.68" x2="862.98" y2="300.68" xlink:href="#linear-gradient"/><linearGradient id="linear-gradient-6" x1="703.37" y1="244.82" x2="791.94" y2="244.82" xlink:href="#linear-gradient"/><linearGradient id="linear-gradient-7" x1="639.38" y1="207.43" x2="802.75" y2="207.43" xlink:href="#linear-gradient"/></defs><path class="cls-1" d="M312.61,689.22h0l-.14-.18a6.08,6.08,0,0,0-.53,1.05c0,.32-.07.64-.11,1l.84.55a6.55,6.55,0,0,1,.42-1C312.94,690.1,312.78,689.66,312.61,689.22Zm395.23,2.36,2.4.17h0Z" transform="translate(-5.61 -45.22)"/><path class="cls-2" d="M817,730.42a43.61,43.61,0,0,1-20.67,20.2c-24.09,11.31-49.51,9.57-74,3.46-33.12-8.23-49.64-41.5-45.51-73.05,2.09-15.91,9.9-28.71,21.37-39.55,7.24-7.2,15.93-12,25.47-15.42,1.54-.55,3.58-2,4.82-.15s-.72,3.21-1.74,4.61c1.51,9.39-1.28,18.49-1.9,27.73a16.75,16.75,0,0,1-7,13.08c-5.91,4.46-8.32,11-9.36,18.11h0l-.58,2.23v0c-3.21,23.14,14.7,34.71,34.25,36.73,1.45.15,3.44.84,4.94.2h0l1.77.31q33.57.28,67.14.59C816.05,729.53,816.21,729.78,817,730.42Z" transform="translate(-5.61 -45.22)"/><path class="cls-3" d="M864.38,666.77q-15.46,14.31-31,28.56c-1.87,1.73-3.85,3.23-6.53,3.23-14.2,0-28.39,0-39.5,0,10.19-11.6,20.87-23.9,31.74-36,2.45-2.74,6.23-3.56,9.53-5,16.49-7.44,23.84-24.68,16.66-39-5.16-10.34-14.17-14.49-25.07-14.21-12.22.32-20.66,6.9-25.79,17.92-2.66,5.73-2.65,11.86-3.13,18-.15,2,.32,4.16-1.26,5.83-10.49,11.15-21.47,21.78-34.21,33.39,2.62-22.12,1.82-42.86,6.78-62.81,6.44-25.92,31.49-44,58.74-43.9,26.79.09,49.84,17.35,56.26,43.59C882.25,635,879.53,652.75,864.38,666.77Z" transform="translate(-5.61 -45.22)"/><path class="cls-4" d="M347.4,709.69c-7.8,32.32-34.91,52.92-64.3,51.92-9.72-.33-19.53.39-29.16-.68-22.42-2.5-38.13-15.15-48.92-34.48-11.13-23.51-29.14-41.7-46.4-60.55-11.42-12.47-15.86-27.71-14-44.6.36-3.31.47-6.81,3-9.5,1.82-13.45,10-22.47,21.05-29.09,8.41-5,17.57-8.31,27.72-7.24,19.28.06,33.41,9.95,45.1,24.07,8.38,10.12,14,21.65,15.27,35,1.85,19.1,3.65,38.19,4.19,58-7.33-7.89-14.2-16.27-22.12-23.51s-12.18-15.13-12.09-26.42c.11-13.64-5.06-25.65-17.51-33.34-8.42-5.2-17.17-4.77-26.16-2.09l-7.49,6.36c-5.85,16.82-1.12,30.32,11,43.17,16.87,18,32.37,37.2,48.45,55.89,6.38,6.67,12.28,13.7,21.58,16.9l-1.73.2c18.93,5.37,45.25-1.58,54.26-15.39,4.95-7.6,10.54-16,3.56-25h0c-2.95-7.83-8.31-13.92-14.93-18.81-4.29-3.16-5.95-7-6.22-12-.29-5.62-.83-11.23-1.26-16.84-1.33-4.24-4.6-9.66-2-12.64,2.32-2.71,8.07.22,12.09,1.37,22.68,6.45,37.29,21.27,44.32,43.68A56.36,56.36,0,0,1,347.4,709.69Z" transform="translate(-5.61 -45.22)"/><path class="cls-5" d="M399.24,242.53c-6.65,17.84-20.17,30.34-38.26,37.24a55,55,0,0,1-17.88,3.69c-5.43.18-10.87.22-16.3.23q-38.7,0-77.41,0l-1-2.13c6.77-8.77,13.45-17.6,20.37-26.23,1.54-1.92,4.28-1.05,6.49-1,17.67.09,35.33.3,53,.36,11.71,0,22.37-3.26,31.38-10.94,17.48-14.91,18.58-42.65,2.27-60.25C350,170.59,335.09,163.78,317.49,163c-5.18-.24-10.44.26-15.48-1.47-12.21-.14-24.41-.42-36.62-.37-11.47,0-17.35,5-17.59,14.27-.27,9.9,6.63,16.81,17.63,17.35,15.81.78,31.65.15,47.45,1.39,8,.63,14.87,3.24,20.62,8.93,3.84,3.8,6.07,8.06,3.78,13.36-2.15,5-6.58,6.42-11.7,6.4q-33.24-.09-66.48-.07c-2.69,0-5.45-.29-8,.93-8.66,15.17-20,28.46-30,42.67-5.6,8-11.25,15.86-17.09,23.62-9.84,13.07-4.39,27.57,3.87,34.87,10.43,9.2,25,9.38,36.06.45,1.06-.85,2.38-1.64,3-2.77,4.11-8,10.89-8.58,18.81-7.77,6.27.64,12.66.05,19,0,2.75,0,4.76.6,2.92,3.89-10.64,19-23.58,35.49-45.92,41.45-28.58,7.64-60.79-12.87-65.07-41.31q-.62-2-1-4V295.13A62.42,62.42,0,0,1,183,276.46c12.14-20.95,27.48-39.73,41.75-59.21-20.64-18-19-44.08-7.86-62.09,2.11-3.41,5.39-5.23,8-7.95.36-4,3.93-5.19,6.5-7a51.14,51.14,0,0,1,21-9h43.18a251.17,251.17,0,0,1,49.56,7.28c7.61,2,13.68,7.29,21,9.85,4.15,2.46,8.82,4.28,11.12,9l-.25,0c4.64.82,6.57,4.77,9.21,7.91,9.38,10,13.9,21.84,17.21,35.2C407.18,215.56,404.14,229.37,399.24,242.53Z" transform="translate(-5.61 -45.22)"/><path class="cls-6" d="M846.33,348.91c-14.7,16.81-42.5,21.59-65.12,11.27-19-8.66-30.44-24.36-39.72-42.15-1.54-2.94-.84-4,2.48-3.94,8.15.08,16.31.08,24.46-.16,3.9-.12,5.45,2.52,7.41,5,11.11,14,25.08,18.75,39.38,13,3.72-1.5,7.06-4,10.58-6,13.22-17.42,8.3-37.57-10-47.94-2.89-1.64-3.81-3.34-3.51-6.39,1.07-10.82,2-21.66,3.06-32.49.19-1.84.39-5.06,3.45-2.38,18.35,16.17,38.13,31.5,42.88,57.61C865.36,314.86,861.64,333.61,846.33,348.91Z" transform="translate(-5.61 -45.22)"/><path class="cls-7" d="M791.86,295.32c-11.87-11-23.34-21.87-35-32.47-15.74-14.28-30.3-29.88-47.77-42.24-7.06-5-7.46-14.18-1.7-20.88s13.7-7.32,20.19-1.19c19.94,18.78,39.69,37.76,59.6,56.56a14.1,14.1,0,0,1,4.78,11.39C791.69,275.71,791.86,285,791.86,295.32Z" transform="translate(-5.61 -45.22)"/><path class="cls-8" d="M802,197.55c-1.11,5.75-3.11,11.34-4.89,16.94-1.15,3.64-3.32,3.89-6,1.31-6.9-6.55-13.76-13.14-20.78-19.54-2.47-2.26-2.81-4.94-2.94-8-.68-15.91-9.16-26-24.51-27.34-14.48-1.3-29.09-.88-42.82,4.83-32.9,13.68-41.26,56.68-14.59,79a31.44,31.44,0,0,0,9.17,5.71c16.08,5.92,24.59,20.61,36.86,31.16-19.76,2.67-39.77,4.74-56.87-6-20.86-13.09-33.53-32.66-35-58.12-1-17.92,3.47-34.32,14-49,16.11-24.17,40.07-34,67.75-36.39,13.21-1.14,26.56-2.31,39.62,1.91a51.78,51.78,0,0,1,18.78,10.17C795.48,153.76,805.74,178,802,197.55Z" transform="translate(-5.61 -45.22)"/><path class="cls-9" d="M241.91,451.51l-23.83-13a16.15,16.15,0,0,1-6.4-6.4l-13-23.83a16.1,16.1,0,0,0-28.25,0l-13,23.83a16.15,16.15,0,0,1-6.4,6.4l-23.83,13a16.1,16.1,0,0,0,0,28.25l23.83,13a16.15,16.15,0,0,1,6.4,6.4l13,23.83a16.1,16.1,0,0,0,28.25,0l13-23.83a16.15,16.15,0,0,1,6.4-6.4l23.83-13A16.1,16.1,0,0,0,241.91,451.51Zm-13.13,19.05c-12.4,5-23.42,11.88-30.81,23.45-4.66,7.29-7.63,15.33-10.27,23.52-.53,1.64-.62,4.14-2.84,4.07s-2-2.58-2.58-4.22c-7.27-22.13-19.85-39.45-42.73-47.61-1.71-.61-4.52-.93-4.26-3.58.23-2.28,2.7-2.89,4.53-3.63,12.78-5.15,24.46-11.63,32.4-23.56,4.46-6.69,6.68-14.3,10-21.44.65-1.4.69-3.61,2.51-3.62,2.24,0,2.4,2.37,2.92,4a102.16,102.16,0,0,0,9.75,21.56c6.79,11.39,17.21,18.29,29.42,22.86,2.6,1,5.6,1.68,6.95,4.51C232.68,469.28,230.66,469.79,228.78,470.56ZM569.57,131.82l-23.82-13a16.09,16.09,0,0,1-6.4-6.4l-13-23.83a16.1,16.1,0,0,0-28.25,0l-13,23.83a16.15,16.15,0,0,1-6.4,6.4l-23.83,13a16.1,16.1,0,0,0,0,28.25l23.83,13a16.15,16.15,0,0,1,6.4,6.4l13,23.82a16.1,16.1,0,0,0,28.25,0l13-23.82a16.09,16.09,0,0,1,6.4-6.4l23.82-13A16.1,16.1,0,0,0,569.57,131.82Zm-5.34,17.75c-13.23,5.22-25.42,11.83-34.1,23.68-5.84,8-9.64,16.84-13.06,26-1,2.65-1.43,6.76-4.44,7-3.68.26-3.36-4.17-4.22-6.69A101.47,101.47,0,0,0,493.62,171c-8.11-10.79-20.62-15-32.45-19.93-2.1-.88-4.81-.95-5-3.68s2.58-2.89,4.31-3.62c15.77-6.67,29.53-15.76,38.45-30.94a122.86,122.86,0,0,0,10.48-22.77c.57-1.67,1-3.54,2.92-4.38,2.4.29,2.35,2.49,3.06,4,4.6,9.81,8.18,20.08,14.78,28.94,7.69,10.32,17.61,17.42,29.35,22.28a48.76,48.76,0,0,1,5,2.21c1.49.82,3.94,1,3.79,3.29C568.1,148.5,565.87,148.92,564.23,149.57Zm356.13,298-23.83-13a16.09,16.09,0,0,1-6.4-6.4l-13-23.82a16.1,16.1,0,0,0-28.25,0l-13,23.82a16.09,16.09,0,0,1-6.4,6.4l-23.82,13a16.1,16.1,0,0,0,0,28.25l23.82,13a16.15,16.15,0,0,1,6.4,6.4l13,23.83a16.1,16.1,0,0,0,28.25,0l13-23.83a16.15,16.15,0,0,1,6.4-6.4l23.83-13A16.1,16.1,0,0,0,920.36,447.6Zm-11.69,18.18c-19.64,6.9-31.8,20.73-37.77,40.39-.63,2.09-.9,4.53-3.57,5.09-1.82-.28-2.09-1.74-2.58-3-1.43-3.55-2.74-7.16-4.19-10.7-6.68-16.32-18.86-26.66-35.28-32.36-1.45-.5-3.63-.36-3.76-2.27-.15-2.17,2-2.76,3.69-3.38,19.76-7.09,32.12-21.08,38.15-41a14,14,0,0,1,1-2.5c.8-1.52.82-4,3.1-3.93s2.51,2.3,3.1,4c3.3,9.39,7.25,18.36,13.32,26.48,6.5,8.69,16,12.23,25.07,16.62,1.82.87,4.51,1.33,4.47,3.55C913.42,465.28,910.45,465.16,908.67,465.78Z" transform="translate(-5.61 -45.22)"/><path class="cls-10" d="M687.66,918.23c-.24,2-2.5,1.36-3.94,1.74-6.1,1.62-12.15-.38-18.25-.25-72.93,1.47-145.86.84-218.79,1-43.27.13-86.55-.56-129.81,1-3.61.14-7.23-.13-10.86-.22,22.54-1.73,45.11-3.57,67.26-8.24,25.66-5.41,50.38-13.46,69.89-32.29,25.72-24.82,39.15-54,31.31-90.47-.56-2.6.16-6.19-3.61-7.36a134.66,134.66,0,0,0-14-50,372.39,372.39,0,0,0,99,1.33c-3.14,9.35-6.58,17.66-8.74,26.3-9.58,38.3-.5,72.41,23.37,103.35,22.81,29.58,53.67,43.31,89.81,47.41,8.06.92,16.14,2,23.92,4.48C685.59,916.51,687.93,915.93,687.66,918.23Z" transform="translate(-5.61 -45.22)"/><path class="cls-11" d="M147,342.55c-6.95,2.76-10.9,9.17-16.43,13.66-5.75,4.69-10.91,10.11-16.32,15.21-5.47,5.71-13.06,9.75-14.63,18.55l-.25.39a6.12,6.12,0,0,0-3.73,6C90.07,409.49,84.33,422.49,79,435.66c-7,17.21-9.45,35.84-16.22,53.12C57.56,502,52.21,515.26,42.89,526.36c-5.46-35.19-4.09-69.81,7.65-103.8,12.78-37,35.95-65.7,68-87.6,6.15-4.21,12.78-7.71,19.21-11.49,3-1.79,4.7-1.47,5.36,2.62C144,331.65,145.65,337.07,147,342.55Z" transform="translate(-5.61 -45.22)"/><path class="cls-11" d="M491.51,78.76c-5.45,14.25-17.84,21.86-29.33,30.13-13.95,10-28.36,19.43-42.49,29.21-2.18,1.51-4.78,2.67-6,5.29l-3.3-3.18-1.64-1.6L407.08,137c-1.14-1.11-2.28-2.22-3.44-3.31l-1.41-1.32q-1.56-1.45-3.18-2.88c-.54-.47-1.09-.95-1.64-1.41s-1-.88-1.56-1.29-.85-.71-1.28-1c-.25-.21-.51-.41-.76-.6s-.51-.4-.77-.59-.51-.39-.77-.57c-.44-.33-.89-.65-1.34-1,0,0,0,0,0,0-.4-.29-.8-.57-1.21-.84s-.79-.53-1.19-.78a.37.37,0,0,0-.12-.07,1.43,1.43,0,0,0-.22-.15s0,0,0,0c-.26-.17-.51-.33-.77-.48q-.78-.49-1.59-1c-4.37-2.52-.81-3.89.81-5.2a139.65,139.65,0,0,1,48.29-25.68C453.33,83.36,472.1,79.18,491.51,78.76Z" transform="translate(-5.61 -45.22)"/><path class="cls-12" d="M443.16,881.06c-19.51,18.83-44.23,26.88-69.89,32.29-22.15,4.67-44.72,6.51-67.26,8.24h0l-6,.19v-2.15c25.27-5,50.56-9.87,75.81-15,55.69-11.24,89.65-60.87,93.92-107.24.44-4.72.76-9.46,1.14-14.19,3.77,1.17,3.05,4.76,3.61,7.36C482.31,827,468.88,856.24,443.16,881.06Z" transform="translate(-5.61 -45.22)"/><path class="cls-1" d="M984.22,396.8c-17.31-39.36-43.83-71.16-80.27-94.33-4.68-3-7.4-6.43-8.39-12.08a101,101,0,0,0-30-56.61Q852.31,221,839.2,208.21c-2.1-2.05-3.8-4-3.36-7.59,2-16.21.62-32.23-6.24-47.16C815.75,123.3,793.45,103,759.58,99a186.9,186.9,0,0,0-81,8.39c-4.05,1.34-6.67.78-9.67-1.92-6.07-5.45-12.17-10.9-18.65-15.83C614.45,62.39,573.51,48.83,529,46,463.25,41.71,402.81,55.23,352.58,101c-2.72,2.48-5.22,3.2-9.09,2.44-28.1-5.52-56.52-8.66-85.14-7a88.44,88.44,0,0,0-65.61,34.77l-.15.2a88.57,88.57,0,0,0-12.7,84.28c1.64,4.53.8,7.48-2,11-12.31,15.66-25.41,31-32.22,50-2.59,7.24-7,10.7-13.51,13.71-53.14,24.82-91.86,64-111.41,119.41C-8,491.44,3.86,567.22,58.92,634.93c20.42,25.12,46.06,44.12,74.7,59a61.94,61.94,0,0,1,13.47,10c11.67,10.8,19.77,23.77,27.1,37.78,13.63,26,33.71,45.62,62.57,54.11,18.71,5.51,38.27,5.34,57.17,2.06,43.72-7.58,74.21-31.29,85.88-75.72.63-2.4,1.26-3.72,3.92-3.13,9,2,17.59,5.62,26.79,6.92,1.54.22,3.24,1.74,4.22,3.11,18.3,25.68,28.52,53.15,18.33,85-8.72,27.24-26.14,46.76-52.65,57.43-16.81,6.76-35,8-52.74,11.05-31.87,5.58-63.65,11.38-92.1,28.14-3.05,1.79-6.42,1.89-9.86,1.89-27.88,0-55.76.13-83.64.17-7.14,0-13.46,1.4-16.39,9-2.55,6.66-2.42,12.88,3,18.24,4.22,3.34,9.26,3.17,14.19,3.19,18.26.07,36.54.58,54.77-.15,8.94-.36,15.55,1.84,20.21,9.44,5,.27,9.92.76,14.88.76q273.36,0,546.7,0c5.88,0,11.73.23,16.7-3.7,2.33-4.77,6.11-6.26,11.38-6.16,14,.26,28,.07,42-.07,5.4-.06,10.95,0,14.94-4.68,4.34-5.82,5-12,1.51-18.43s-9.49-7.62-16.2-7.58c-21.08.13-42.16.07-63.24.07-2.94,0-5.82,0-8.56-1.55-31.87-17.78-67.14-24-102.47-29.93-14.29-2.39-29.31-3.05-42.38-9-51.63-23.61-76-86.44-36.13-139.3,2.19-2.91,3.71-6,7.75-6.81a250.15,250.15,0,0,0,33.39-9.14c5-1.78,6.51-.13,8.29,4.69,12.82,34.62,35.19,59.8,71.7,70.42,14.14,4.12,28.68,3.91,43.19,3.68,46-.75,83.64-29.84,96-74.1.73-2.6,1.08-5.48,3.36-7.26,15-11.7,27.66-26,43.52-36.85C994.73,615.83,1028.49,497.4,984.22,396.8ZM815.22,332c3.72-1.5,7.06-4,10.58-6,13.22-17.42,8.3-37.57-10-47.94-2.89-1.64-3.81-3.34-3.51-6.39,1.07-10.82,2-21.66,3.06-32.49.19-1.84.39-5.06,3.45-2.38,18.35,16.17,38.13,31.5,42.88,57.61,3.72,20.46,0,39.21-15.31,54.51-14.7,16.81-42.5,21.59-65.12,11.27-19-8.66-30.44-24.36-39.72-42.15-1.54-2.94-.84-4,2.48-3.94,8.15.08,16.31.08,24.46-.16,3.9-.12,5.45,2.52,7.41,5C787,333,800.92,337.69,815.22,332Zm-23.36-36.64c-11.87-11-23.34-21.87-35-32.47-15.74-14.28-30.3-29.88-47.77-42.24-7.06-5-7.46-14.18-1.7-20.88s13.7-7.32,20.19-1.19c19.94,18.78,39.69,37.76,59.6,56.56a14.1,14.1,0,0,1,4.78,11.39C791.69,275.71,791.86,285,791.86,295.32ZM653.55,168.55c16.11-24.17,40.07-34,67.75-36.39,13.21-1.14,26.56-2.31,39.62,1.91a51.78,51.78,0,0,1,18.78,10.17c15.78,9.52,26,33.71,22.26,53.31-1.11,5.75-3.11,11.34-4.89,16.94-1.15,3.64-3.32,3.89-6,1.31-6.9-6.55-13.76-13.14-20.78-19.54-2.47-2.26-2.81-4.94-2.94-8-.68-15.91-9.16-26-24.51-27.34-14.48-1.3-29.09-.88-42.82,4.83-32.9,13.68-41.26,56.68-14.59,79a31.44,31.44,0,0,0,9.17,5.71c16.08,5.92,24.59,20.61,36.86,31.16-19.76,2.67-39.77,4.74-56.87-6-20.86-13.09-33.53-32.66-35-58.12C638.48,199.59,643,183.19,653.55,168.55ZM175.62,295.13A62.42,62.42,0,0,1,183,276.46c12.14-20.95,27.48-39.73,41.75-59.21-20.64-18-19-44.08-7.86-62.09,2.11-3.41,5.39-5.23,8-7.95.36-4,3.93-5.19,6.5-7a51.14,51.14,0,0,1,21-9,38.56,38.56,0,0,1,5.39-.48c12.62-.24,25.23-.21,37.79.48a251.17,251.17,0,0,1,49.56,7.28c7.61,2,13.68,7.29,21,9.85,4.15,2.46,8.82,4.28,11.12,9l-.25,0c4.64.82,6.57,4.77,9.21,7.91,9.38,10,13.9,21.84,17.21,35.2,3.73,15.11.69,28.92-4.21,42.08-6.65,17.84-20.17,30.34-38.26,37.24a55,55,0,0,1-17.88,3.69c-5.43.18-10.87.22-16.3.23q-38.7,0-77.41,0l-1-2.13c6.77-8.77,13.45-17.6,20.37-26.23,1.54-1.92,4.28-1.05,6.49-1,17.67.09,35.33.3,53,.36,11.71,0,22.37-3.26,31.38-10.94,17.48-14.91,18.58-42.65,2.27-60.25C350,170.59,335.09,163.78,317.49,163c-5.18-.24-10.44.26-15.48-1.47-12.21-.14-24.41-.42-36.62-.37-11.47,0-17.35,5-17.59,14.27-.27,9.9,6.63,16.81,17.63,17.35,15.81.78,31.65.15,47.45,1.39,8,.63,14.87,3.24,20.62,8.93,3.84,3.8,6.07,8.06,3.78,13.36-2.15,5-6.58,6.42-11.7,6.4q-33.24-.09-66.48-.07c-2.69,0-5.45-.29-8,.93-8.66,15.17-20,28.46-30,42.67-5.6,8-11.25,15.86-17.09,23.62-9.84,13.07-4.39,27.57,3.87,34.87,10.43,9.2,25,9.38,36.06.45,1.06-.85,2.38-1.64,3-2.77,4.11-8,10.89-8.58,18.81-7.77,6.27.64,12.66.05,19,0,2.75,0,4.76.6,2.92,3.89-10.64,19-23.58,35.49-45.92,41.45-28.58,7.64-60.79-12.87-65.07-41.31q-.62-2-1-4A47.36,47.36,0,0,1,175.62,295.13ZM347.4,709.69c-7.8,32.32-34.91,52.92-64.3,51.92-9.72-.33-19.53.39-29.16-.68-22.42-2.5-38.13-15.15-48.92-34.48-11.13-23.51-29.14-41.7-46.4-60.55-11.42-12.47-15.86-27.71-14-44.6.36-3.31.47-6.81,3-9.5,1.82-13.45,10-22.47,21.05-29.09,8.41-5,17.57-8.31,27.72-7.24,19.28.06,33.41,9.95,45.1,24.07,8.38,10.12,14,21.65,15.27,35,1.85,19.1,3.65,38.19,4.19,58-7.33-7.89-14.2-16.27-22.12-23.51s-12.18-15.13-12.09-26.42c.11-13.64-5.06-25.65-17.51-33.34-8.42-5.2-17.17-4.77-26.16-2.09l-7.49,6.36c-5.85,16.82-1.12,30.32,11,43.17,16.87,18,32.37,37.2,48.45,55.89,6.38,6.67,12.28,13.7,21.58,16.9l-1.73.2c18.93,5.37,45.25-1.58,54.26-15.39,4.95-7.6,10.54-16,3.56-25,.17.44.33.88.48,1.34a6.55,6.55,0,0,0-.42,1l-.84-.55c0-.32.08-.64.11-1a6.08,6.08,0,0,1,.53-1.05l.14.18c-2.95-7.83-8.31-13.92-14.93-18.81-4.29-3.16-5.95-7-6.22-12-.29-5.62-.83-11.23-1.26-16.84-1.33-4.24-4.6-9.66-2-12.64,2.32-2.71,8.07.22,12.09,1.37,22.68,6.45,37.29,21.27,44.32,43.68A56.36,56.36,0,0,1,347.4,709.69ZM660.29,911.58c8.06.92,16.14,2,23.92,4.48,1.38.45,3.72-.13,3.45,2.17-.24,2-2.5,1.36-3.94,1.74-6.1,1.62-12.15-.38-18.25-.25-72.93,1.47-145.86.84-218.79,1-43.27.13-86.55-.56-129.81,1-3.61.14-7.23-.13-10.86-.22h0l-6,.19h-5.25a6.2,6.2,0,0,1,5.25-2.15c25.27-5,50.56-9.87,75.81-15,55.69-11.24,89.65-60.87,93.92-107.24.44-4.72.76-9.46,1.14-14.19a134.66,134.66,0,0,0-14-50,372.39,372.39,0,0,0,99,1.33c-3.14,9.35-6.58,17.66-8.74,26.3-9.58,38.3-.5,72.41,23.37,103.35C593.29,893.75,624.15,907.48,660.29,911.58Zm136-161c-24.09,11.31-49.51,9.57-74,3.46-33.12-8.23-49.64-41.5-45.51-73.05,2.09-15.91,9.9-28.71,21.37-39.55,7.24-7.2,15.93-12,25.47-15.42,1.54-.55,3.58-2,4.82-.15s-.72,3.21-1.74,4.61c1.51,9.39-1.28,18.49-1.9,27.73a16.75,16.75,0,0,1-7,13.08c-5.91,4.46-8.32,11-9.36,18.11h0c-.17.72-.34,1.42-.52,2.13l2.4.16h0l-2.4-.17-.06.1v0c-3.21,23.14,14.7,34.71,34.25,36.73,1.45.15,3.44.84,4.94.2h0l1.77.31q33.57.28,67.14.59c.16,0,.32.25,1.09.89A43.61,43.61,0,0,1,796.31,750.62Zm68.07-83.85q-15.46,14.31-31,28.56c-1.87,1.73-3.85,3.23-6.53,3.23-14.2,0-28.39,0-39.5,0,10.19-11.6,20.87-23.9,31.74-36,2.45-2.74,6.23-3.56,9.53-5,16.49-7.44,23.84-24.68,16.66-39-5.16-10.34-14.17-14.49-25.07-14.21-12.22.32-20.66,6.9-25.79,17.92-2.66,5.73-2.65,11.86-3.13,18-.15,2,.32,4.16-1.26,5.83-10.49,11.15-21.47,21.78-34.21,33.39,2.62-22.12,1.82-42.86,6.78-62.81,6.44-25.92,31.49-44,58.74-43.9,26.79.09,49.84,17.35,56.26,43.59C882.25,635,879.53,652.75,864.38,666.77Zm55.2-44.7c-1.64,1.85-3.16,3.81-5.91,7.14-1.7-11.63-2.59-21.39-6.32-30.58-14.21-35-39.56-56.1-77.34-59.75-38.29-3.69-67.68,12.54-88.58,44.39-2.79,4.25-5.5,6.57-10.88,7.5-43.74,7.54-79.61,40-86.93,85.6-.89,5.54-3.46,7.71-8.78,9.16-40.81,11.14-82.17,18.78-124.56,18.4-40.44-.36-80.26-6.38-119.52-16.13-6.24-1.55-9.31-3.77-10.55-11.11-7.44-43.94-41.82-76.66-86.8-82.3-11.56-1.46-18.78-5.34-25.74-15.34-28.65-41.19-84.05-50.59-122.83-21.48-25.1,18.85-35.16,45.2-34.63,76.06,0,1.33,0,2.67,0,5.73-36.64-30.29-59.17-67.3-67.32-113-5.46-35.19-4.09-69.81,7.65-103.8,12.78-37,35.95-65.7,68-87.6,6.15-4.21,12.78-7.71,19.21-11.49,3-1.79,4.7-1.47,5.36,2.62.9,5.56,2.58,11,3.93,16.46,5.13,7.11,8.73,15.15,14.39,22a84.23,84.23,0,0,0,15.07,14.22l1.44,1c.49.35,1,.68,1.47,1,.24.17.49.33.73.48s.49.33.74.48c.49.32,1,.63,1.49.94l1.51.91c1,.58,2,1.14,3,1.67l.16.08c.49.27,1,.53,1.49.78,1,.49,2,1,2.95,1.42.52.24,1,.47,1.55.69a1.07,1.07,0,0,0,.22.1c.19.1.4.18.59.26l.32.13,1.15.47c.58.24,1.16.47,1.75.69.91.35,1.82.68,2.74,1l1.66.55c.55.18,1.1.35,1.66.51s1.11.33,1.67.48,1.12.31,1.69.45,1.12.28,1.69.42c1.69.4,3.4.75,5.11,1.05.85.15,1.71.29,2.57.41s1.73.25,2.59.34,1.72.19,2.58.26l1.15.1,1.44.09a90,90,0,0,0,10.39,0l1.16-.07c.29,0,.58,0,.87-.07l1.4-.12c1.43-.13,2.85-.3,4.27-.51.71-.1,1.42-.21,2.12-.33s1.42-.25,2.12-.39l1.44-.29c.78-.16,1.56-.34,2.33-.53l1.08-.26.17,0c.45-.12.9-.23,1.34-.36l.36-.1c1.11-.31,2.22-.64,3.32-1l1.17-.39q.95-.31,1.89-.66c.41-.14.82-.29,1.22-.45s.66-.24,1-.38l1-.4c1-.39,1.92-.8,2.87-1.23.59-.26,1.17-.53,1.76-.81s1.1-.53,1.64-.81c.3-.14.6-.3.89-.45.94-.49,1.87-1,2.79-1.52l1.33-.77c.42-.24.85-.5,1.27-.76l.91-.57c.31-.19.61-.39.91-.59l.22-.14,1-.67c.31-.2.61-.41.91-.63s.71-.49,1.06-.75.7-.5,1.05-.76.82-.61,1.22-.93.86-.66,1.28-1a.1.1,0,0,0,.05,0c.35-.27.7-.55,1-.84,1.07-.88,2.12-1.8,3.15-2.74,14.84-13.57,25.13-30.25,33.18-48.33,2.46-5.52,5.34-7,11.11-7h.9q1.49,0,2.94,0c.79,0,1.58,0,2.36-.07h.29l2.39-.11c1.21-.06,2.41-.15,3.6-.25l1.11-.1c.61-.05,1.21-.11,1.81-.18.9-.09,1.79-.19,2.67-.31l2.16-.3c.54-.07,1.07-.15,1.6-.25.76-.11,1.51-.24,2.25-.37,1.14-.2,2.26-.42,3.37-.67.57-.11,1.14-.24,1.71-.37.85-.2,1.7-.4,2.54-.62s1.68-.44,2.51-.67c.29-.07.57-.16.85-.24q1.62-.47,3.21-1c.49-.15,1-.31,1.45-.48,1-.34,2-.69,2.95-1.07l1.44-.56c.93-.36,1.84-.74,2.74-1.14.61-.26,1.21-.53,1.81-.81.3-.13.59-.26.88-.41l.4-.19.41-.2c.59-.29,1.19-.58,1.77-.88l.78-.4,1.54-.82,1.22-.68,1.15-.67c.65-.38,1.29-.77,1.93-1.17.36-.21.72-.44,1.07-.67s.71-.45,1.06-.69.81-.53,1.21-.81l.85-.59c.42-.29.83-.58,1.24-.89l1.19-.88q.87-.63,1.71-1.32l1.22-1c.53-.43,1.06-.87,1.58-1.32s.87-.75,1.3-1.13l.93-.84c.32-.29.64-.58.95-.88q3.08-2.88,5.93-6.09l.63-.72c.25-.27.49-.55.72-.83s.48-.56.71-.85.29-.33.42-.5c.41-.49.81-1,1.21-1.49.59-.74,1.17-1.49,1.74-2.26.39-.52.78-1.05,1.16-1.58s.63-.88.94-1.32c.8-1.12,1.57-2.28,2.32-3.45.28-.43.57-.88.84-1.32.45-.71.89-1.43,1.33-2.17.25-.42.5-.84.74-1.27.38-.63.74-1.28,1.1-1.93s.6-1.08.89-1.63.53-1,.79-1.5.38-.72.56-1.08c.31-.6.61-1.21.91-1.82,18.51-37.84,13.87-74.64-9.66-109.28-1.63-2.39-3-4.94-4.51-7.42l-3.3-3.18-1.64-1.6L407.08,137c-1.14-1.11-2.28-2.22-3.44-3.31l-1.41-1.32q-1.56-1.45-3.18-2.88c-.54-.47-1.09-.95-1.64-1.41s-1-.87-1.56-1.29-.85-.7-1.28-1c-.25-.21-.51-.41-.76-.6s-.51-.4-.77-.59-.51-.39-.77-.57c-.44-.33-.89-.65-1.34-1,0,0,0,0,0,0-.4-.29-.8-.57-1.21-.84s-.79-.53-1.19-.78a.37.37,0,0,0-.12-.07,1.43,1.43,0,0,0-.22-.15s0,0,0,0c-.26-.17-.51-.33-.77-.48q-.78-.49-1.59-1c-4.37-2.52-.81-3.89.81-5.2a139.65,139.65,0,0,1,48.29-25.68c18.45-5.51,37.22-9.69,56.63-10.11,55.24-3.26,106.36,7,149.24,45,4,3.52,3.85,5.36.22,8.88-22.87,22.19-34.94,49.2-35.12,81.2-.28,48.1,38.36,100.93,93.81,103.67,4.4.22,5.69,2.8,7.14,5.91,9.5,20.26,21.25,38.89,38.08,54,40.46,36.41,118.57,32.32,145-35.07,3.18-8.12,3.38-8.12,10-2.52,32.52,27.61,56,61.19,65,103.26C979.18,510,965.58,570.23,919.58,622.07Z" transform="translate(-5.61 -45.22)"/><path class="cls-1" d="M313.09,690.56a6.55,6.55,0,0,0-.42,1l-.84-.55c0-.32.08-.64.11-1a6.08,6.08,0,0,1,.53-1.05l.14.18h0C312.78,689.66,312.94,690.1,313.09,690.56Z" transform="translate(-5.61 -45.22)"/><path class="cls-1" d="M710.24,691.74h0l-2.4-.17Z" transform="translate(-5.61 -45.22)"/><path class="cls-12" d="M300,919.63v2.15h-5.25A6.2,6.2,0,0,1,300,919.63Z" transform="translate(-5.61 -45.22)"/><path class="cls-13" d="M708.36,689.45c-.17.72-.34,1.42-.52,2.13l-.06.1Z" transform="translate(-5.61 -45.22)"/><path class="cls-14" d="M667.88,378.89c-41.38-50.53-96.06-75.38-161.51-75.72-5.44,0-10.88-.11-16.32.05a78.91,78.91,0,0,0-8.76,1c-65.32,9.21-117.36,39.54-152.12,96.64-15.78,25.92-20.28,54.55-16.69,84.38,5.7,47.39,32.49,81.36,71,106.55,44.81,29.28,94.49,40.47,147.72,35,38.76-4,74.89-15.88,106.14-39.76,24.07-18.4,44.17-40.55,54.54-69.63C710,466.88,701.42,419.86,667.88,378.89Zm-285.3,137.3c-11.33,4.13-22.95,4.7-34.44.66-4.71-1.65-9.38-4.14-9.24-10.26.13-5.75,4.56-7.7,9.07-9.63,4.94-2.12,10.09-2.1,16.61-2.21,5.37-.61,11.69,1.18,17.81,3.49,3.94,1.49,6.79,4.27,7.06,9C389.74,512.33,386.42,514.79,382.58,516.19Zm12.56-30.73c-27.76-.24-48.35-20.78-48.14-48s21.48-48.6,48.12-48.48,48.74,22.61,48.23,49.32C442.86,464.2,420.91,485.68,395.14,485.46Zm121.42,22.09c-11.76,3.95-22.53,1.75-31.86-5.9-11.1-9.09-16.6-21.32-16.93-35.62-.23-10.34,4.93-15.41,15.25-15.58,7.92-.14,15.84,0,23.76,0v0c7.92,0,15.85-.16,23.77,0,10.29.26,15.18,5.53,15.06,15.83C545.4,484.13,532.65,502.16,516.56,507.55Zm54.63-70.68c.15-27.39,20.68-48,47.62-47.77,26.68.21,48.08,22.36,48,49.68-.08,26-21.59,46.75-48.34,46.58C592.06,485.2,571.06,463.66,571.19,436.87Zm96.71,78.4c-6.19,3.07-12.86,4.19-20.26,4.07A42.1,42.1,0,0,1,630.27,516c-3.77-1.53-6.6-4.39-6.72-8.63-.11-4,2.46-6.72,5.93-8.4,12.82-6.21,25.75-6,38.6-.17,3.43,1.55,6,4.36,6.13,8.33C674.29,511.25,671.2,513.62,667.9,515.27Z" transform="translate(-5.61 -45.22)"/><path class="cls-9" d="M964.83,443.11c-9-42.07-32.49-75.65-65-103.26-6.59-5.6-6.79-5.6-10,2.52-26.4,67.39-104.51,71.48-145,35.07-16.83-15.15-28.58-33.78-38.08-54-1.45-3.11-2.74-5.69-7.14-5.91-55.45-2.74-94.09-55.57-93.81-103.67.18-32,12.25-59,35.12-81.2,3.63-3.52,3.76-5.36-.22-8.88-42.88-38-94-48.24-149.24-45-5.45,14.25-17.84,21.86-29.33,30.13-13.95,10-28.36,19.43-42.49,29.21-2.18,1.51-4.78,2.67-6,5.29,1.5,2.48,2.88,5,4.51,7.42,23.53,34.64,28.17,71.44,9.66,109.28-.3.61-.6,1.22-.91,1.82-.18.36-.36.72-.56,1.08s-.52,1-.79,1.5-.59,1.09-.89,1.63-.72,1.3-1.1,1.93c-.24.43-.49.85-.74,1.27-.44.74-.88,1.46-1.33,2.17-.27.45-.55.88-.84,1.32-.75,1.17-1.52,2.33-2.32,3.45-.3.45-.62.88-.94,1.32s-.76,1.06-1.16,1.58c-.57.77-1.15,1.52-1.74,2.26-.4.5-.8,1-1.21,1.49-.13.17-.27.34-.42.5s-.47.57-.71.85-.47.56-.72.83l-.63.72Q408,289,404.89,291.9c-.31.3-.63.59-.95.88l-.93.84c-.43.38-.86.76-1.3,1.13s-1,.89-1.58,1.32-.81.67-1.22,1q-.84.69-1.71,1.32c-.39.3-.79.6-1.19.88s-.82.6-1.24.89l-.85.59c-.4.28-.8.55-1.21.81s-.7.47-1.06.69-.71.46-1.07.67c-.64.41-1.28.8-1.93,1.17l-1.15.67-1.22.68c-.51.28-1,.56-1.54.82l-.78.4c-.58.31-1.17.6-1.77.88l-.41.2-.4.19c-.29.15-.58.28-.88.41-.6.28-1.2.55-1.81.81-.9.4-1.81.78-2.74,1.14l-1.44.56c-1,.38-2,.73-2.95,1.07-.48.17-1,.33-1.45.48q-1.59.53-3.21,1c-.28.08-.56.17-.85.24-.83.24-1.67.46-2.51.67s-1.69.42-2.54.62c-.57.13-1.14.26-1.71.37-1.11.25-2.23.47-3.37.67-.74.13-1.49.26-2.25.37-.53.1-1.06.18-1.6.25-.72.11-1.43.21-2.16.3-.88.12-1.77.22-2.67.31-.6.07-1.2.13-1.81.18l-1.11.1c-1.19.1-2.39.19-3.6.25l-2.39.11H338c-.78,0-1.57.06-2.36.07q-1.46,0-2.94,0h-.9c-5.77,0-8.65,1.45-11.11,7-8.05,18.08-18.34,34.76-33.18,48.33-1,.94-2.08,1.86-3.15,2.74-.34.29-.69.57-1,.84a.1.1,0,0,1-.05,0c-.42.35-.85.68-1.28,1s-.81.63-1.22.93-.7.52-1.05.76-.7.51-1.06.75-.6.43-.91.63l-1,.67-.22.14c-.3.2-.6.4-.91.59l-.91.57c-.42.26-.85.52-1.27.76s-.89.53-1.33.77c-.92.53-1.85,1-2.79,1.52-.29.15-.59.31-.89.45-.54.28-1.09.55-1.64.81s-1.17.55-1.76.81c-.95.43-1.91.84-2.87,1.23-.33.14-.67.28-1,.4s-.66.26-1,.38-.81.31-1.22.45q-.93.36-1.89.66l-1.17.39c-1.1.36-2.2.69-3.32,1l-.36.1c-.44.13-.89.24-1.34.36l-.17,0-1.08.26c-.77.19-1.55.37-2.33.53-.48.11-1,.21-1.44.29-.71.15-1.41.27-2.12.39s-1.41.23-2.12.33c-1.42.21-2.84.38-4.27.51-.47.06-.93.1-1.4.12-.29,0-.58.06-.87.07s-.77.06-1.16.07a85.76,85.76,0,0,1-10.39,0l-1.44-.09-1.15-.1c-.86-.07-1.72-.15-2.58-.26s-1.73-.21-2.59-.34-1.72-.26-2.57-.41c-1.71-.29-3.42-.64-5.11-1.05-.57-.13-1.13-.26-1.69-.42s-1.13-.28-1.69-.45-1.12-.31-1.67-.48-1.11-.33-1.66-.51-1.11-.35-1.66-.55c-.92-.31-1.83-.64-2.74-1-.59-.21-1.17-.44-1.75-.69-.39-.14-.77-.3-1.15-.47l-.32-.13c-.19-.08-.4-.16-.59-.26a1.07,1.07,0,0,1-.22-.1c-.52-.21-1-.44-1.55-.69-1-.45-2-.92-2.95-1.42-.5-.25-1-.51-1.49-.78l-.16-.08c-1-.53-2-1.09-3-1.67-.51-.29-1-.59-1.51-.91s-1-.61-1.49-.94c-.25-.15-.5-.31-.74-.48s-.49-.31-.73-.48c-.49-.33-1-.66-1.47-1s-1-.68-1.44-1a84.23,84.23,0,0,1-15.07-14.22c-5.66-6.85-9.26-14.89-14.39-22-6.95,2.76-10.9,9.17-16.43,13.66-5.75,4.69-10.91,10.11-16.32,15.21-5.47,5.71-13.06,9.75-14.63,18.55l-.25.39a6.12,6.12,0,0,0-3.73,6C90.07,409.49,84.33,422.49,79,435.66c-7,17.21-9.45,35.84-16.22,53.12C57.56,502,52.21,515.26,42.89,526.36c8.15,45.7,30.68,82.71,67.32,113,0-3.06,0-4.4,0-5.73-.53-30.86,9.53-57.21,34.63-76.06,38.78-29.11,94.18-19.71,122.83,21.48,7,10,14.18,13.88,25.74,15.34,45,5.64,79.36,38.36,86.8,82.3,1.24,7.34,4.31,9.56,10.55,11.11,39.26,9.75,79.08,15.77,119.52,16.13,42.39.38,83.75-7.26,124.56-18.4,5.32-1.45,7.89-3.62,8.78-9.16,7.32-45.56,43.19-78.06,86.93-85.6,5.38-.93,8.09-3.25,10.88-7.5,20.9-31.85,50.29-48.08,88.58-44.39,37.78,3.65,63.13,24.76,77.34,59.75,3.73,9.19,4.62,19,6.32,30.58,2.75-3.33,4.27-5.29,5.91-7.14C965.58,570.23,979.18,510,964.83,443.11ZM241.91,479.76l-23.83,13a16.15,16.15,0,0,0-6.4,6.4l-13,23.83a16.1,16.1,0,0,1-28.25,0l-13-23.83a16.15,16.15,0,0,0-6.4-6.4l-23.83-13a16.1,16.1,0,0,1,0-28.25l23.83-13a16.15,16.15,0,0,0,6.4-6.4l13-23.83a16.1,16.1,0,0,1,28.25,0l13,23.83a16.15,16.15,0,0,0,6.4,6.4l23.83,13A16.1,16.1,0,0,1,241.91,479.76Zm212.9-347.94,23.83-13a16.15,16.15,0,0,0,6.4-6.4l13-23.83a16.1,16.1,0,0,1,28.25,0l13,23.83a16.09,16.09,0,0,0,6.4,6.4l23.82,13a16.1,16.1,0,0,1,0,28.25l-23.82,13a16.09,16.09,0,0,0-6.4,6.4l-13,23.82a16.1,16.1,0,0,1-28.25,0L485,179.5a16.15,16.15,0,0,0-6.4-6.4l-23.83-13A16.1,16.1,0,0,1,454.81,131.82ZM691.93,517.39c-10.37,29.08-30.47,51.23-54.54,69.63C606.14,610.9,570,622.77,531.25,626.78c-53.23,5.51-102.91-5.68-147.72-35-38.56-25.19-65.35-59.16-71-106.55-3.59-29.83.91-58.46,16.69-84.38,34.76-57.1,86.8-87.43,152.12-96.64a78.91,78.91,0,0,1,8.76-1c5.44-.16,10.88-.05,16.32-.05,65.45.34,120.13,25.19,161.51,75.72C701.42,419.86,710,466.88,691.93,517.39Zm228.43-41.54-23.83,13a16.15,16.15,0,0,0-6.4,6.4l-13,23.83a16.1,16.1,0,0,1-28.25,0l-13-23.83a16.15,16.15,0,0,0-6.4-6.4l-23.82-13a16.1,16.1,0,0,1,0-28.25l23.82-13a16.09,16.09,0,0,0,6.4-6.4l13-23.82a16.1,16.1,0,0,1,28.25,0l13,23.82a16.09,16.09,0,0,0,6.4,6.4l23.83,13A16.1,16.1,0,0,1,920.36,475.85Z" transform="translate(-5.61 -45.22)"/><path class="cls-1" d="M395.14,485.46c-27.76-.24-48.35-20.78-48.14-48s21.48-48.6,48.12-48.48,48.74,22.61,48.23,49.32C442.86,464.2,420.91,485.68,395.14,485.46ZM400,424c.08-8.4-7.16-15.79-15.48-15.78a15.58,15.58,0,0,0-15.29,15.19c-.24,8.62,6.13,15.69,14.22,15.8C392.75,439.36,399.89,432.8,400,424Z" transform="translate(-5.61 -45.22)"/><path class="cls-1" d="M571.19,436.87c.15-27.39,20.68-48,47.62-47.77,26.68.21,48.08,22.36,48,49.68-.08,26-21.59,46.75-48.34,46.58C592.06,485.2,571.06,463.66,571.19,436.87Zm51.36-12.63c.21-8.95-6.57-15.73-15.77-15.77a15.12,15.12,0,0,0-15,15.11c-.1,8.68,6,15.34,14.29,15.67C615.39,439.63,622.33,433.29,622.55,424.24Z" transform="translate(-5.61 -45.22)"/><path class="cls-1" d="M506.78,450.38c7.92,0,15.85-.16,23.77,0,10.29.26,15.18,5.53,15.06,15.83-.21,17.88-13,35.91-29.05,41.3-11.76,3.95-22.53,1.75-31.86-5.9-11.1-9.09-16.6-21.32-16.93-35.62-.23-10.34,4.93-15.41,15.25-15.58,7.92-.14,15.84,0,23.76,0Z" transform="translate(-5.61 -45.22)"/><path class="cls-15" d="M364.58,494.75c5.37-.61,11.69,1.18,17.81,3.49,3.94,1.49,6.79,4.27,7.06,9,.29,5.08-3,7.54-6.87,8.94-11.33,4.13-22.95,4.7-34.44.66-4.71-1.65-9.38-4.14-9.24-10.26.13-5.75,4.56-7.7,9.07-9.63C352.91,494.84,358.06,494.86,364.58,494.75Z" transform="translate(-5.61 -45.22)"/><path class="cls-15" d="M647.64,519.34A42.1,42.1,0,0,1,630.27,516c-3.77-1.53-6.6-4.39-6.72-8.63-.11-4,2.46-6.72,5.93-8.4,12.82-6.21,25.75-6,38.6-.17,3.43,1.55,6,4.36,6.13,8.33.08,4.12-3,6.49-6.31,8.14C661.71,518.34,655,519.46,647.64,519.34Z" transform="translate(-5.61 -45.22)"/><path class="cls-16" d="M400,424c-.1,8.77-7.24,15.33-16.55,15.21-8.09-.11-14.46-7.18-14.22-15.8a15.58,15.58,0,0,1,15.29-15.19C392.83,408.24,400.07,415.63,400,424Z" transform="translate(-5.61 -45.22)"/><path class="cls-16" d="M622.55,424.24c-.22,9.05-7.16,15.39-16.44,15-8.32-.33-14.39-7-14.29-15.67a15.12,15.12,0,0,1,15-15.11C616,408.51,622.76,415.29,622.55,424.24Z" transform="translate(-5.61 -45.22)"/><path class="cls-17" d="M569.57,160.07l-23.82,13a16.09,16.09,0,0,0-6.4,6.4l-13,23.82a16.1,16.1,0,0,1-28.25,0L485,179.5a16.15,16.15,0,0,0-6.4-6.4l-23.83-13a16.1,16.1,0,0,1,0-28.25l23.83-13a16.15,16.15,0,0,0,6.4-6.4l13-23.83a16.1,16.1,0,0,1,28.25,0l13,23.83a16.09,16.09,0,0,0,6.4,6.4l23.82,13A16.1,16.1,0,0,1,569.57,160.07Z" transform="translate(-5.61 -45.22)"/><path class="cls-17" d="M911.92,194.63l5.32,9.71a6.59,6.59,0,0,0,2.6,2.61l9.72,5.31a6.56,6.56,0,0,1,0,11.51l-9.72,5.31a6.59,6.59,0,0,0-2.6,2.61l-5.32,9.72a6.56,6.56,0,0,1-11.51,0l-5.31-9.72a6.62,6.62,0,0,0-2.61-2.61l-9.71-5.31a6.56,6.56,0,0,1,0-11.51l9.71-5.31a6.62,6.62,0,0,0,2.61-2.61l5.31-9.71A6.55,6.55,0,0,1,911.92,194.63Z" transform="translate(-5.61 -45.22)"/><path class="cls-18" d="M963.84,127.9,969.93,139a7.48,7.48,0,0,0,3,3l11.13,6.09a7.52,7.52,0,0,1,0,13.19l-11.13,6.09a7.42,7.42,0,0,0-3,3l-6.09,11.13a7.52,7.52,0,0,1-13.19,0l-6.09-11.13a7.48,7.48,0,0,0-3-3l-11.13-6.09a7.51,7.51,0,0,1,0-13.19L941.57,142a7.54,7.54,0,0,0,3-3l6.09-11.13A7.51,7.51,0,0,1,963.84,127.9Z" transform="translate(-5.61 -45.22)"/><path class="cls-17" d="M888,74.75l8,14.64A9.84,9.84,0,0,0,900,93.32l14.63,8a9.89,9.89,0,0,1,0,17.35l-14.63,8a9.78,9.78,0,0,0-3.93,3.93l-8,14.63a9.89,9.89,0,0,1-17.35,0l-8-14.63a9.84,9.84,0,0,0-3.93-3.93l-14.64-8a9.89,9.89,0,0,1,0-17.35l14.64-8a9.91,9.91,0,0,0,3.93-3.93l8-14.64A9.89,9.89,0,0,1,888,74.75Z" transform="translate(-5.61 -45.22)"/><path class="cls-17" d="M108.47,194.63l-5.31,9.71a6.56,6.56,0,0,1-2.61,2.61l-9.71,5.31a6.56,6.56,0,0,0,0,11.51l9.71,5.31a6.56,6.56,0,0,1,2.61,2.61l5.31,9.72a6.57,6.57,0,0,0,11.52,0l5.31-9.72a6.62,6.62,0,0,1,2.61-2.61l9.71-5.31a6.56,6.56,0,0,0,0-11.51L127.91,207a6.62,6.62,0,0,1-2.61-2.61L120,194.63A6.56,6.56,0,0,0,108.47,194.63Z" transform="translate(-5.61 -45.22)"/><path class="cls-18" d="M56.56,127.9,50.47,139a7.54,7.54,0,0,1-3,3l-11.13,6.09a7.52,7.52,0,0,0,0,13.19l11.13,6.09a7.48,7.48,0,0,1,3,3l6.09,11.13a7.52,7.52,0,0,0,13.19,0l6.09-11.13a7.48,7.48,0,0,1,3-3L90,161.3a7.52,7.52,0,0,0,0-13.19L78.83,142a7.54,7.54,0,0,1-3-3L69.75,127.9A7.51,7.51,0,0,0,56.56,127.9Z" transform="translate(-5.61 -45.22)"/><path class="cls-17" d="M132.36,74.75l-8,14.64a9.84,9.84,0,0,1-3.93,3.93l-14.64,8a9.89,9.89,0,0,0,0,17.35l14.64,8a9.78,9.78,0,0,1,3.93,3.93l8,14.63a9.89,9.89,0,0,0,17.35,0l8-14.63a9.78,9.78,0,0,1,3.93-3.93l14.64-8a9.89,9.89,0,0,0,0-17.35l-14.64-8a9.84,9.84,0,0,1-3.93-3.93l-8-14.64A9.89,9.89,0,0,0,132.36,74.75Z" transform="translate(-5.61 -45.22)"/><path class="cls-17" d="M147,773.61l-5.31,9.72a6.53,6.53,0,0,1-2.61,2.6l-9.71,5.32a6.56,6.56,0,0,0,0,11.51l9.71,5.31a6.56,6.56,0,0,1,2.61,2.61l5.31,9.71a6.56,6.56,0,0,0,11.51,0l5.32-9.71a6.53,6.53,0,0,1,2.6-2.61l9.72-5.31a6.56,6.56,0,0,0,0-11.51l-9.72-5.32a6.51,6.51,0,0,1-2.6-2.6l-5.32-9.72A6.56,6.56,0,0,0,147,773.61Z" transform="translate(-5.61 -45.22)"/><path class="cls-18" d="M77.69,714.9l-7.25,13.27a8.93,8.93,0,0,1-3.57,3.56L53.61,739a9,9,0,0,0,0,15.73L66.87,762a9,9,0,0,1,3.57,3.57l7.25,13.27a9,9,0,0,0,15.73,0l7.26-13.27a9,9,0,0,1,3.56-3.57l13.27-7.25a9,9,0,0,0,0-15.73l-13.27-7.26a9,9,0,0,1-3.56-3.56L93.42,714.9A9,9,0,0,0,77.69,714.9Z" transform="translate(-5.61 -45.22)"/><path class="cls-17" d="M871.53,773.61l5.31,9.72a6.53,6.53,0,0,0,2.61,2.6l9.71,5.32a6.56,6.56,0,0,1,0,11.51l-9.71,5.31a6.56,6.56,0,0,0-2.61,2.61l-5.31,9.71a6.57,6.57,0,0,1-11.52,0l-5.31-9.71a6.56,6.56,0,0,0-2.61-2.61l-9.71-5.31a6.56,6.56,0,0,1,0-11.51l9.71-5.32a6.53,6.53,0,0,0,2.61-2.6l5.31-9.72A6.57,6.57,0,0,1,871.53,773.61Z" transform="translate(-5.61 -45.22)"/><path class="cls-18" d="M940.83,714.9l7.26,13.27a9,9,0,0,0,3.56,3.56L964.92,739a9,9,0,0,1,0,15.73L951.65,762a9,9,0,0,0-3.56,3.57l-7.26,13.27a9,9,0,0,1-15.73,0l-7.25-13.27a9,9,0,0,0-3.57-3.57L901,754.72A9,9,0,0,1,901,739l13.26-7.26a8.93,8.93,0,0,0,3.57-3.56l7.25-13.27A9,9,0,0,1,940.83,714.9Z" transform="translate(-5.61 -45.22)"/><path class="cls-17" d="M920.36,475.85l-23.83,13a16.15,16.15,0,0,0-6.4,6.4l-13,23.83a16.1,16.1,0,0,1-28.25,0l-13-23.83a16.15,16.15,0,0,0-6.4-6.4l-23.82-13a16.1,16.1,0,0,1,0-28.25l23.82-13a16.09,16.09,0,0,0,6.4-6.4l13-23.82a16.1,16.1,0,0,1,28.25,0l13,23.82a16.09,16.09,0,0,0,6.4,6.4l23.83,13A16.1,16.1,0,0,1,920.36,475.85Z" transform="translate(-5.61 -45.22)"/><path class="cls-17" d="M241.91,479.76l-23.83,13a16.15,16.15,0,0,0-6.4,6.4l-13,23.83a16.1,16.1,0,0,1-28.25,0l-13-23.83a16.15,16.15,0,0,0-6.4-6.4l-23.83-13a16.1,16.1,0,0,1,0-28.25l23.83-13a16.15,16.15,0,0,0,6.4-6.4l13-23.83a16.1,16.1,0,0,1,28.25,0l13,23.83a16.15,16.15,0,0,0,6.4,6.4l23.83,13A16.1,16.1,0,0,1,241.91,479.76Z" transform="translate(-5.61 -45.22)"/></svg>
