<svg id="Layer_1" data-name="Layer 1" xmlns="http://www.w3.org/2000/svg" viewBox="0 0 1024 1024"><defs><style>.cls-1{fill:#14539a;}</style></defs><path class="cls-1" d="M514.05,1023.72c-37.52-1.38-78.22-.28-118.28-7.88-44.93-8.52-81.25-29-96.36-75.26-7.14-21.93-6.76-45.32-9.21-68.1-8.67-80.61-17-161.26-25.4-241.9Q254.89,535.85,245,441.11c-1.77-17.24,9.41-30.37,27-32.47,15.25-1.82,28.72,10,30.76,27.89,3.81,33.51,7.24,67.06,10.72,100.61,6.76,65.29,13.37,130.61,20.2,195.9q8.1,77.61,16.6,155.17c5.46,49.08,27.71,74.85,76.58,79,60,5.08,120.47,8.12,180.37-2.53,48.83-8.68,64.16-26.72,68.11-76.1,6.8-85.12,16.93-169.92,25.49-254.87Q712.13,522.33,723.34,411c1.89-19-7.66-28.07-26.89-25.9a1628.12,1628.12,0,0,1-218.21,9.63,1711.8,1711.8,0,0,1-260-25.7c-39.64-7-65.67-44.25-59.07-84.11,2.58-15.53,5.78-31,9.5-46.29,11.22-46.15,42.79-66.45,89.54-58.07,124.38,22.3,249.61,26,375.42,17.22q40.81-2.83,81.37-8.21c12.35-1.66,14.66-5.13,12.11-17.37-4.6-22.08-10-44-14.19-66.16-3.13-16.6-12.77-25.83-28.68-29.45a660.36,660.36,0,0,0-97.69-15.07c-64.94-4.77-129.82-4.58-194.63,2.1-17.47,1.8-34.9,4-52,7.94-3,.7-7.1.29-7.48,4.58-.46,5.3,4.28,5,7.52,5.64C374.06,88.93,408.73,92,443.51,93.47c65.34,2.72,130.58,1.82,195.48-7.8,17.25-2.56,32.38,9.08,34.33,25.16s-9.83,30-27.23,32.36a1079.44,1079.44,0,0,1-278.08,2c-33.08-4-66-9.67-96.73-23.6-19.52-8.85-36.13-21-36.08-44.87.05-23.69,16-36.44,35.72-45.25,37.2-16.66,77-21.86,117-25.91A1151.15,1151.15,0,0,1,590.12,3.43,679.25,679.25,0,0,1,699.36,20.81c44.17,10.69,70.07,36,73.33,82.91,1.24,17.79,5.7,35.35,8.63,53,2.26,13.62,9.12,23.26,23.13,26.45,29,6.6,44.27,26.23,50.81,53.76,4.37,18.45,9.15,36.92,10.41,55.91,2.57,38.44-19,67.39-56.5,76.52-22.17,5.4-23.81,7.62-26.11,30.06q-14.55,141.87-29.34,283.7c-7.51,73.16-15.16,146.3-22.12,219.52C726,962,683,1006.88,620.05,1018,585.93,1024,551.52,1024.5,514.05,1023.72ZM508.21,337a1856,1856,0,0,0,213.1-13.29c18.86-2.24,37.67-4.95,56.4-8,22.46-3.68,29.89-13,29.33-35.85A80.58,80.58,0,0,0,805.48,266c-4.8-23.86-16-32-39.64-27.42a1307.9,1307.9,0,0,1-196.39,22.21c-87.29,3.4-174.22-.55-260.73-13.23-20.2-3-39.72-9.56-60.27-10.52-15.41-.73-22.89,3.61-27.17,18.49a157.21,157.21,0,0,0-5.71,30.54c-1.38,17.49,4.92,24.77,22.32,27.95,4.93.9,9.92,1.41,14.88,2.13C339.11,328.71,425.8,336.66,508.21,337Z"/><path class="cls-1" d="M517.56,940.41c-27.66,3.49-55.21.51-82.82-.29-32.25-.93-57.4-26.81-60.59-60.42q-8.47-89.37-17.1-178.71-8.55-88.28-17.29-176.52c-.59-6.05-1.18-12.11-2.06-18.12-1.17-8,2.31-9.16,9.25-7.27,18.44,5,37.29,6.31,56.41,6.68,42.64.83,82-11.7,120.61-27.83,22.43-9.36,44.36-20,68.06-26.05,30.3-7.8,60.33-6.63,90.2,2.14,5.68,1.67,7.66,5.08,7,11.3q-10,100.56-19.49,201.19c-4.81,51.39-9.13,102.83-13.86,154.23-1.9,20.69-3.95,41.39-6.59,62-4.38,34.27-29.37,56.8-64,57.58C562.74,940.83,540.15,940.41,517.56,940.41Z"/></svg>