<?xml version="1.0" encoding="utf-8"?>
<!-- Generator: Adobe Illustrator 26.0.1, SVG Export Plug-In . SVG Version: 6.00 Build 0)  -->
<svg version="1.1" id="Layer_1" xmlns="http://www.w3.org/2000/svg" xmlns:xlink="http://www.w3.org/1999/xlink" x="0px" y="0px"
	 viewBox="0 0 1024 984" style="enable-background:new 0 0 1024 984;" xml:space="preserve">
<style type="text/css">
	.st0{fill:#14539A;}
</style>
<path class="st0" d="M620.6,745.4c-4.3-6.8-2.4-15.8,4.4-20.1c1.8-1.1,3.7-1.9,5.8-2.2c13.8-2.2,27.1-4.6,40.1-7.9
	c100.2-25.7,156.5-91.1,165.6-192c2.9-32.6,4.3-64.9-3.8-97c-7-28-20.5-53.9-39.5-75.6c-4.7-5.4-6-9.8-3.8-16.9
	c12.3-39.4,8.2-78.3-5-116.9c-2.4-6.9-6.6-9.1-13.6-9c-21.5,0.6-41.6,6.8-61.1,14.9c-21.2,8.9-41.6,19.9-60.7,32.7
	c-5.8,3.8-10.9,5-18,3.3c-79.2-19.3-158.4-19.3-237.7,0c-7.1,1.7-12.2,0.4-18-3.3c-33.6-21.2-68.1-40.3-108.5-46.4
	c-22-3.3-24.2-2.3-30.2,18.1c-10.7,36.2-12.7,72.6-1,109c1.5,4.5,1.2,8-2.2,11.9c-46.1,52.6-54,114.4-45.2,180.2
	c6,44.8,19.4,86.7,50.1,121.8c34.9,40,81.5,59.2,132.7,69.6c7.2,1.5,14.4,2.7,21.8,3.8c8,1.1,13.6,8.5,12.5,16.5c-0.3,2-1,3.9-2,5.6
	c-8.5,14-14.1,29.6-16.3,45.8c-0.6,4.3-5,4.9-8.2,6.2c-57.1,23.5-108,7.7-141-43.9c-17.1-26.6-39.6-46-72.3-52
	c-7.6-1.4-15.5-0.9-22.8,1.6c-8.2,2.8-9.8,8.3-4.3,14.6c3.9,4.6,8.5,8.6,13.6,11.8c26,15,44.7,37,54.1,64
	c19.8,57.3,76.5,82.3,138.8,77.2c10.5-0.9,21-2.2,31.4-4c6.1-1.1,8,0.6,8,6.5c0,28.6,0.8,57.1,0.4,85.7
	c-0.3,20.2-16.8,29.7-38.2,22.7c-43-14.1-83.6-33.2-120.5-58.9C70.1,814.2-7.1,665.7,0.5,479.4c9.6-234.6,183.9-427.2,420.4-471
	c266.7-49.5,534.7,125,591.1,384.7c52.4,241.2-69.9,476.8-298.2,574.5c-12.2,5.2-24.8,10-37.5,14.1c-22,7.1-37.4-3.7-37.4-26.1
	c0-39.7,0-79.4,0.7-119C640,804.4,638.1,773,620.6,745.4z"/>
</svg>
