<?xml version="1.0" encoding="utf-8"?>
<!-- Generator: Adobe Illustrator 26.0.1, SVG Export Plug-In . SVG Version: 6.00 Build 0)  -->
<svg version="1.1" id="Layer_1" xmlns="http://www.w3.org/2000/svg" xmlns:xlink="http://www.w3.org/1999/xlink" x="0px" y="0px"
	 viewBox="0 0 1024 1024" style="enable-background:new 0 0 1024 1024;" xml:space="preserve">
<style type="text/css">
	.st0{fill:#14539A;}
</style>
<g>
	<path class="st0" d="M0,780.5v-537C0,109,109,0,243.5,0h537C915,0,1024,109,1024,243.5v537C1024,915,915,1024,780.5,1024h-537
		C109,1024,0,915,0,780.5z M290.8,730.5c0,2.7-0.2,4.7,0,6.5c3.6,35.4,16.6,66.4,42.5,91.3c28.6,27.5,63.8,43,101.4,53.3
		c58.9,16.1,118,13,176.4-2.4c67-17.7,111-60.2,131.6-126.4c12.2-39.2,16.9-79.8,17.1-120.5c0.7-160,0.4-320,0.5-480
		c0-1.9-0.2-3.7-0.3-5.9h-70v73.1c-2.3-2.8-3.4-4.2-4.7-5.6c-8.3-9.2-15.9-19.1-25-27.4c-55.6-51.1-121.5-67.8-194.5-53
		c-74.2,15.1-131.6,55.4-164,125c-35.1,75.2-41.9,154-20.7,234.6c8.3,31.4,18.2,62.4,37.2,89.3c42.6,60.3,103.3,87.3,175,93
		c29.4,2.3,58.2-2.2,86.7-9.6s54.4-19.8,76.7-39.3c11-9.6,21.8-19.3,33.4-29.6c-0.5,8.6-0.6,16.7-1.4,24.7
		c-3.3,31.6-5.3,63.4-10.6,94.6c-6.3,37.3-22.8,70.2-55.9,91.1c-50.8,32.2-105.6,40-162.9,20.1c-46.3-16.1-79.7-47.5-100.8-91.8
		c-2.5-5.3-5.5-6.6-13.1-5.5c-14.4,2.1-28.9,2.1-43.3,0.1C298.2,729.9,295.3,730.3,290.8,730.5L290.8,730.5z"/>
	<path class="st0" d="M695.6,407.7c0.2,32.3-3.4,61.3-13.1,89.1c-22.3,64.2-65.8,105.6-133.7,116.9c-53.6,9-103.7-0.6-145.8-38
		c-25.1-22.3-41-50.5-50.6-82.3c-20.9-69.4-19.1-138.3,8.9-205.2c21.3-51,58.7-86.2,113.5-99.3c58.5-14,112-3.1,157,38.3
		c29.2,26.9,45.1,61.7,53.9,99.8C692,354.5,695.8,382.3,695.6,407.7z"/>
</g>
</svg>
