<svg id="Layer_1" data-name="Layer 1" xmlns="http://www.w3.org/2000/svg" viewBox="0 0 1024 1024"><defs><style>.cls-1{fill:#14539a;}.cls-2{fill:#fefefe;}</style></defs><path class="cls-1" d="M533.23,1023.93H487.65c-1.21-2.36-3.54-1.47-5.38-1.72-54.73-7.39-101.82-30.31-140.92-69.39Q205.18,816.71,69.07,680.54c-92-92.12-92-245.12.13-337.29q136.91-137,273.89-273.89c92.46-92.43,245.32-92.38,337.83.1q137,136.91,273.84,273.93c30.66,30.77,51.09,67.51,61.89,109.67,3.19,12.43,4.08,25.24,7.28,37.63v45.58c-2.37,1.21-1.48,3.55-1.72,5.4-7.14,53.07-28.53,99.56-66.28,137.58q-137.52,138.5-276,276c-30.58,30.45-67.21,50.62-109.11,61.36C558.42,1019.85,545.6,1020.68,533.23,1023.93ZM680.12,507.87c-1.8-92.2-78.92-165.75-172.06-164.08-92.19,1.66-165.79,78.66-164.27,171.86,1.5,92.42,79.16,166.5,172.43,164.47C608.53,678.12,681.92,601,680.12,507.87Z"/><path class="cls-2" d="M680.16,507.91C682,601,608.58,678.15,516.26,680.16c-93.26,2-170.92-72-172.43-164.47-1.52-93.2,72.08-170.2,164.27-171.86C601.24,342.15,678.37,415.7,680.16,507.91Z"/></svg>