<?xml version="1.0" encoding="utf-8"?>
<!-- Generator: Adobe Illustrator 26.0.1, SVG Export Plug-In . SVG Version: 6.00 Build 0)  -->
<svg version="1.1" id="Layer_1" xmlns="http://www.w3.org/2000/svg" xmlns:xlink="http://www.w3.org/1999/xlink" x="0px" y="0px"
	 viewBox="0 0 1024 1024" style="enable-background:new 0 0 1024 1024;" xml:space="preserve">
<style type="text/css">
	.st0{fill:#14539A;}
</style>
<path class="st0" d="M533.2,1023.9h-45.6c-1.2-2.4-3.5-1.5-5.4-1.7c-54.7-7.4-101.8-30.3-140.9-69.4
	c-90.8-90.7-181.5-181.5-272.3-272.3c-92-92.1-92-245.1,0.1-337.3c91.3-91.3,182.6-182.6,273.9-273.9
	c92.5-92.4,245.3-92.4,337.8,0.1c91.3,91.3,182.6,182.6,273.8,273.9c30.7,30.8,51.1,67.5,61.9,109.7c3.2,12.4,4.1,25.2,7.3,37.6
	v45.6c-2.4,1.2-1.5,3.5-1.7,5.4c-7.1,53.1-28.5,99.6-66.3,137.6c-91.7,92.3-183.7,184.3-276,276c-30.6,30.5-67.2,50.6-109.1,61.4
	C558.4,1019.8,545.6,1020.7,533.2,1023.9z M680.1,507.9c-1.8-92.2-78.9-165.8-172.1-164.1c-92.2,1.7-165.8,78.7-164.3,171.9
	c1.5,92.4,79.2,166.5,172.4,164.5C608.5,678.1,681.9,601,680.1,507.9z"/>
</svg>
