<svg id="Layer_1" data-name="Layer 1" xmlns="http://www.w3.org/2000/svg" xmlns:xlink="http://www.w3.org/1999/xlink" viewBox="0 0 1024 1024"><defs><style>.cls-1{fill:url(#radial-gradient);}.cls-2{fill:#14539a;}.cls-3{fill:#fff;}</style><radialGradient id="radial-gradient" cx="-4501.29" cy="-1945.55" r="511.9" gradientTransform="matrix(0, -1.98, -1.84, 0, -3315.4, -7818.76)" gradientUnits="userSpaceOnUse"><stop offset="0" stop-color="#d1d2ec"/><stop offset="0.1" stop-color="#d1d2ec"/><stop offset="0.5" stop-color="#6f72c5"/><stop offset="1" stop-color="#5659bb"/></radialGradient></defs><path class="cls-1" d="M512.17.14C298.41.14,235.9.36,223.74,1.37,179.88,5,152.58,11.92,122.84,26.73A204.36,204.36,0,0,0,64,69.79Q15.29,120.37,4.71,194.32C1.25,218.26.24,223.14,0,345.43,0,386.19,0,439.84,0,511.8,0,725.38.27,787.83,1.3,800c3.54,42.69,10.23,69.54,24.41,98.92,27.09,56.23,78.83,98.44,139.79,114.19,21.1,5.44,44.42,8.43,74.34,9.85,12.68.55,141.92.94,271.23.94s258.63-.16,271-.79c34.65-1.63,54.77-4.33,77-10.08A214.39,214.39,0,0,0,998.88,898.56c13.9-28.66,21-56.54,24.14-97,.69-8.82,1-149.45,1-289.89s-.31-280.84-1-289.66c-3.23-41.11-10.28-68.76-24.62-98-11.78-23.92-24.85-41.78-43.83-60-33.87-32.35-75.3-52-124.66-59.16C806,1.38,801.2.35,678.81.14Z"/><path class="cls-2" d="M512.17.14C298.41.14,235.9.36,223.74,1.37,179.88,5,152.58,11.92,122.84,26.73A204.36,204.36,0,0,0,64,69.79Q15.29,120.37,4.71,194.32C1.25,218.26.24,223.14,0,345.43,0,386.19,0,439.84,0,511.8,0,725.38.27,787.83,1.3,800c3.54,42.69,10.23,69.54,24.41,98.92,27.09,56.23,78.83,98.44,139.79,114.19,21.1,5.44,44.42,8.43,74.34,9.85,12.68.55,141.92.94,271.23.94s258.63-.16,271-.79c34.65-1.63,54.77-4.33,77-10.08A214.39,214.39,0,0,0,998.88,898.56c13.9-28.66,21-56.54,24.14-97,.69-8.82,1-149.45,1-289.89s-.31-280.84-1-289.66c-3.23-41.11-10.28-68.76-24.62-98-11.78-23.92-24.85-41.78-43.83-60-33.87-32.35-75.3-52-124.66-59.16C806,1.38,801.2.35,678.81.14Z"/><path class="cls-3" d="M511.93,134c-102.66,0-115.55.45-155.87,2.29s-67.71,8.21-91.75,17.56c-24.86,9.65-45.95,22.57-67,43.59s-33.95,42.1-43.63,67c-9.38,24-15.75,51.52-17.57,91.74s-2.27,53.22-2.27,155.88.45,115.51,2.28,155.83,8.22,67.72,17.56,91.75c9.67,24.87,22.58,46,43.6,67s42.1,34,66.94,43.63c24.06,9.35,51.53,15.72,91.77,17.56s53.2,2.28,155.85,2.28,115.52-.44,155.84-2.28,67.75-8.21,91.8-17.56c24.85-9.66,45.91-22.6,66.92-43.63s33.94-42.1,43.63-67c9.29-24,15.67-51.52,17.56-91.75s2.28-53.17,2.28-155.84-.47-115.55-2.28-155.87-8.27-67.71-17.56-91.75c-9.69-24.86-22.61-46-43.63-67s-42.06-33.94-66.94-43.59c-24.1-9.35-51.59-15.72-91.83-17.56S614.51,134,511.81,134ZM478,202.14h33.91c100.93,0,112.9.37,152.75,2.18,36.86,1.68,56.86,7.84,70.19,13,17.64,6.85,30.22,15,43.44,28.27s21.42,25.83,28.29,43.47c5.17,13.31,11.34,33.31,13,70.17,1.81,39.85,2.2,51.82,2.2,152.71s-.39,112.85-2.2,152.7c-1.69,36.86-7.85,56.86-13,70.17-6.85,17.64-15.06,30.2-28.29,43.43s-25.79,21.42-43.44,28.27c-13.31,5.2-33.33,11.34-70.19,13-39.85,1.81-51.82,2.2-152.75,2.2s-112.9-.39-152.75-2.2c-36.86-1.71-56.86-7.86-70.2-13-17.64-6.85-30.24-15-43.47-28.27s-21.42-25.8-28.29-43.45c-5.17-13.31-11.34-33.31-13-70.17-1.82-39.85-2.18-51.82-2.18-152.77s.36-112.85,2.18-152.7c1.68-36.86,7.84-56.86,13-70.19,6.86-17.64,15.06-30.24,28.29-43.47s25.83-21.42,43.47-28.29c13.33-5.2,33.34-11.34,70.2-13,34.87-1.58,48.39-2.05,118.84-2.13Zm235.7,62.77a45.36,45.36,0,1,0,45.36,45.35,45.36,45.36,0,0,0-45.36-45.35Zm-201.79,53C404.72,317.91,317.8,404.83,317.8,512s86.92,194.09,194.13,194.09S706,619.25,706,512s-86.9-194.13-194.11-194.13Zm0,68.13a126,126,0,1,1-126,126A126,126,0,0,1,511.93,386Z"/></svg>