<?xml version="1.0" encoding="utf-8"?>
<!-- Generator: Adobe Illustrator 26.0.1, SVG Export Plug-In . SVG Version: 6.00 Build 0)  -->
<svg version="1.1" id="Layer_1" xmlns="http://www.w3.org/2000/svg" xmlns:xlink="http://www.w3.org/1999/xlink" x="0px" y="0px"
	 viewBox="0 0 1024 1024" style="enable-background:new 0 0 1024 1024;" xml:space="preserve">
<style type="text/css">
	.st0{fill:url(#SVGID_1_);}
	.st1{fill:url(#SVGID_00000021839600785998111680000005655361565945622688_);}
	.st2{fill:#14539A;}
</style>
<radialGradient id="SVGID_1_" cx="368.7053" cy="451.0793" r="243.3068" gradientUnits="userSpaceOnUse">
	<stop  offset="0" style="stop-color:#D1D2EC"/>
	<stop  offset="0.1" style="stop-color:#D1D2EC"/>
	<stop  offset="0.5" style="stop-color:#6F72C5"/>
	<stop  offset="1" style="stop-color:#5659BB"/>
</radialGradient>
<path class="st0" d="M637.9,512c0,69.6-56.4,126-126,126s-126-56.4-126-126c0-69.6,56.4-126,126-126h0.1l0,0
	C581.5,386,637.9,442.5,637.9,512z"/>
<radialGradient id="SVGID_00000164511498245424878400000000696307027458450850_" cx="-69.9124" cy="264.4851" r="988.5619" gradientUnits="userSpaceOnUse">
	<stop  offset="0" style="stop-color:#D1D2EC"/>
	<stop  offset="0.1" style="stop-color:#D1D2EC"/>
	<stop  offset="0.5" style="stop-color:#6F72C5"/>
	<stop  offset="1" style="stop-color:#5659BB"/>
</radialGradient>
<path style="fill:url(#SVGID_00000164511498245424878400000000696307027458450850_);" d="M1023,222c-3.2-41.1-10.3-68.8-24.6-98
	c-11.8-23.9-24.9-41.8-43.8-60c-33.9-32.4-75.3-52-124.7-59.2C806,1.4,801.2,0.3,678.8,0.1H512.2c-213.8,0-276.3,0.2-288.4,1.2
	C179.9,5,152.6,11.9,122.8,26.7c-22,10.7-42,25.3-58.8,43.1C31.5,103.5,11.8,145,4.7,194.3C1.2,218.3,0.2,223.1,0,345.4v166.4
	c0,213.6,0.3,276,1.3,288.2c3.5,42.7,10.2,69.5,24.4,98.9c27.1,56.2,78.8,98.4,139.8,114.2c21.1,5.4,44.4,8.4,74.3,9.9
	c12.7,0.5,141.9,0.9,271.2,0.9s258.6-0.2,271-0.8c34.6-1.6,54.8-4.3,77-10.1c61.2-15.7,112.3-57.6,139.8-114.5
	c13.9-28.7,21-56.5,24.1-97c0.7-8.8,1-149.5,1-289.9S1023.7,230.8,1023,222z M887.6,667.9c-1.9,40.2-8.3,67.8-17.6,91.8
	c-9.7,24.9-22.6,46-43.6,67c-21,21-42.1,34-66.9,43.6c-24,9.3-51.5,15.7-91.8,17.6c-40.3,1.8-53.2,2.3-155.8,2.3
	s-115.6-0.4-155.9-2.3c-40.2-1.8-67.7-8.2-91.8-17.6c-24.8-9.6-45.9-22.6-66.9-43.6c-21-21-33.9-42.1-43.6-67
	c-9.3-24-15.7-51.4-17.6-91.8s-2.3-53.2-2.3-155.8s0.4-115.7,2.3-155.9c1.8-40.2,8.2-67.7,17.6-91.7c9.7-24.9,22.6-46,43.6-67
	s42.1-33.9,67-43.6c24-9.3,51.4-15.7,91.8-17.6c40.3-1.8,53.2-2.3,155.8-2.3c102.6,0,115.5,0.4,155.8,2.3
	c40.2,1.8,67.7,8.2,91.8,17.6c24.9,9.6,45.9,22.6,66.9,43.6c21,21,33.9,42.1,43.6,67c9.3,24,15.8,51.4,17.6,91.8s2.3,53.2,2.3,155.9
	S889.5,627.7,887.6,667.9z M806.6,289.1c-6.9-17.6-15.1-30.2-28.3-43.5c-13.2-13.3-25.8-21.4-43.4-28.3c-13.3-5.2-33.3-11.3-70.2-13
	c-39.8-1.8-51.8-2.2-152.8-2.2H478v-0.1c-70.5,0.1-84,0.5-118.8,2.1c-36.9,1.7-56.9,7.8-70.2,13c-17.6,6.9-30.2,15.1-43.5,28.3
	s-21.4,25.8-28.3,43.5c-5.2,13.3-11.3,33.3-13,70.2c-1.8,39.8-2.2,51.8-2.2,152.7s0.4,112.9,2.2,152.8c1.7,36.9,7.8,56.9,13,70.2
	c6.9,17.7,15.1,30.2,28.3,43.5s25.8,21.4,43.5,28.3c13.3,5.1,33.3,11.3,70.2,13c39.9,1.8,51.8,2.2,152.8,2.2s112.9-0.4,152.8-2.2
	c36.9-1.7,56.9-7.8,70.2-13c17.7-6.9,30.2-15,43.4-28.3c13.2-13.2,21.4-25.8,28.3-43.4c5.1-13.3,11.3-33.3,13-70.2
	c1.8-39.9,2.2-51.8,2.2-152.7s-0.4-112.9-2.2-152.7C817.9,322.4,811.8,302.4,806.6,289.1z M511.9,706.1
	c-107.2,0-194.1-86.9-194.1-194.1s86.9-194.1,194.1-194.1l0,0C619.1,317.9,706,404.8,706,512S619.1,706.1,511.9,706.1z M759.1,310.3
	c0,25-20.3,45.4-45.4,45.4s-45.4-20.3-45.4-45.4c0-25.1,20.3-45.4,45.4-45.4S759,285.2,759.1,310.3L759.1,310.3z"/>
<path class="st2" d="M637.9,512c0,69.6-56.4,126-126,126s-126-56.4-126-126c0-69.6,56.4-126,126-126h0.1l0,0
	C581.5,386,637.9,442.5,637.9,512z"/>
<path class="st2" d="M1023,222c-3.2-41.1-10.3-68.8-24.6-98c-11.8-23.9-24.9-41.8-43.8-60c-33.9-32.4-75.3-52-124.7-59.2
	C806,1.4,801.2,0.3,678.8,0.1H512.2c-213.8,0-276.3,0.2-288.4,1.2C179.9,5,152.6,11.9,122.8,26.7c-22,10.7-42,25.3-58.8,43.1
	C31.5,103.5,11.8,145,4.7,194.3C1.2,218.3,0.2,223.1,0,345.4v166.4c0,213.6,0.3,276,1.3,288.2c3.5,42.7,10.2,69.5,24.4,98.9
	c27.1,56.2,78.8,98.4,139.8,114.2c21.1,5.4,44.4,8.4,74.3,9.9c12.7,0.5,141.9,0.9,271.2,0.9s258.6-0.2,271-0.8
	c34.6-1.6,54.8-4.3,77-10.1c61.2-15.7,112.3-57.6,139.8-114.5c13.9-28.7,21-56.5,24.1-97c0.7-8.8,1-149.5,1-289.9
	S1023.7,230.8,1023,222z M887.6,667.9c-1.9,40.2-8.3,67.8-17.6,91.8c-9.7,24.9-22.6,46-43.6,67c-21,21-42.1,34-66.9,43.6
	c-24,9.3-51.5,15.7-91.8,17.6c-40.3,1.8-53.2,2.3-155.8,2.3s-115.6-0.4-155.9-2.3c-40.2-1.8-67.7-8.2-91.8-17.6
	c-24.8-9.6-45.9-22.6-66.9-43.6c-21-21-33.9-42.1-43.6-67c-9.3-24-15.7-51.4-17.6-91.8s-2.3-53.2-2.3-155.8s0.4-115.7,2.3-155.9
	c1.8-40.2,8.2-67.7,17.6-91.7c9.7-24.9,22.6-46,43.6-67s42.1-33.9,67-43.6c24-9.3,51.4-15.7,91.8-17.6c40.3-1.8,53.2-2.3,155.8-2.3
	c102.6,0,115.5,0.4,155.8,2.3c40.2,1.8,67.7,8.2,91.8,17.6c24.9,9.6,45.9,22.6,66.9,43.6c21,21,33.9,42.1,43.6,67
	c9.3,24,15.8,51.4,17.6,91.8s2.3,53.2,2.3,155.9S889.5,627.7,887.6,667.9z M806.6,289.1c-6.9-17.6-15.1-30.2-28.3-43.5
	c-13.2-13.3-25.8-21.4-43.4-28.3c-13.3-5.2-33.3-11.3-70.2-13c-39.8-1.8-51.8-2.2-152.8-2.2H478v-0.1c-70.5,0.1-84,0.5-118.8,2.1
	c-36.9,1.7-56.9,7.8-70.2,13c-17.6,6.9-30.2,15.1-43.5,28.3s-21.4,25.8-28.3,43.5c-5.2,13.3-11.3,33.3-13,70.2
	c-1.8,39.8-2.2,51.8-2.2,152.7s0.4,112.9,2.2,152.8c1.7,36.9,7.8,56.9,13,70.2c6.9,17.7,15.1,30.2,28.3,43.5s25.8,21.4,43.5,28.3
	c13.3,5.1,33.3,11.3,70.2,13c39.9,1.8,51.8,2.2,152.8,2.2s112.9-0.4,152.8-2.2c36.9-1.7,56.9-7.8,70.2-13
	c17.7-6.9,30.2-15,43.4-28.3c13.2-13.2,21.4-25.8,28.3-43.4c5.1-13.3,11.3-33.3,13-70.2c1.8-39.9,2.2-51.8,2.2-152.7
	s-0.4-112.9-2.2-152.7C817.9,322.4,811.8,302.4,806.6,289.1z M511.9,706.1c-107.2,0-194.1-86.9-194.1-194.1s86.9-194.1,194.1-194.1
	l0,0C619.1,317.9,706,404.8,706,512S619.1,706.1,511.9,706.1z M759.1,310.3c0,25-20.3,45.4-45.4,45.4s-45.4-20.3-45.4-45.4
	c0-25.1,20.3-45.4,45.4-45.4S759,285.2,759.1,310.3L759.1,310.3z"/>
</svg>
