<?xml version="1.0" encoding="utf-8"?>
<!-- Generator: Adobe Illustrator 27.3.1, SVG Export Plug-In . SVG Version: 6.00 Build 0)  -->
<svg version="1.1" id="Layer_1" xmlns="http://www.w3.org/2000/svg" xmlns:xlink="http://www.w3.org/1999/xlink" x="0px" y="0px"
	 viewBox="0 0 1024 1024" style="enable-background:new 0 0 1024 1024;" xml:space="preserve">
<style type="text/css">
	.st0{fill:#1FBEFF;}
	.st1{fill:#1BBDFE;}
	.st2{fill:#14539A;}
</style>
<g>
	<path class="st0" d="M412.2,947.1c-28.2,0.1-56.5,0.2-84.7,0.2c-1,0-2-0.5-3-0.8c28.2,0,56.5-0.1,84.7-0.1
		C410.2,946.4,411.3,946.3,412.2,947.1z"/>
	<path class="st0" d="M333.5,76.9c-3.3,1.6-6.7,0.6-10,0.7C326.7,75.9,330.1,76.7,333.5,76.9z"/>
	<path class="st0" d="M346.5,76.8c-1.8,1.2-3.5,1.2-5.3,0H346.5z"/>
	<path class="st0" d="M413.3,76.8c-1,1.1-2.1,1.1-3.1,0H413.3z"/>
	<path class="st1" d="M662.4,522.8c-0.2,0.8-0.1,1.7-1.3,1.9C661.3,523.9,661.5,523.1,662.4,522.8z"/>
	<path class="st0" d="M393.9,76.8c-0.3,0.5-0.7,0.5-1,0C393.2,76.7,393.6,76.7,393.9,76.8z"/>
	<path class="st0" d="M389.6,76.8c-0.3,0.5-0.7,0.5-1,0C388.9,76.7,389.3,76.7,389.6,76.8z"/>
	<path class="st0" d="M385.3,76.8c-0.3,0.5-0.7,0.5-1,0C384.6,76.7,385,76.7,385.3,76.8z"/>
	<path class="st0" d="M398.2,76.8c-0.4,0.5-0.7,0.5-1,0C397.6,76.7,397.9,76.7,398.2,76.8z"/>
	<path class="st0" d="M402.5,76.9c-0.4,0.5-0.7,0.5-1,0C401.9,76.7,402.2,76.7,402.5,76.9z"/>
	<path class="st0" d="M406.9,76.9c-0.4,0.5-0.7,0.5-1,0C406.2,76.7,406.5,76.7,406.9,76.9z"/>
	<path class="st0" d="M381,76.8c-0.3,0.5-0.7,0.5-1,0C380.3,76.7,380.6,76.7,381,76.8z"/>
	<path class="st0" d="M376.7,76.8c-0.3,0.5-0.7,0.5-1,0C376,76.7,376.3,76.7,376.7,76.8z"/>
	<path class="st0" d="M372.4,76.8c-0.3,0.5-0.7,0.5-1,0C371.7,76.7,372,76.7,372.4,76.8z"/>
	<path class="st0" d="M368,76.8c-0.3,0.5-0.7,0.5-1,0C367.4,76.7,367.7,76.7,368,76.8z"/>
	<path class="st0" d="M363.7,76.8c-0.3,0.5-0.7,0.5-1,0C363.1,76.7,363.4,76.7,363.7,76.8z"/>
	<path class="st0" d="M359.4,76.8c-0.3,0.5-0.7,0.5-1,0C358.8,76.7,359.1,76.7,359.4,76.8z"/>
	<path class="st0" d="M355.1,76.8c-0.3,0.5-0.7,0.5-1,0C354.5,76.7,354.8,76.7,355.1,76.8z"/>
	<path class="st0" d="M350.8,76.8c-0.3,0.5-0.7,0.5-1,0C350.1,76.7,350.5,76.7,350.8,76.8z"/>
	<path class="st0" d="M337.9,76.9c-0.3,0.5-0.7,0.5-1,0C337.2,76.7,337.5,76.7,337.9,76.9z"/>
	<path class="st0" d="M416.5,947.1l-0.5,0.1l-0.5-0.1C415.9,946.7,416.2,946.6,416.5,947.1z"/>
</g>
<path class="st2" d="M780.5,0h-537C109,0,0,109,0,243.5v537C0,915,109,1024,243.5,1024h537C915,1024,1024,915,1024,780.5v-537
	C1024,109,915,0,780.5,0z M712.2,884.2c-28.6,0.1-57.3-0.5-85.9,0.3c-12.5,0.3-20.6-4.3-28.1-13.9c-49.6-63.7-99.6-127-149.5-190.5
	c-2.1-2.7-4.4-5.3-6.9-8.4c-14.6,14-28.8,27.2-42.6,40.9c-2,2-2.5,6.3-2.5,9.6c-0.2,48.9-0.1,97.8-0.1,146.6
	c0,12.8-2.4,15.2-14.9,15.3c-22.4,0-44.8,0.1-67.2,0c-11.6,0-14.4-2.8-14.4-14.3c0-238.7,0-477.4,0-716.1c0-11.1,2.8-14,13.8-14
	c22.7,0,45.4,0,68,0c12.2,0,14.7,2.5,14.7,14.6c0,143.1,0,286.2,0,429.4V596c4.2-3.9,6.9-6.3,9.5-8.8
	c59.8-60.5,119.8-120.8,179.4-181.5c8.1-8.3,16.6-12.4,28.5-12.1c29.2,0.7,58.3,0.2,87.5,0.2c4.9,0,10.2-0.5,12.4,5.2
	c2.3,5.7-1,9.5-4.9,13.3C645,474,581.2,535.8,517.3,597.6c-2.5,2.4-5.3,4.6-8.3,7.2c7.5,9.4,14.1,17.8,20.9,26.2
	c62.4,77.6,124.9,155.2,187.4,232.8c1.4,1.7,2.9,3.3,3.9,5.2C726.7,879.5,724,884.2,712.2,884.2z"/>
</svg>
