<svg id="Layer_1" data-name="Layer 1" xmlns="http://www.w3.org/2000/svg" viewBox="0 0 1024 1024"><defs><style>.cls-1{fill:#14539a;}.cls-1,.cls-2{fill-rule:evenodd;}.cls-2{fill:#fff;}</style></defs><path class="cls-1" d="M174.6,1024H849.4A174.6,174.6,0,0,0,1024,849.4V174.6A174.6,174.6,0,0,0,849.4,0H174.6A174.6,174.6,0,0,0,0,174.6V849.4A174.6,174.6,0,0,0,174.6,1024Z"/><path class="cls-2" d="M881.78,881.78h-152V623c0-71-27-110.61-83.13-110.61-61.1,0-93,41.27-93,110.61V881.78H407.23v-493H553.67v66.41s44-81.47,148.66-81.47,179.45,63.86,179.45,195.94ZM232.52,324.18c-49.88,0-90.3-40.74-90.3-91s40.42-91,90.3-91,90.28,40.74,90.28,91S282.41,324.18,232.52,324.18Zm-75.61,557.6h152.7v-493H156.91Z"/></svg>