<?xml version="1.0" encoding="utf-8"?>
<!-- Generator: Adobe Illustrator 26.0.1, SVG Export Plug-In . SVG Version: 6.00 Build 0)  -->
<svg version="1.1" id="Layer_1" xmlns="http://www.w3.org/2000/svg" xmlns:xlink="http://www.w3.org/1999/xlink" x="0px" y="0px"
	 viewBox="0 0 1024 1024" style="enable-background:new 0 0 1024 1024;" xml:space="preserve">
<style type="text/css">
	.st0{fill-rule:evenodd;clip-rule:evenodd;fill:#14539A;}
</style>
<path class="st0" d="M849.4,0H174.6C78.2,0,0,78.2,0,174.6v674.8C0,945.8,78.2,1024,174.6,1024h674.8c96.4,0,174.6-78.2,174.6-174.6
	V174.6C1024,78.2,945.8,0,849.4,0z M309.6,881.8H156.9v-493h152.7V881.8z M232.5,324.2c-49.9,0-90.3-40.7-90.3-91s40.4-91,90.3-91
	s90.3,40.7,90.3,91S282.4,324.2,232.5,324.2z M881.8,881.8h-152V623c0-71-27-110.6-83.1-110.6c-61.1,0-93,41.3-93,110.6v258.8H407.2
	v-493h146.4v66.4c0,0,44-81.5,148.7-81.5s179.5,63.9,179.5,195.9V881.8z"/>
</svg>
