<svg id="Layer_1" data-name="Layer 1" xmlns="http://www.w3.org/2000/svg" viewBox="0 0 1024 1024"><defs><style>.cls-1{fill:#14539a;}.cls-2{fill:#fff;}</style></defs><path class="cls-1" d="M512.07.07C795.16.13,1024.32,229.55,1024,512.56c-.32,282.56-229.55,511.47-512.09,511.37C228.86,1023.84-.28,794.42,0,511.4.28,228.84,229.44,0,512.07.07Zm51.44,513c1.25-124.93-99.86-227.66-225.45-229-123.19-1.36-226.2,100.52-227.41,224.92C109.41,636,209.28,738.41,335.94,740,459.76,741.53,562.25,639.32,563.51,513.05Zm248.1-.46c.24-34-3.65-67.42-12.85-100.1-9.59-34.09-23-66.4-49-91.73-32-31.22-70.08-31.17-102.31-.17-16.68,16-28.6,35.43-36.89,56.75-32.23,82.89-33.26,166.89-6.76,251.34,9.1,29,23,55.62,45.74,76.62,30.77,28.44,67.08,28.38,97.93.14,15.54-14.23,26.73-31.59,35.45-50.56C803.69,609.72,811.37,561.89,811.61,512.59Zm102.3-18.89c-1.8-20.35-4.47-59.32-8.95-98.09-2.67-23.15-7.15-46.35-19.56-66.79-7.34-12.11-17.2-12.38-23.58.15C855.67,341,850.31,354,847.64,367.23c-18.52,91.39-18.63,183.2-2.87,274.93,3,17.51,9.07,34.86,16.25,51.18,6.61,15,17.55,14.61,25.4,0a129.43,129.43,0,0,0,10.85-27.86C910.6,615.33,912.67,563.94,913.91,493.7Z"/><path class="cls-2" d="M563.51,513.05C562.25,639.32,459.76,741.53,335.94,740c-126.66-1.58-226.53-104-225.29-231.07C111.86,384.52,214.87,282.64,338.06,284,463.65,285.39,564.76,388.12,563.51,513.05Z"/><path class="cls-2" d="M811.61,512.59c-.24,49.3-7.92,97.13-28.67,142.29-8.72,19-19.91,36.33-35.45,50.56-30.85,28.24-67.16,28.3-97.93-.14-22.72-21-36.64-47.63-45.74-76.62-26.5-84.45-25.47-168.45,6.76-251.34,8.29-21.32,20.21-40.71,36.89-56.75,32.23-31,70.3-31,102.31.17,26,25.33,39.39,57.64,49,91.73C808,445.17,811.85,478.64,811.61,512.59Z"/><path class="cls-2" d="M913.91,493.7c-1.24,70.24-3.31,121.63-16.64,171.76a129.43,129.43,0,0,1-10.85,27.86c-7.85,14.63-18.79,15-25.4,0-7.18-16.32-13.24-33.67-16.25-51.18-15.76-91.73-15.65-183.54,2.87-274.93,2.67-13.2,8-26.2,14.18-38.26,6.38-12.53,16.24-12.26,23.58-.15,12.41,20.44,16.89,43.64,19.56,66.79C909.44,434.38,912.11,473.35,913.91,493.7Z"/></svg>