<?xml version="1.0" encoding="utf-8"?>
<!-- Generator: Adobe Illustrator 26.0.1, SVG Export Plug-In . SVG Version: 6.00 Build 0)  -->
<svg version="1.1" id="Layer_1" xmlns="http://www.w3.org/2000/svg" xmlns:xlink="http://www.w3.org/1999/xlink" x="0px" y="0px"
	 viewBox="0 0 1024 1024" style="enable-background:new 0 0 1024 1024;" xml:space="preserve">
<style type="text/css">
	.st0{fill:#14539A;}
</style>
<path class="st0" d="M512.1,0.1c283.1,0.1,512.2,229.5,511.9,512.5c-0.3,282.6-229.5,511.5-512.1,511.4
	C228.9,1023.8-0.3,794.4,0,511.4C0.3,228.8,229.4,0,512.1,0.1z M563.5,513.1c1.2-124.9-99.9-227.7-225.5-229
	C214.9,282.7,111.9,384.6,110.6,509c-1.2,127,98.6,229.4,225.3,231C459.8,741.5,562.2,639.3,563.5,513.1L563.5,513.1z M811.6,512.6
	c0.2-34-3.7-67.4-12.8-100.1c-9.6-34.1-23-66.4-49-91.7c-32-31.2-70.1-31.2-102.3-0.2c-16.7,16-28.6,35.4-36.9,56.8
	c-32.2,82.9-33.3,166.9-6.8,251.3c9.1,29,23,55.6,45.7,76.6c30.8,28.4,67.1,28.4,97.9,0.1c15.5-14.2,26.7-31.6,35.5-50.6
	C803.7,609.7,811.4,561.9,811.6,512.6L811.6,512.6z M913.9,493.7c-1.8-20.4-4.5-59.3-9-98.1c-2.7-23.1-7.2-46.4-19.6-66.8
	c-7.3-12.1-17.2-12.4-23.6,0.1c-6.1,12-11.5,25-14.2,38.2c-18.5,91.4-18.6,183.2-2.9,274.9c3,17.5,9.1,34.9,16.2,51.2
	c6.6,15,17.5,14.6,25.4,0c4.7-8.8,8.3-18.2,10.8-27.9C910.6,615.3,912.7,563.9,913.9,493.7L913.9,493.7z"/>
</svg>
