<svg id="Layer_1" data-name="Layer 1" xmlns="http://www.w3.org/2000/svg" viewBox="0 0 1024 1024"><defs><style>.cls-1{fill:#14539a;}</style></defs><path class="cls-1" d="M44.17,535.08c.63-71.44,4.54-142.25,22.35-211.71,19.38-75.59,52.47-143.66,108.86-199C214.52,86,260.84,59.16,312.05,40.62c107.1-38.79,217.34-48.46,330-34.69,46,5.62,91.32,14.46,134.31,31.68,83,33.24,146.68,88.17,182.93,171.46,22,50.67,25.11,103.63,14.94,157.48-16.38,86.78-62.88,153.07-137.49,199.82-36.68,23-77.23,36-119,46.12-35,8.47-69.4,19-101.58,35.72-49,25.4-84.67,64.07-108.95,113C486.05,804,466.7,847.56,446,890.49c-15,31.16-33.2,60.33-57.14,85.68C327,1041.72,224.22,1037,165.4,979.55c-29.93-29.24-49.89-64.58-65.29-102.86-24.18-60.11-36.94-123.07-43.86-187.1C50.7,638.25,48.09,586.59,44.17,535.08Z"/></svg>