<svg id="Layer_1" data-name="Layer 1" xmlns="http://www.w3.org/2000/svg" viewBox="0 0 1024 1024"><defs><style>.cls-1{fill:#14539a;}</style></defs><path class="cls-1" d="M512,1024C229.39,1024.4.83,795.88.13,512.16-.58,229.86,227.63,1.48,511.91,0c281.37-1.47,511.7,228.87,512,512C1024.14,794.79,795.41,1023.6,512,1024Zm-34.8-767.89c-50.13,0-92.46.13-134.79-.13-6.79,0-10,.79-10,9q.38,247,0,494c0,8,3,9.18,9.93,9.1,27-.33,54.08-.52,81.11.08,9.08.21,12-1.71,11.9-11.5-.61-43.74,0-87.5-.47-131.24-.1-8.91,2.45-11.2,11.21-11.13,45.88.37,91.81,1.24,137.65-.23C695,610.5,773.14,515.91,756.74,406c-11.91-79.81-81.92-144.19-162.47-149C552.7,254.61,511.05,256.86,477.24,256.11Z"/><path class="cls-1" d="M515.72,512c-23.83,0-47.67-.23-71.5.14-6.72.1-9.28-1.39-9.22-8.72q.48-68.28,0-136.58c-.05-7.29,2.35-8.76,9.17-8.71,44.47.3,88.94-.08,133.4.22,32.81.22,58.05,14.6,72,44.44s9.21,58.47-12.2,83.54c-13.8,16.15-32,24.82-53.34,25.39-22.75.6-45.53.13-68.3.13Z"/></svg>