<svg id="Layer_1" data-name="Layer 1" xmlns="http://www.w3.org/2000/svg" viewBox="0 0 1024 1024"><defs><style>.cls-1{fill:#14539a;}.cls-2{fill:#fe865a;}.cls-3{fill:#fefefe;}.cls-4{fill:#c8d4dc;}.cls-5{fill:#fafcfc;}.cls-6{fill:#f5f9fa;}.cls-7{fill:#f7f9fa;}.cls-8{fill:#fcfdfd;}.cls-9{fill:#cad7df;}.cls-10{fill:#ced7de;}.cls-11{fill:#edf3f5;}.cls-12{fill:#e8eff1;}.cls-13{fill:#cedbe1;}.cls-14{fill:#c9d5dd;}.cls-15{fill:#e3dfe5;}.cls-16{fill:#e3ecef;}.cls-17{fill:#e9f0f2;}.cls-18{fill:#cdd9e0;}.cls-19{fill:#d3d9e0;}.cls-20{fill:#eaf1f3;}.cls-21{fill:#dde8eb;}.cls-22{fill:#d8e3e7;}.cls-23{fill:#f4f8f9;}.cls-24{fill:#d7d9df;}.cls-25{fill:#e7eff1;}.cls-26{fill:#e6eef0;}.cls-27{fill:#ece2e7;}.cls-28{fill:#cbd6dd;}.cls-29{fill:#eff4f6;}.cls-30{fill:#e0eaec;}.cls-31{fill:#e2ebee;}.cls-32{fill:#cad6dd;}.cls-33{fill:#dae5e9;}.cls-34{fill:#172428;}.cls-35{fill:#d5e0e5;}.cls-36{fill:#e7eff0;}.cls-37{fill:#e0e9ec;}.cls-38{fill:#f5e4e8;}.cls-39{fill:#f1f5f6;}.cls-40{fill:#d2dde2;}.cls-41{fill:#e8eef0;}.cls-42{fill:#2e4249;}.cls-43{fill:#30454b;}.cls-44{fill:#f2f6f7;}.cls-45{fill:#192b30;}.cls-46{fill:#d0d8dd;}.cls-47{fill:#dbe5e9;}.cls-48{fill:#19292d;}.cls-49{fill:#ddd9df;}.cls-50{fill:#d0d7de;}.cls-51{fill:#f5f8f9;}.cls-52{fill:#414d50;}.cls-53{fill:#dbe6ea;}.cls-54{fill:#1b272b;}.cls-55{fill:#d1d3d7;}.cls-56{fill:#e0eaed;}.cls-57{fill:#05090a;}.cls-58{fill:#112126;}.cls-59{fill:#172b32;}.cls-60{fill:#f3f7f8;}.cls-61{fill:#f7fafb;}.cls-62{fill:#b4c7d1;}.cls-63{fill:#f0f5f6;}.cls-64{fill:#f5f6f7;}.cls-65{fill:#eff5f6;}.cls-66{fill:#fbfbfb;}.cls-67{fill:#d3dfe4;}.cls-68{fill:#e1eaed;}.cls-69{fill:#d4e0e5;}.cls-70{fill:#d0dde2;}.cls-71{fill:#e2ecee;}.cls-72{fill:#d8e4e8;}.cls-73{fill:#dee8eb;}.cls-74{fill:#f1f6f7;}.cls-75{fill:#f4f7f8;}.cls-76{fill:#030708;}.cls-77{fill:#030506;}.cls-78{fill:#050608;}.cls-79{fill:#060808;}.cls-80{fill:#091215;}.cls-81{fill:#060b0d;}.cls-82{fill:#070e10;}.cls-83{fill:#0c171b;}.cls-84{fill:#0d1a1e;}.cls-85{fill:#101f24;}.cls-86{fill:#122227;}.cls-87{fill:#192b31;}.cls-88{fill:#e6e6e6;}</style></defs><path class="cls-1" d="M3.92,544.44v-61c1.59-1.7,1.59-3.39,0-5.09V465.59c3.31-17,2.12-34.43,5.72-51.39C31,313.83,76.32,226.62,149,153.48q117.3-118,280.82-145.11C470.84,1.62,512.48,4,554,4.85c45.58,1,89,11.3,131.38,26.71C752.65,56,812.51,92.48,864.77,142c54.84,52,95.77,113,124.13,182.51,22.77,55.85,34.35,114.05,33.77,174.72-.47,48.78-.81,97.32-14.15,144.87-24.4,87-66.52,163.37-130.21,228.09-78.47,79.73-172.65,128.33-282.47,147.45-19.24,3.35-38.77,4-58.17,4-152.15.28-304.29.08-456.43.27-14.94,0-28.09-1.91-34.54-17.66-6.59-16.08-2.35-30,9.23-41.94C81.65,937.9,108,912.11,134,886c13.33-13.4,13-13.14-.06-27.09-45.8-49-78.83-105.81-102.52-168.24A428.78,428.78,0,0,1,3.92,562.24V549.52A3.3,3.3,0,0,0,3.92,544.44Z"/><path class="cls-2" d="M3.92,544.44c2.69,1.69,3,3.39,0,5.08Z"/><path class="cls-2" d="M3.92,478.31c3,1.7,2.69,3.39,0,5.09Z"/><path class="cls-3" d="M530.67,344.24c68.09,3.66,132.82,19.34,191.82,54.64,6.79,4.07,10.08.15,14.43-2.58,57.11-35.8,131.49-18.29,166,39.19,1.7,2.84,2.74,6.07,4.1,9.12-.12,11.65-7.15,20.52-13.62,28.77-13.67,17.42-32.79,27.17-53.7,33.75-9.34,2.94-14.08-2.73-19.13-8.65-9.07-10.65-8.47-10.08-16.73,0-11.13,13.61-19,29.91-34.51,40-8.93,5.82-19,9-28,14.66-3.88,2.47-8.2.76-11.42-2.71-5.79-10.2-9.34-21.5-17.06-30.81-19-23-59.68-30.35-80.89-.5a51.77,51.77,0,0,0-5.76,9.15c-5.07,9.15-9,18.62-8.78,29.36-1.34,6.62-3.49,13.2-.68,20,1.47,5.47.26,11.3,2.35,16.69,1.27,6.94,4.91,13.08,6.64,19.88a8,8,0,0,1-1.3,3.84c-5.89,7.39-14.22,6.77-22.16,6.17-7.48-.56-14.12.38-20.34,4.92a26.73,26.73,0,0,1-15.42,5.23c-28.69.43-57.36,5.36-86,2.54-22.5-2.22-44.4-8.67-66.49-13.59a18.16,18.16,0,0,1-12.19-8.47c-2.28-6.51.88-12,3.21-17.71,3-6.38,4-13.22,4.58-20.14.15-6.21.92-12.44-1-18.54a26.7,26.7,0,0,1-.83-3.62c-1.59-15.1-9.35-27.39-18-39.28-21.67-23.49-58.24-20.55-78.3,6-10.25,13.56-14.25,29.55-19.11,45.27-8.82,3.75-14.32-3-20.09-7.14-9.15-6.59-19.18-13-27-20.12-7.33-6.74-17.5-16-17.37-29.21.09-9.71-10.39-9.71-15.24-15-3.5-3.84-7,2.36-9.42,5.5-9.34,11.9-16.89,13.78-30.38,5.65-24.56-14.8-47.2-31.59-55.18-61.41,16.14-41.23,65.05-70,113.71-67a116.77,116.77,0,0,1,58.2,19.34c4.41,2.91,7.56,5,13.35,1.53,58.29-34.57,122-50.81,189.21-54.3,3.43.08,5.28,3,7.95,4.39a25.94,25.94,0,0,0,5.64,2.25c1,.22,2,.51,3.07.8,3.24,1.07,6.36.46,9.42-.67,1-.42,2-.77,3-1.12C525,349,527,345.24,530.67,344.24Z"/><path class="cls-4" d="M794.24,740.15a228.55,228.55,0,0,1-60.44,50.9c-21.09,5.68-42,12.08-63.87,14.55-7.93.9-15.64,3.56-23.8,2.53a12.13,12.13,0,0,0-6.28.45c-17.45,7.62-36.1,5.56-54.33,7.26-32.66,3-65.39,1.61-98,1.36-36.44-.27-73.85-.8-108.82-9.41-32.46-8-66.8-9.41-97.62-24.09A202.2,202.2,0,0,1,229.75,738c5.23-8.27,12.64-5,19.31-3.16a140.28,140.28,0,0,1,17.83,6.35c37.67,15.84,77,24.46,117.15,31.49,37.56,6.58,75,11.93,113.11,12.21,11.84.09,23.46-4.39,35.4-1.54,15.51,3.42,31.22,2,46.8,1.29,30.78-1.3,60.9-8.26,91.17-13.16a495.65,495.65,0,0,0,111.76-31.92C786.37,737.82,790.56,734.14,794.24,740.15Z"/><path class="cls-3" d="M616.52,207.73c7.62-36.94,37.33-62.75,76.17-66.17,34.78-3.06,69.22,17.63,81.9,49.2,1.89,6.93-1.39,11.82-5.86,16.71-13.84,15.15-32,20.6-51.08,26-25.74,7.27-47.22-2.48-69.41-11.8a16.28,16.28,0,0,1-3.44-1.38,13.51,13.51,0,0,1-2.75-2.36c-4.35-5.72-10-8.1-17.23-7.26C621.74,211,618.07,212.1,616.52,207.73Z"/><path class="cls-5" d="M117.85,445.05c6.48,2.34,7.89,8.34,9.93,13.86,9.5,25.76,33.57,35.48,54.48,48.16,5.93,3.6,13.94,2.11,18-7.65,5-12,9.64-12,18.37-3,1.57,1.61,4.57,1.73,6.78,2.81,6.91,3.37,7.54,5.59,4.19,14a10.25,10.25,0,0,1-.68,1c4.3,4,8.61,7.91,13,11.77,3.63,3.2-4,12.35,7.74,12.11,8.49-.17,13.61,9.3,19.74,14.61,6.8,5.9,14.33,10,21.74,14.62,5.22,12.49,7.46,25.69,9.38,39-6,7.25-13.08,5-19.14,1.1-27.33-17.64-53.7-36.6-77.42-59-4-3.77-8.62-7.17-11.36-11.89-4.93-8.48-13.24-11-21.47-14.5-27.7-11.73-49.19-30.09-60.28-58.93C111.24,456.3,114,450.48,117.85,445.05Z"/><path class="cls-6" d="M110.87,463.07c9.29,9,14.31,21,24,30.32,14,13.38,28.65,24,47.07,29.27a15,15,0,0,1,8.22,5.07c22.53,27.48,50.17,49.08,80.11,67.73,8.95,5.57,16.57,15.59,29.42,12.3,9,2.46,12.54,12.89,21.82,14.94,5.52,3.15,11.75,4.47,17.6,6.83a13.18,13.18,0,0,1,2.53,2.53c9.09,6.39,19.29,11,30,12.43,16,2.09,29.66,11.94,46,12.77,4.68.24,6,4.16,3,8.43-8.64,6.8-18.74,3.73-28.3,4.27-71.42-15.82-136-46-192.07-93.22-7.66-6.46-16-12.56-22-20.93a11.15,11.15,0,0,1-1-5.55,51.78,51.78,0,0,0,1.27-10.68c-.62-8.31-7.68-7.56-13-9.37-26.87-9.14-46.59-26.27-58.12-52.43a2.44,2.44,0,0,1,.52-2.34C107.8,471.05,108.16,466.79,110.87,463.07Z"/><path class="cls-7" d="M914.69,470.56c2.56.73,2.8,2.61,2.4,4.81,2.24,10.47-6.16,15.58-11.43,22.14-2.84,3.53-7.48,5.39-9.81,9.57a17.49,17.49,0,0,1-4.13,3.54c-11.81,6.37-24.85,10.08-36.55,16.63-4,2.23-10.19,3.18-9.3,10.16a72.2,72.2,0,0,0,2.28,10.42,15,15,0,0,1-.78,9.31c-21.78,21.27-46.23,39-72.49,54.31-5.85,3.41-11.58,7-17.2,10.73-8.41,5.66-17,10.52-27.58,11.77-8.74,1-16.89,5.08-25.09,8.58-30.72,13.12-62,24.29-96,25-15.63-1.31-31.74,3.35-46.85-3.93-5.56-7.58.22-13.29,5.58-11.53,12.73,4.17,23.93-2,35.56-3,22.8-2,45.64-6.62,66.45-17.52,4.76-2,10.08-1.12,14.89-2.9,9.38-.67,16.92-5.77,24.71-10.28,5.24-1.5,8.8-6,13.89-7.8,25.09-14.15,53-23.44,74.4-43.88a10.16,10.16,0,0,1,3.51-.86c2.56.12,6,.39,6.74-2.18,4.22-15.92,21.74-22.2,26.75-37.66,1.72-5.33,7.57-7.61,12.71-9.76,7.77-3.26,15.39-7.06,23.25-9.88,14.4-5.16,21.86-17.53,31.47-27.7C905.66,474.89,907.71,469,914.69,470.56Z"/><path class="cls-8" d="M731.82,549.52c2.57,1.48,5.35,3.54,8.24,1.69,19.44-12.45,42.43-20.35,52.57-44.44C795.48,500,802.41,495,806,487.68c2.78-5.62,8.7-7.38,11.67,1.08.91,2.61,3.25,3.93,4.28,6,6.49,12.8,14.76,9.39,26.07,6,17.37-5.16,29.83-16.49,41.84-28.08,7.64-7.37,11.56-18.58,17.15-28.06,4.91,3.06.63,10.1,5.66,13.11-9.41,28.17-32.34,41.72-57.35,53a114.52,114.52,0,0,0-13.46,7c-2.16,1.34-4.35,2.59-7.07,2.22-17.41-2.37-21.63.55-27.21,17.47-3.43,10.41-13.32,16.69-21.48,20.31-16.24,7.21-27.75,19.89-41.75,29.53-5.35,3.69-9.73,5.44-13.12-2C730.58,573.32,727.28,561.35,731.82,549.52Z"/><path class="cls-9" d="M532.92,786.05c-11.51-1.63-22.59,2.1-34,2.7-34.75,1.83-69.34-2.93-102.9-9-30.16-5.47-61-9.84-90.59-20.72-19.15-7.06-38.54-13.69-57.63-21.13-5.6-2.18-12.09-3.25-18.09.08-6.83-5.81-12-12.92-16.52-20.6,7.37-6.24,15.47-2.11,21.55.79,38.5,18.35,80.19,26.52,120.47,39.16,8.93,2.8,18.18,5.62,27.24,5.94,25.87.92,50.64,10.69,76.75,8.92a19,19,0,0,1,7.47,1.45c37.63,1.68,75.22,2.14,112.84-.3,14.2-.92,28.52-3.47,42.79-.18,2.38,7.83-4.22,9-8.51,9.25C586.87,783.8,560,788.15,532.92,786.05Z"/><path class="cls-5" d="M733.48,587.57c9.45.1,17.81-6.58,21-12.24,4.54-8.07,11.87-13.48,17.71-14.26,14-1.85,18.61-15.75,30.24-19.54.38-.13,1-.56.94-.79-1.66-15,8.53-21.25,19.18-28.08,3.08-2,6.22-5.18,7.71-1.76,4.92,11.24,9.6,2.34,14.77.93,16.87-4.6,29.41-17,44.87-24.26,7.66-3.59,11.17-12.33,14.17-20.29,1.66-4.42,2.71-9.08,8.61-9.56,3.2,3.89,2.34,8.41,2,12.84-10,3.23-14.27,13.78-18.87,20.45-11.94,17.28-30.35,20-46.49,27.84-6.76,3.29-12.55,6.15-14.75,14.19a25.8,25.8,0,0,1-12.13,15.68c-6.11,3.27-8.49,7.59-9.83,13.6-1.72,7.68-5.83,9.95-12.66,5-4.61,10-15.2,18.36-22.44,20.25-20.17,5.27-34.27,22.25-54.86,25.18C723.47,603.15,725.13,593.92,733.48,587.57Z"/><path class="cls-10" d="M281.07,783.7c.26-1.62.65-4.26,2.55-3.35,25,11.85,53.26,10.6,78.54,19.2,23.08,7.85,46.11,6.59,69.14,9.62A603.69,603.69,0,0,0,516.15,814c17.09-.17,33.9-1.25,51.31.71,11.8,1.32,26.71-1.8,40.17-3.33,30.77-3.5,60.86-11.54,91.93-13.22,5.94-.32,12.21-3.34,17.41-6.59,5.95-3.72,11.09-4.26,16.83-.54a30.27,30.27,0,0,1-12.62,7.74C705.49,804.5,688.86,807,673.23,813a15.13,15.13,0,0,1-3.55.25C661.8,812,654.52,815,647,816.46a27.87,27.87,0,0,1-5.59.91c-5.19.16-10.4,0-15.36,2-38.39,6.84-77,8-116,7.38-65.24-1.06-129.5-7.67-192.53-24.81-3-.8-5.69-1.44-8.59-.18C299.08,796.65,289.39,791.23,281.07,783.7Z"/><path class="cls-11" d="M174.21,605.5l-2.4-2.7c-1.29-2.93-1-6-1-9.09.13-3.74.17-7.51,2.51-10.74,6.56-2.33,10.17,2.92,14,6.18a441.48,441.48,0,0,0,82.16,54.52,278.71,278.71,0,0,0,42.08,17.23c23.2,7.56,45.55,17.71,69.8,22.07,3,.54,4.7,3.42,6.21,6,1.66,3.57,3.19,7.15.92,11-9.89,4.73-20.57,2.58-29.12-1.21-10.18-4.51-21.34-5.73-30.73-10-15.86-7.21-33-10.13-48.54-17.77-20.48-10-41.49-19.32-60.42-31.94C204.08,628.7,186.86,620.08,174.21,605.5Z"/><path class="cls-12" d="M850.26,620.83a67.7,67.7,0,0,1-4.72,25.33c-9.59,12-23.73,17.47-36.75,23.7-29.95,14.32-60,29-92.15,37.74-28.39,7.74-57.2,13.9-85.81,20.8a13.62,13.62,0,0,1-10.9-2.19c-2.61-8.65,3.34-13,8.88-17.47a11,11,0,0,1,3.76-.82c19.74-.31,37.82-8.42,56.82-12.27s37-11,55-18c28.72-11.11,56.4-24,81.86-41.51C834.08,630.79,842.72,626.66,850.26,620.83Z"/><path class="cls-13" d="M464.25,775.87c-34.86.47-68.69-7.68-102.77-13.12-17.65-2.82-34.66-9.66-52-14.66-15-4.33-30.18-8-44.79-13.23-8-2.88-15.57-6.9-23.57-10-9.13-3.58-17.89-7.61-27.92-7.46-5.41-7.12-11.69-13.69-14.14-22.65,5.8-4.49,10.3,0,14.92,2.37,21,10.83,43.12,18.68,65.16,26.85,5.84,5.24,13.07,7.34,20.42,9.39,44.49,12.38,88.88,24.95,135.4,27.61,9.09.52,18,4.27,27.37,1.88,8.6,2.72,18.52,1.89,25.33,9.41C480.82,779.47,472.26,775.92,464.25,775.87Z"/><path class="cls-14" d="M771.9,264.67c-8,19.47-22.71,31.52-42.12,38.46-23,6.71-45.74,4.66-68.26-2.53-18.9-8.13-31.92-21.91-39.42-41,11.47.22,20.12,7.91,30.3,11.62,37.71,13.75,74.36,12.68,110.27-5.62C765.7,264.07,768.5,261.88,771.9,264.67Z"/><path class="cls-11" d="M853.41,602.87q-1.39,6.39-2.78,12.78a35.29,35.29,0,0,1-16,13.6c-16.11,7.33-29.61,19.33-45.72,26.82-29.76,13.83-59.75,27.11-92.07,33.9-17.38,3.64-33.74,10.83-51.23,14-4,.73-8.15,3.24-11.54-1.3,0-9.34,4-13.46,13.82-15.74,49.78-11.61,98-28.13,142.75-53.06,13.12-7.31,24.71-17.05,39.34-22.25,8.09-2.88,10.49-13.72,17.93-18.74,1.63-1.09,2.39-3.52,5-2.88C857.56,594.13,856.07,598.48,853.41,602.87Z"/><path class="cls-15" d="M670.14,823.76A180.35,180.35,0,0,1,632,836.53c-6.64-2.79-12.2,1.88-18.27,2.86-44.64,7.18-89.66,7-134.52,5.34a578,578,0,0,1-93.76-10.66c-16.14-3.92-31.79-9.15-46.35-17.3,4.76-5.14,10.87-4.14,16.6-3.12,31.12,5.56,62.37,10.15,93.88,12.93,36.1,5.58,72.25,4.95,108.59,2.42,22.3-1.55,44.63-2.73,66.87-5.1,10.92-1.17,21.7-3.29,32.59-4.68C662.47,818.61,667.93,816.9,670.14,823.76Z"/><path class="cls-16" d="M619.42,725c17.31.52,33.65-5.33,49.92-9.57,9.94-2.59,20.32-4.92,30.24-7.25,12.65-3,24.42-8,36.77-11.3,25.09-6.77,47.24-20.18,70.87-30.23,13.28-5.65,25.58-13.6,38.32-20.51-.24,6.41-2.49,12.22-5.28,17.88-11.76,11.28-27.36,15.8-41.21,23.43-16.6,3.68-30.63,13.6-46.76,18.71-28,8.88-55.94,17.42-84.86,23.21-13.9,2.78-28.13,4.42-41.8,8.45-4.63,1.37-9.1,1.76-13.28-1.29C609.25,729.36,613.92,726.94,619.42,725Z"/><path class="cls-17" d="M174.21,605.5c21.7,10.39,38.59,28.4,60.43,38.46,25.53,11.75,48.49,29.64,77.63,32.86C325,691,345.75,684,360.4,695.35c6.43,5,18.21,3,27.56,4.22,4.21-1.12,5.57,2.3,7.57,4.73,1.54,3.11,2.74,6.21-.54,9-7.43,2.34-13.91-1.7-20.82-3C336,703,299.82,689.82,264.29,674.55c-27.06-7.61-49.5-23.57-71.31-40.36-6.75-5.19-18.27-6.36-18.2-18.47Z"/><path class="cls-18" d="M464.25,775.87l22.95-2.56c2.08-2.12,4.68-2.52,7.49-2.26,5.16,1.47,10.43,1.39,15.72,1,8.51-2.67,17.27-2.47,26-2.26,11.76,2.09,23.47.63,35.16-.62,34.35-3.68,68.95-5.59,102.42-15.09,17.67-8.66,36.81-11.9,55.94-15.21,25.11-5,48.64-14.61,71.8-25.15,5.29-2.41,8.7-2.48,10.64,3.56a35.54,35.54,0,0,1-9.78,12.84,741.7,741.7,0,0,1-93.24,31.16c-25.77,6.69-52,9.4-77.81,14.88-4.27.9-7.36,1.38-9.63-2.84-16.18,5-33.15,3.48-49.59,4.44-34.07,2-68.34.64-102.52.5C468,778.26,466.11,776.71,464.25,775.87Z"/><path class="cls-19" d="M449,829.28c-30.45.55-60-6.52-89.8-11.09a127.09,127.09,0,0,0-20.08-1.42c-10.86-3.38-20.71-8.77-30.14-15,.93-6.7,4.86-5.11,9.3-3.72C367,813.18,417.44,817.89,467.86,822a737.81,737.81,0,0,0,84,1.86C577,823,602,819.11,627,816.57c4.69-3.21,10.58.75,15.26-2.55h5.08c3.16.64,7.63-1,7.85,4.64-6.32,5-14.26,4.77-21.49,5.7-27.48,3.5-55.21,6.56-82.76,6.72-26.35.15-53,3.53-79.29-1.34C464.19,828.36,456.55,829.8,449,829.28Z"/><path class="cls-20" d="M634.67,702.13c16-.49,30.85-6.49,45.66-11.18,15.83-5,32-8.71,48-13,14.78-4,26.88-13,41.47-17.13,22.15-6.33,39.93-21.82,59.85-32.93,7.08-3.94,14-8.13,21-12.2l-.37,5.18c-2.63,7.75-9.55,9.93-15.57,14.27-12.73,9.17-28.17,13.84-39.7,23.58-13.18,11.12-30.17,11.36-43.87,20.21-5.94,3.83-14.22,4.33-21,7.84-17.54,9-37,11.86-56,15.71-11.56,2.34-21.89,8.93-34,8.88-2.89,0-5.78,1.65-7.93-1.57C629.54,706.06,631.08,703.75,634.67,702.13Z"/><path class="cls-5" d="M647.26,218.93c8.38-3.08,14.33,3.94,20,6.89,31.53,16.4,81.39-.56,102.2-23,2.81-3,3.48-8,5.14-12.09a24.2,24.2,0,0,1,5.16,15.07c2.33,6.33-1.5,10.47-5.47,14.23-24.12,22.84-52.29,33.33-85.67,27.76-7.93-1.33-15.9-2.48-23.7-4.31-8.5-2-16.11-5.53-18.51-15.19C645.55,225.09,644.87,221.86,647.26,218.93Z"/><path class="cls-9" d="M621.93,773.33c5.85,5.09,10.21-1.63,14.81-2.75,16.1-3.91,32.64-2.33,49-7.11,13.8-4,28.09-9.58,43.89-9.64,11.94,0,23.53-9.88,35.87-13.08s23.62-11,37.07-10.62c-1.84,4.14-5,7.19-8.37,10-14.08,4.66-28.24,9.08-42.2,14.05-30.87,11-62.6,18.23-95,22.83-24.73,3.51-49.09,9.6-74.18,10.58-16.68.66-33.44,3.49-50-1.56,26.19-2.65,52.43-4.58,78.75-5.32C616.47,780.59,621,779.22,621.93,773.33Z"/><path class="cls-21" d="M187.36,669.1A17.52,17.52,0,0,1,183.94,659c4.15-2.46,6.73,1.23,9.93,2.49a27.09,27.09,0,0,1,2.62,1.67c2.48,2,5.44,3,8.32,4.17a16.39,16.39,0,0,1,2.86,1.76c6.09,7,14,9.84,23,10.2a14.7,14.7,0,0,1,3.33,1.31c12.43,12.36,29.65,15.3,44.84,21.85,26.92,11.61,55.22,19.61,83.75,26.54a52.47,52.47,0,0,0,16.28,1.54c12.74.66,25.38,2.72,38.17,3,6.67,4.82,16.47,7,15.66,18.21-14.73.55-29.36,1-43.7-4-12.43-4.32-25.79-4.28-38.61-7.15-31-6.95-60.17-19.46-90.06-29.77C245.64,700.78,228.73,695,213,687,203.43,682.17,194.61,676.93,187.36,669.1Z"/><path class="cls-22" d="M828.39,687l-6,15c-15.69,5-29.45,14.41-45.16,19.35-21.41,4.12-40.77,14.95-62.19,19-33.4,6.31-65.82,17.71-100.21,19-8.26.3-15.93,5.34-24.65,3.84-4-.69-8.8.52-10-5.29.48-3.14,2.79-4.43,5.43-5.39,26.68-8.53,54.95-7.52,82.11-14.19,28.66-7,56.95-14.83,84.72-24.72a37.85,37.85,0,0,1,7.3-2c15.34-1.64,28-10.74,42.34-15.22a32.77,32.77,0,0,1,3-2C812.59,691,819.12,684.65,828.39,687Z"/><path class="cls-23" d="M649.45,225.77c.68,11,9.49,13.36,17.56,15.07,17.78,3.76,36.27,7.69,54,4,24.07-5.06,46-15.69,58.76-39,3.34,5.72,2.83,11.93,2.26,18.15-5.62,6.37-14.36,9.48-18.35,17.56a10,10,0,0,1-2.8,2.12c-3.79,1.5-8.14,1.42-11.52,4.11-27.35,14.4-55.64,14.28-84.23,4.74-8-2.66-18.21-1.48-22.58-11.45a13.38,13.38,0,0,1,0-5.6,25.26,25.26,0,0,1,1.76-5.22C645.4,228.05,646.58,225.93,649.45,225.77Z"/><path class="cls-24" d="M449,829.28c10.58-4.49,21.54-3.12,32.27-1.38,10.1,1.65,19.91,2,30-.14a52.48,52.48,0,0,1,16.3-.8c41.57,4.62,82.32-2.79,123.22-8,1.49-.2,2.83-1.55,4.24-2.36,4.34-4,9.55-5.26,15.26-5.09h2.55c5.43-2.37,11.44-2.37,17-4.27,3.52-1.19,7.75-1.76,8.35,4a114.44,114.44,0,0,1-28,12.5c-9.15-5.59-18.29.09-26.9,1.25-25.84,3.47-51.78,4.81-77.64,7.29-27,2.59-54,1.82-80.91,1.81C472.77,834.1,460.58,833.19,449,829.28Z"/><path class="cls-25" d="M781.85,234.18a19.18,19.18,0,0,1-2.38,12.71c-18,18.38-40.88,27-65.7,28.49-29,1.74-57.17-3.33-82-20.25-3.18-2.17-6.52-4-8-7.76a4.56,4.56,0,0,1,.89-3.88c3.67-2.67,7.69-2.54,11.83-1.55,23.73,12.36,48.17,23.17,75.71,17.55,20.76-4.24,42.51-6.74,59.37-22.14C774.08,235,777.62,232.64,781.85,234.18Z"/><path class="cls-26" d="M174.78,615.72c8.32,11.18,21.32,16.45,32,24.6,7.21,5.51,15.62,9.37,22.44,15.91,9.36,9,24,7.44,34.12,15.37,6.94,8.2,18.23,7,26.58,12.27,3.84,2.44,8.67,3.55,7.66,9.63-5.9,5.81-11.95,1.81-17.22-.61a113.92,113.92,0,0,0-22.6-7.43c-22.18-13.06-45.43-24.18-67.5-37.51a32.36,32.36,0,0,1-13-14.45C175.89,627.65,174,621.88,174.78,615.72Z"/><path class="cls-27" d="M385.46,834.07c4.79-4.71,9.5-.32,14.26.1,30,2.69,60,6.18,90.21,7,45.62,1.18,91.13.49,136.36-6.47,1.77-.27,3.81,1.21,5.72,1.87-14.16,4.47-28.49,8.21-43.28,10-17.33-2.07-34.19,3-51.56,3-36.37.08-72.58.19-108.53-6.15a9.59,9.59,0,0,0-5,.63C410.66,841.73,397.78,839,385.46,834.07Z"/><path class="cls-28" d="M853.41,602.87c-.64-4.28,1.4-9.11-2.56-12.72a8.59,8.59,0,0,1-3.14-5.41c-.68-4.9-.74-9.75,1.55-14.33,2-2.93,5.27-3.94,8.36-5.17,13.9-5.57,28.47-9.59,40.93-18.47,2.92-2.09,6.57-3.85,10.59-2.32C898.31,571.31,879.43,590.49,853.41,602.87Z"/><path class="cls-29" d="M781.85,234.18c-20.67,20.27-47.9,25.91-74.53,29.56-25.29,3.47-49.92-3.27-70.46-20.29.16-3.17,2.56-4.23,5-5.26a3.37,3.37,0,0,1,2.85.73c4.34,10.36,15,7.75,22.74,10.46,27.71,9.73,55.17,8.46,81.66-5,3.75-3.3,9.11,1.43,12.72-2.55h0c5.36-6.9,11.38-12.93,20.21-15.24C782,229.09,781.91,231.64,781.85,234.18Z"/><path class="cls-30" d="M624.49,246.87c26,18.46,55.23,26.32,86.8,25.31a99.89,99.89,0,0,0,53.82-17.72c4.63-3.17,9.61-5,14.36-7.57.17,4.09-.94,7.66-4.18,10.38-38.72,27.2-80.45,30.41-123.86,14.13-11.57-4.34-24.24-8.33-32.14-19.41l0,.08C617.4,246.72,619,244.82,624.49,246.87Z"/><path class="cls-31" d="M177.25,633.5c21.94,18.37,47.35,30.92,72.85,43.29a17,17,0,0,1,8.15,7.52c1.59,1.82,1.46,3.71.28,5.66-10.7,3.95-18.18-2.22-25.72-8.2h-2.54c-8.51-4.16-17.39-7.61-25.43-12.71-3.08-2.33-6.64-3.68-10.17-5.09h0c-4.2-3.33-7.64-7.58-12.44-10.18A54.65,54.65,0,0,1,177.25,633.5Z"/><path class="cls-32" d="M174.43,582.62,174,595.3c-6.87,5.5-12.28-1-18.33-2.23-15.41-9.36-26.64-22.49-34.67-38.49,3.34-3.18,7.29-2.57,10.47-.52,11.79,7.63,25,11.6,38.22,15.64a11.42,11.42,0,0,1,5.06,3.63,8.56,8.56,0,0,1,1.57,3.71A6.66,6.66,0,0,1,174.43,582.62Z"/><path class="cls-33" d="M619.29,252c14.89,7.71,28.92,17.94,45.22,21.91,32.33,7.87,64.17,4.49,94.71-9.21,5.38-2.41,10.71-4.94,16.07-7.42.28,3.11-1.89,5.11-3.39,7.4-10.66,6.6-22.42,10.74-34.26,14.33-41.61,12.6-79.56,2.21-115.54-19.39A9.47,9.47,0,0,1,619.29,252Z"/><path class="cls-34" d="M644.55,216.37a5,5,0,0,1,.72,2.32c-5.1,5.43-11.91,4.22-18,3.73-60.35-4.9-115.11,44.3-120.86,107.84-.71,7.85,3.68,16-1.52,23.53-2.09.38-4.06.33-5.44-1.64-6.07-11.28-2.91-23.35-1.16-34.55A105.52,105.52,0,0,1,515,274.5q2.32-5,4.63-10.05c7.61-7.06,14.06-15.29,21.91-22.14,24.23-20.87,52.6-30.64,84.29-31.69C632.8,210.38,639.2,211.54,644.55,216.37Z"/><path class="cls-30" d="M909.14,544.45c-18,11.74-36.91,21.45-58.32,25.42a2.46,2.46,0,0,1-3.21.23,9.29,9.29,0,0,1-1.72-3.24,12.08,12.08,0,0,1,1.15-9,10.19,10.19,0,0,1,2.22-2.92c18-8.5,37.79-13,53.83-25.65,3.24-2.55,7.59-3.75,11.41-.07C914.43,534.88,912.2,539.81,909.14,544.45Z"/><path class="cls-35" d="M278.59,725c-3.68,2.38-6.53,1-10.36-.76-21.31-9.75-44-16.3-64.22-28.67-1.32-.81-3.27-.6-4.92-.87-3.21-4.76-6.27-9.59-7.28-15.39,11-2.16,19,5.43,27.19,9.88,11.51,6.22,23.59,10.95,35.24,16.72,9.43,7.41,20.91,10.19,31.93,13.94,4.4,1.49,9.44,1.8,7.34,8.59C287.35,732.41,283.1,728.15,278.59,725Z"/><path class="cls-36" d="M179.41,549.52c0,1.7,0,3.39,0,5.09.68,2.42-.8,3.49-2.7,4.29-26.51-5.53-49.81-16.94-68.21-37.32-2.3-4.87-3.81-9.85-2.43-15.3,3.73-3.28,7.22-1.81,10.14,1,16,15.45,34.92,26.11,55.43,34.29C175.16,543,180.63,543.2,179.41,549.52Z"/><path class="cls-37" d="M108.51,521.58c11.12,7.37,21.75,15.69,33.51,21.85,11,5.76,23.19,9.24,34.86,13.72,4.26,4.22,3.72,9.46,3.15,14.72-.94,2.81-1.56,6-5.65,5.65l-.15-2.58c-5.56-9.45-16.56-8.84-24.95-12.63A191.56,191.56,0,0,1,115,542.21,47,47,0,0,1,108.51,521.58Z"/><path class="cls-11" d="M845.74,557.15c0-3.39,0-6.78,0-10.17-2.81-8.48,3-11.85,9.19-13.45,18.87-4.86,34-15.36,48.11-28.4,4.33-4,7.58-11.89,16.16-9L919,506.37c-2.48,12.79-13.41,18.48-22.38,25.24-9.33,7-20.43,11.33-31.66,14.94-6.42,2.07-12.46,5-16.69,10.62l0,0A1.54,1.54,0,0,1,845.74,557.15Z"/><path class="cls-38" d="M423.66,844c16.3-3.23,32.49.6,48.6,1.59,20.22,1.25,40.42.2,60.5,1.49,18.77,1.2,37.3-6,56-.57C533.55,856.05,478.52,855.61,423.66,844Z"/><path class="cls-39" d="M108,475.44c12,19.34,25.77,36.55,46.74,47.61,6.4,3.37,13,2.25,18.9,5.44,4.64,2.51,11.46,2.64,8.27,10.86-6.34,5.21-12.4.8-17.72-1.47-20.54-8.75-39.33-20.26-53.67-38-2.2-2.71-2.07-6.45-4.58-8.9C105.64,485.7,105.11,480.34,108,475.44Z"/><path class="cls-40" d="M777.07,717.38c12.4-2.17,22.1-10.64,33.79-14.53,3.92-1.31,7.43-4,11.55-.84a46.31,46.31,0,0,1-10,15.28c-2.2-1-5.67-3.5-6.43-2.85C791.2,727.17,770.91,727,754.71,736.7c-7.27,4.35-17.23,4.21-26,6.11,3.52-12.62,15.74-11.9,24.77-15.75C761.31,723.73,770.92,724.83,777.07,717.38Z"/><path class="cls-41" d="M848.31,557.17c.11-10.84,9.09-12.23,16.35-14.23,20.19-5.56,35.64-18.57,51.39-31.2,1.48-1.19,2-3.55,3-5.37a50.73,50.73,0,0,1-4.54,22.83c-13.23-.51-19.4,12.77-31.59,15.73C871.24,547.76,860.42,554.56,848.31,557.17Z"/><path class="cls-11" d="M106,491c5,5.22,10.42,10.16,15.06,15.71,8.06,9.65,19,15.13,29.52,21.13,9.78,5.56,19.42,11.79,31.39,11.49-.32,3.52,1.07,7.47-2.54,10.17-3.31-6.45-10.87-6.28-16-8.28a138.1,138.1,0,0,1-50.23-33.07c-1.45-1.51-4.68-1.3-7.08-1.89Q106,498.65,106,491Z"/><path class="cls-42" d="M642.26,239.24l-5.4,4.21-12.35,1.31a14.13,14.13,0,0,1-8,.76L595,249.78c-14,2.46-23.62,12.79-35,19.93-5.65,1-7.21,12.05-15.57,6.25.92-12.47,11.55-16.95,19.73-22.91,21.34-15.55,45.36-21.23,71.56-17.21C638.26,236.23,640.62,237.06,642.26,239.24Z"/><path class="cls-43" d="M545.58,277.37l12.81-10.13a4.71,4.71,0,0,1,.5,5.63l0-.22c-10.74,10.09-19.49,21.46-23.14,36.09-2.15,11.77-7,23.15-5.1,35.5-1.35,4.13-3.35,7.64-8,8.71-8.08-14-1.89-28.09.58-41.77A63.62,63.62,0,0,1,535,284.74C537.64,281.2,539.56,276.21,545.58,277.37Z"/><path class="cls-44" d="M919.19,496.11c-15.68,11.53-28.57,26.68-46.91,34.95-4.09,1.84-7.58,4.61-12.33,4.61-7.73,0-12.76,3.42-14.22,11.31-3.61-2.7-2.22-6.65-2.54-10.17,3.27-7,10.86-7.13,16.53-10.26,10.63-5.86,21.8-10.74,31.8-17.72l2.54-2.54c5.94-4.9,12.16-9.49,16.86-15.74,2.08-2.77,4.58-4.86,8.19-2.07C919.14,491,919.17,493.57,919.19,496.11Z"/><path class="cls-30" d="M800,684.32A302.63,302.63,0,0,1,840.26,664c-2.34,6.36-2.12,14.07-9.39,17.84-5.32,5.12-11.5,8.23-19,8.25-6.58,2.66-12.37,6.92-19.12,9.23-4.31,1.47-8.48,3.94-13.06.83-1.74-7.09,4.35-7.58,8.33-9.84A109.11,109.11,0,0,1,800,684.32Z"/><path class="cls-45" d="M644.55,216.37c-32.95-7.05-62.86.85-90.71,18.58-4.57,2.91-8.86,6.26-13.28,9.4-.8-.57-1.07-1.16-.82-1.75s.51-.89.77-.89c21.22-20.54,47.5-29.76,76-34C626.37,209,638.38,203.18,644.55,216.37Z"/><path class="cls-46" d="M115,542.21c15.6,4.42,28.45,14.61,43.31,20.72,6,2.45,16.72.12,15.94,12-18.68-4.33-35.24-14.16-53.2-20.36A23.5,23.5,0,0,1,115,542.21Z"/><path class="cls-47" d="M253.16,707.21c-10.58-4.25-22-7.11-31.49-13.15S202,683.79,191.81,679.32a17.49,17.49,0,0,1-4.45-10.22c14.24,7.59,28.95,14.44,42.58,23,9.86,6.19,22.65,5.93,30.85,15.11C258.25,709.47,255.7,709,253.16,707.21Z"/><path class="cls-48" d="M515,274.5c-.37,7.41-5.1,13.19-7.78,19.69-7.73,18.74-7.54,38.33-7.71,58-4.12-.88-5.16-4.69-7.17-7.57,2.09-19.66,4.37-39.3,13.32-57.32C508,282.57,508.94,276.58,515,274.5Z"/><path class="cls-49" d="M661.52,300.6c7.28-1.68,14.32,1.1,21,2.61,16,3.61,31.56-1.55,47.28-.08C706.61,313.6,683.86,312.5,661.52,300.6Z"/><path class="cls-50" d="M698.18,811.26c-8.51-6-16.89,4-25.38.22,15-8.64,31.4-11.69,48.38-12.69A80,80,0,0,1,698.18,811.26Z"/><path class="cls-51" d="M919.11,488.48c-6,.73-9.22,5.2-12,9.71-3.1,5.07-7.59,7.22-13.07,8.1,3.51-9.67,14.55-13,18.73-22.25,1.3-2.88,4.21-5.08,4.3-8.67C919.73,479.44,919.43,484,919.11,488.48Z"/><path class="cls-52" d="M535.77,308.74c1.52-16,9.57-27.81,23.14-36.09C550.53,284.25,542,295.76,535.77,308.74Z"/><path class="cls-52" d="M558.89,272.87c-.16-1.88-.33-3.75-.5-5.63,8.47-2.1,13.51-9.69,21.15-13.16,5-2.26,9.55-5.56,15.46-4.3C582.09,256.1,570.34,264.25,558.89,272.87Z"/><path class="cls-29" d="M782,226.54c-5.73,6.43-13,10.8-20.21,15.24,2-11.25,10.76-14.94,20.2-17.8Z"/><path class="cls-53" d="M812.68,686.86c7.46,3.45,12-3.8,18.19-5-.52,1.85.15,4.27-2.48,5.09L805.05,697C803.42,690.52,809.89,690.07,812.68,686.86Z"/><path class="cls-54" d="M540.51,241.71c0,.88,0,1.76,0,2.64-6.5,7.2-11.63,15.84-20.95,20.1A74.7,74.7,0,0,1,540.51,241.71Z"/><path class="cls-55" d="M155.71,593.07,174,595.3q-1.12,3.75-2.23,7.5A35.27,35.27,0,0,1,155.71,593.07Z"/><path class="cls-56" d="M182.23,653.79c7.73-1,9.93,4.78,12.44,10.18-4.5.33-6.83-4-10.73-5C182.16,657.66,181.94,655.81,182.23,653.79Z"/><path class="cls-33" d="M616.56,245.52l8-.76c0,.7,0,1.41,0,2.11-3.34.13-5,2-5.18,5.2C618.39,249.89,617.48,247.7,616.56,245.52Z"/><path class="cls-5" d="M670.24,633.74c-6.24,5.87-13.36,9.83-22.17,9.86-4.68,0-9.23-.28-12.33,4.53-1,1.5-4.06,3.25-5.26,2.73-12.59-5.43-24.1,3.6-36.8,3.08-8.3-.34-17.42,4.87-27.21.52-3-1.32-5.3,3.27-5.57,7-2.76,3.27-6.61,3.53-10.41,3.51-19-.12-37.93.93-56.83-.57-7.52-9.2-16.44-11.56-27.5-6.26-3.53,1.69-7.43-.35-11.06-1.56-9.73-3.23-19.73-3.35-29.91-3.93-12.21-.69-25.54-.44-35.68-10.32-2.19-2.14-6.57-1.12-9.62-2.75-3.47-1.86-8.86-1.65-8.4-7.77.79-2.51,2.77-4,4.77-5.41,9.64-3.23,16.69-11.31,26.5-14.23,7,7.69,16.4,9.76,26.09,11.1,6,.82,14.34,4,17.14,3.46,13.45-2.78,23,7.29,35.68,7.3,28.34,0,56.46-3.64,84.76-3.2,2.46,0,5.75-.07,7.26-1.54,11.43-11.13,25.57-9,39.36-8.52,5.24.2,8.25-4,12.54-5.53,9.72,1.34,16.24,9.87,25.86,11.42C657.2,630.38,665.2,628.16,670.24,633.74Z"/><path class="cls-57" d="M504.93,353.79c-11.41-62.49,35.68-123.8,97.4-134.23,14-2.36,28.61-.69,42.94-.87.66.1,1.33.18,2,.24l2.19,6.84L647,231.56c-7.32,3.29-15,1-22.36.87-54.9-.94-94.2,36.93-104.59,83.36-2.14,9.56-1.71,19.25-1.85,28.9-.11,8.09-3.15,12.07-11.72,9.43l-.86.27Z"/><path class="cls-58" d="M506.47,354.12c5.88-.41,9.13-2.49,8.53-9.45-4.42-52.06,29.63-102.18,88-114.48A91.82,91.82,0,0,1,647,231.56c.41,1.65-.56,2.31-1.92,2.7-11.65,5.52-23.91.69-36,2.05-40.91,4.61-79.92,41.56-86.72,82.4-1.94,11.67-.75,23.19-2.21,34.7C515.7,355.39,511.21,357,506.47,354.12Z"/><path class="cls-59" d="M520.18,353.41c-13.1-61.47,44.46-123.75,102.08-119.34,7.56.57,15.2.15,22.81.19-.13,1.55-.25,3.11-.38,4.66a7.13,7.13,0,0,1-2.43.32c-23.82-3.31-46.92-1.08-67.91,11.31-11.36,6.7-23.66,13.1-28.77,26.82-16.33,16.38-21,37.27-22.75,59.23-.42,5.42-.14,10.9-.18,16.35Z"/><path class="cls-60" d="M176.87,572.41q0-7.62,0-15.26l2.54-2.54c24.67,19.53,47.92,40.8,75.22,57,37.13,22.07,76.18,39.24,118.13,49.41,6.21,1.5,11.61,5.06,18,5.6,1,3.76-1.5,5.86-3.79,8.07-2.9,2.71-6.19,4.82-10.29,3.53-22.49-7-44.72-15-67.3-21.74-27.18-8.08-50.67-23.3-74.33-37.6C213.91,606.13,195.26,589.19,176.87,572.41Z"/><path class="cls-61" d="M372.7,631.24c.28,2.29,1.17,4.19,3.84,4,12-.85,19.31,16.41,33.13,8.69,15.3,13.28,36.37-.72,52.67,11.33,4.49,3.31,12.6-5.3,20.32-4.15,6.58,1,11.23,2.15,7,10.11-.29.3-.55.82-.88.88-21.84,3.79-43.67,8.06-65.94,3.53-.71-.14-1.25-1.09-1.85-1.68-.39-2.11-.82-4.21-3.46-4.58-26.16-3.63-51-11.83-75.16-22.12-1.39-.59-4.88-.8-2.44-4.07C350.62,628.41,361.47,626.56,372.7,631.24Z"/><path class="cls-62" d="M421,664l68.67-2.73,71.21.22c16.73,3.73,33.72,2.3,50.63,2.61,8.91,3.89,18.89-2,27.69,3a8.51,8.51,0,0,1,2.93,5.23,10.38,10.38,0,0,1-.89,5.84,3.57,3.57,0,0,1-3.1,1.91c-7.29-3.23-14.79-5.75-22.83-6.37-4.67-1.51-9.4-.89-14.14-.53-36.69-3-73.43-3.49-110.2-2.83a47.57,47.57,0,0,1-11.56.12c-17.27-2-34.29,1.67-51.44,2.41-2.09-.1-4.19-.12-6.27-.14-12.82.68-25.81.87-35,12.15-6-3.87-2.91-8.64-1.33-13.26l5.34-5C400.9,666.35,411.16,667.39,421,664Z"/><path class="cls-23" d="M639.29,669.31c-8.62-5.1-19.14-.11-27.76-5.25,32.42-1.32,62.35-12.11,91.86-24.35C714.9,634.93,726,629,739,629.32c5.18.12,8-4.54,11.57-7.05,12.46-8.66,25.26-17.57,38.55-23.87C811,588,824.33,567.25,845.74,557.15h2.54v10.17c-1.9,3.81-4,7.63-7.63,9.92-25.95,16.47-48.41,38.2-76.75,51-31.37,14.21-62.52,29.08-96.21,37.1C658.47,667.58,649.17,671.07,639.29,669.31Z"/><path class="cls-51" d="M891.52,508.83c-10.21,12.63-25.12,17.79-39,24.47-3,1.42-6.18,2.35-9.28,3.51-2.76-2.43-3.4-5.1.13-7.11A256.45,256.45,0,0,1,891.52,508.83Z"/><path class="cls-7" d="M799.88,567.44c.65-2.76.5-7,4.38-5.85,3.65,1.11,1.65,3.69-.76,5A14.88,14.88,0,0,1,799.88,567.44Z"/><path class="cls-50" d="M670.25,811.48c-4.41,3.71-9.68,4.86-15.26,5.09-2.8-.07-5.77.35-7.63-2.55C654.81,811.53,662,806.59,670.25,811.48Z"/><path class="cls-50" d="M642.28,814c-4.48,4.53-10.16,1.77-15.26,2.55C631.49,812,637.18,814.8,642.28,814Z"/><path class="cls-63" d="M385.42,671.6c.52,4.28-2.38,9.09,2,12.77a2.26,2.26,0,0,1,1.32,2.37,4.08,4.08,0,0,1-3.34,2.67c-6.24-6.33-14.95-5.54-22.61-7.59-10.45-2.8-20.76-5-30.89-9.74-18.76-8.76-39-14.28-58.15-22.31-15.49-6.49-29.86-15.81-43.8-24.86-19.41-12.6-38.49-26.24-55.5-42.29l-.06-5.1c1.94-1.17,2.42-3,2.5-5.11,15.37,5.54,26.31,17.64,38.62,27.35,10.13,8,19,16.08,31.82,20.81,12.5,4.59,21.57,17,35.09,21.41C310,650.9,335.84,665.1,365,669.55c3.23.5,7.12,1.62,9.18,3.86C379.37,679.07,382.09,674.62,385.42,671.6Z"/><path class="cls-64" d="M385.38,689.41l2.42-2.55c3.21,1.33,4.77,4.25,6.65,6.87,1.37,2.43,2.43,5,2.11,7.85a4.44,4.44,0,0,1-3.54,3.1q-2.53-2.55-5.06-5.11Z"/><path class="cls-65" d="M850.8,585.13c0,1.68,0,3.35.05,5-.2,4.51,1,9.83-6,10.39-.41,0-1.11.07-1.19.29-8.8,22.07-34.94,19.5-49.6,34.95-9.35,9.86-26.21,14-40,20-21.29,9.36-43,18-65.7,23.43-14.78,3.51-28.72,10.23-44.15,11.26-6.87.46-5.4,8.52-9.56,11.63q-1.27,3.81-2.56,7.62l-2.5,0a7.4,7.4,0,0,1-2.75-4.93,15.14,15.14,0,0,1,.34-5.69c3.92-6.8,5.16-15.3,12.52-19.94l.43.51.62-.25c31.86-6.09,62-17.71,92.62-28C773.8,638,807.27,613.67,840.81,589,843.74,586.79,846.35,583.44,850.8,585.13Z"/><path class="cls-66" d="M629.16,703.71q.21,3,.44,6.06-5.1,7.62-10.18,15.25-3.87,5.07-7.73,10.13c-.76,5.17-5.45,6.81-8.69,9.76-4.93,4.58-10.85,7.57-16.81,10.52-2,.11-3.88.63-5,2.56-3.83,5.5-10.05,7.31-15.62,10.16-8.86,3.51-18.37,3.58-27.61,5.16-9.33.11-18.75-.6-27.81,2.51-4.75-3.08-10.51.48-15.3-2.31l-7.65-.2-25.52-7.6c-6.24-1.19-12.72-1.6-18.07-5.64-3.59-2.9-8.37-4.6-9.9-9.62l-17.84-15.23c-5.91-2.27-10.32-6.53-14.57-11-2.26-3.8-5.28-7.25-5.68-11.93-.87-2.53-1.73-5.07-2.6-7.6l2.56-2.56c6.11-.86,6.84,4.92,9.84,7.91,3.14,5.18,7.7,9.11,11.92,13.34,2.67,2.76,5.39,5.48,8.19,8.13A56.65,56.65,0,0,0,437,741.06a65.08,65.08,0,0,0,12.75,7.51c3.47,1.84,7,3.51,10.6,5.16a64,64,0,0,0,13.14,4.87c7.29,2.28,14.83,3.27,22.3,4.66a86.22,86.22,0,0,0,33.46,0c7.42-1.79,15-2.94,22.4-4.68,2.82-.84,5.69-1.57,8.43-2.66,5.63-2.41,11.64-3.93,16.86-7.28a80.54,80.54,0,0,0,10.7-7.54c3.53-2.67,7.26-5.05,10.83-7.66A42.9,42.9,0,0,0,611.56,721c3.16-4.62,7.37-8.39,10.52-13C623.93,705.68,625.83,703.49,629.16,703.71Z"/><path class="cls-67" d="M444,758a59.94,59.94,0,0,1,17.65,7.72c-16.3,4.36-32.08-1.64-47.91-3.3A428.15,428.15,0,0,1,320.09,742c-9.48-3.25-19.5-4.89-29.23-7.4-5.43-1.41-10.55-3.4-12.27-9.63,5.09.86,9.89,3.4,15.26,2.54,3.87-3.74,7.82-1.41,11.76-.16a670.89,670.89,0,0,0,127.66,27.26C437,755.08,440.78,755.82,444,758Z"/><path class="cls-68" d="M601.64,742.84l10.05-7.69c14.25,1.76,28-3,41.4-5.72,15.49-3.17,31.66-4.92,46.5-10,26.43-9,54.11-14.73,79-27.87,6.82-3.59,13.55-6.78,21.32-7.24l-20.35,15.26c-19.53,11.82-40.51,20.48-62.77,24.94-9.19,1.84-17.54,5.65-26.28,8.23-21.44,6.35-44,6-65.42,12.73C618.76,747.49,608.85,748.88,601.64,742.84Z"/><path class="cls-25" d="M395.62,712.28c4.49,1.94,5.55,6.42,7.56,10.19-8.54,7.29-18,3.35-26.22.58-16.75-5.66-34.2-8.07-51-12.88-10.63-3-22.84-4.57-29.51-15.68-2.77-10.06-11.38-11.66-19.64-12.5-7.15-.73-12.29-2.58-13.43-10.39,14.46,1.62,26.37,10.15,39.67,14.95,27.13,9.77,55.16,15.91,82.91,23.23C389.14,710.64,392.38,711.45,395.62,712.28Z"/><path class="cls-69" d="M565.88,765.53A32.49,32.49,0,0,1,581.19,758c6.35,4.66,15.21,3.3,20.07,1.51,21-7.74,43.5-4.37,64.63-11.15,20.65-6.63,42.9-8.33,63.4-15.26,15.88-5.37,31.87-10.42,47.78-15.71-2.89,7.92-9.18,9.65-16.86,10.34-12.19,1.1-22.74,6.37-31.46,15.09-2.27-.74-4.4-3-7-1.31-14.11,9.27-31.71,6.92-46.45,14-26.9,2.89-52.91,12.42-80.46,10.69-6.26-.39-12.08,3.13-18.32,3.51C572.5,770,567.29,772.34,565.88,765.53Z"/><path class="cls-70" d="M565.88,765.53c2.94,3.79,6.48,2.06,10.26,1.6,22.13-2.64,44.71-3.13,66.3-8a157.26,157.26,0,0,1,32.9-3.57c-.37,2.74-1.32,4.68-4.65,4.75-19.26.42-37.66,8.59-56.5,8.65-25.58.08-50.56,8.33-76.23,4.38Z"/><path class="cls-13" d="M494.85,773.51c5.14.48,10.71-1.82,15.3,2.31C505,775.16,499.42,777.76,494.85,773.51Z"/><path class="cls-71" d="M296.4,694.49c18.88,9.65,38.92,15.28,59.92,18.17,11.89,1.64,22.15,9.15,34.68,9.88,4.12.24,8.16-1,12.18-.07,4.21,4.27,10.08,6.9,12.69,12.75-12.08,2.31-23.79-.39-35.55-2.58-21.78-8.67-45.69-9.45-67.46-18.41-12-5-24.52-8.65-36.13-14.58a22,22,0,0,0-16.55-6.15c-1.6-.92-2.83-2-1.93-4.1v-5.09c7-4.27,13.05.92,18.26,3.41C283,690.83,289.69,692.5,296.4,694.49Z"/><path class="cls-72" d="M444,758c-26.34,1.66-51.16-6.89-76.63-11.24-25.13-4.29-49.09-12.58-73.55-19.2-2-4.59-6.16-4.49-10.32-5.32a62.29,62.29,0,0,1-30.37-15h7.63c55.6,22.55,113,37.82,172.92,43.24C437.49,752.5,441.94,753.64,444,758Z"/><path class="cls-56" d="M258.25,689.4l2.54,2.55c4.6,3.16,10.57,2.19,15.26,5.08,17.17,6.37,34.21,13.14,51.57,19A129.32,129.32,0,0,0,355,721.91c9.78,1,17.88,4.83,25.34,10.73-9.48,1.37-19.09,3.25-26.88-4.73-2.31-2.37-4.77-.47-7.14-.69-16.42-1.53-31.2-8-46.48-13.83-17-6.45-33.65-13.82-50.83-19.37-7.83-2.53-11.71-7-16.18-12.25C241.15,684.79,249,689.36,258.25,689.4Z"/><path class="cls-56" d="M204.84,669.06c10.3.58,19,4.4,25.43,12.71C219.11,682.91,210.59,678.75,204.84,669.06Z"/><path class="cls-56" d="M194.67,664c5.79-3.11,7.84,1.28,10.17,5.09C200.49,669.28,196.62,668.55,194.67,664Z"/><path class="cls-73" d="M601.64,742.84c20,1.25,39.17-4.53,58.49-8.15,8.68-1.63,17.44-1.21,26.27-4.22,27.46-9.34,56.24-14.77,82.38-28.06,3.41-1.74,6.89-3.17,10.83-2.83,12.58-.21,21.46-10,33.07-12.72L805.05,697c-14.67,5.31-29,11.56-43.24,17.81-16.9,5.36-33.95,10.31-50.68,16.18-22.94,8-47,11.34-70.53,16.5-17.82,3.9-36.69,2.19-54.4,7.91Z"/><path class="cls-53" d="M761.81,714.84C775.32,706.7,789,699,805.05,697,791.72,705.62,777,710.8,761.81,714.84Z"/><path class="cls-29" d="M761.81,241.78c-3,7.14-8.58,1.19-12.72,2.55C752.67,240.18,757.52,242.35,761.81,241.78Z"/><path class="cls-74" d="M850.8,585.13c-20,17.11-41.72,32-63.88,45.93A210.53,210.53,0,0,1,748,649.9c-32.05,11.8-64.3,22.64-97.19,31.77-4.47,1.24-7.12.52-10-2.2q-.39-2.67-.77-5.35c2.08-2.17,4.34-4,7.51-4.31,28.48-3.22,54-15.62,80.4-25.45,30.67-11.41,59.15-26.27,85.11-46,12-9.15,25.81-16.15,35.28-28.49l2.53,0Q850.82,577.51,850.8,585.13Z"/><path class="cls-75" d="M848.29,569.84c-2.83,9.32-10,14-17.38,20-19,15.47-40.22,27.3-60.51,40.5-12.44,8.09-27.58,12.57-42,16.9-12.94,3.87-24.57,10.63-37.13,15.3-16.86,6.28-34.2,7.73-51.25,11.6l-.69-4.81c7.87-4.6,16.87-4.76,25.48-6.53,19.87-4.08,37.76-13.55,56.52-20.46,16-5.9,30.91-13.53,46.38-20.28,22.28-9.73,39.32-26.83,59.24-39.83,7.26-4.74,14.25-9.91,21.36-14.89C848.29,568.16,848.3,569,848.29,569.84Z"/><path class="cls-76" d="M629.16,703.71l-5.35,6c-6.7,3.4-12.94,1.91-19.17-1.51-36.34-19.9-74.94-25.6-116.08-21.26-17.43,1.83-34.44,3.94-49.7,12-11.3,6-22.51,11.09-35.08,13.2l-8.2-10.08q-1.27-3.78-2.57-7.56l-.38-1.19c14.21-2.25,19.06-15.65,28.33-23.8l5.14-.17c3.66,5,8.25,10,14.36,5.29,9.91-7.61,20.63-7.55,31.92-6,2.64.35,4.89-.58,7.09-1.82l10.25-.15c19.19,2.94,38.74-.74,57.91,3.47,28.48,6.25,57.16,11.76,81.47,29.45Z"/><path class="cls-77" d="M629.1,699.6c-10.88,1.09-17.83-7.76-27.24-10.79-31-10-61.88-20.17-95.06-19.88-5.68.05-11.89,2.14-17.08-2.25,38.22-1.15,76.41-.91,114.5,2.89,4.51,1.73,9.47-.13,14,1.77,9-2.35,15.47,2.2,21.53,7.87C636.69,686.27,634.61,693.83,629.1,699.6Z"/><path class="cls-78" d="M421,669.57l-1.2,2.16c-6.12,10.9-8.6,26-26.75,22.83-3.16-1.61-3.61-5-5.21-7.7-.13-.83-.27-1.66-.4-2.48-.87-8.18,2.23-12.78,11-13.09C405.93,671,413.44,670.17,421,669.57Z"/><path class="cls-78" d="M479.47,666.83c-15.28,3.51-31,4.72-45.13,13.36-3.63,2.23-11.76-2.18-8.24-10.79C443.84,667.45,461.6,665.9,479.47,666.83Z"/><path class="cls-79" d="M618.18,671.34c-4.7-.19-9.68,1.75-14-1.77C609,669.32,613.77,668.84,618.18,671.34Z"/><path class="cls-80" d="M599.36,736.07c-1.64,4.42-7.29,3.53-9.5,7.19-10.75.52-19-6.2-27.81-10.49-31.87-15.57-63.66-11.66-95.59-1.45-7.54,2.41-15,5.62-21.47,10.51-2.84,2.15-5.92,3.22-9.35,1.23A29.18,29.18,0,0,1,422.88,733c1.09-6.36,4.73-11.35,10.44-13.51,23-8.72,44.9-23,71.5-16.17a19,19,0,0,0,8.84-.36c30-7.16,55.4,4.06,79.62,19.88C597.88,725.8,602.77,729.16,599.36,736.07Z"/><path class="cls-81" d="M403.78,712.2c2.27-3.24,5.24-5.68,9.22-6,14.33-1.18,24.13-12.79,37.61-16,10.79-2.59,20.95-8.52,32.67-5.41,5.67,1.51,9.82-3.28,15.57-3.28a287.54,287.54,0,0,1,66.26,7.45c15.83,3.73,29.36,10.42,43.13,18,4.38,2.41,10.34,2,15.57,2.8a37.47,37.47,0,0,1-10.22,12.72c-6.46,4.57-11.24.14-15.93-3.27C579,705.56,556.94,698.4,535,696.75c-42.36-3.18-83.38,4.29-119.44,29.3A40.59,40.59,0,0,1,403.78,712.2Z"/><path class="cls-82" d="M415.57,726.05c.41-3.5,1.53-6.42,5-8.17,22.78-11.37,46.45-24.68,71.38-24.13,20.15.45,40.65-4.76,61.84,3.22,17.83,6.72,36,11.46,51.39,23.26,2.12,1.62,5.56,1.52,8.38,2.22a40.62,40.62,0,0,1-14.23,13.62c-6-14.7-20.33-19.51-32.83-24.36-17.33-6.72-35.88-11.75-55-4.7-2.59,1-6,.71-8.77,0-19.77-5.06-36.45,2.45-54,10.52-9.43,4.34-19,7.29-25.92,15.41A14.38,14.38,0,0,1,415.57,726.05Z"/><path class="cls-83" d="M435.64,743.06c16.26-9.34,32.4-18.33,51.57-21.31,30.31-4.69,59.5-4.23,86.39,12.57,5.29,3.31,12.16,3.6,16.26,8.94a22,22,0,0,1-11.38,7.08c-12.6-1.13-22.36-9.35-33.72-13.64-20.9-7.91-41.09-6.76-61.93.11-11.92,3.93-22,12.13-34.67,14A25.27,25.27,0,0,1,435.64,743.06Z"/><path class="cls-84" d="M448.16,750.79c26.79-19,56-29.15,88.75-20.48,14.76,3.91,29.48,9.7,41.57,20A37.09,37.09,0,0,1,561,758.4c-20.07-20.3-63.76-21.37-90-7-3.91,2.14-7.31,6-12.55,4.43A16,16,0,0,1,448.16,750.79Z"/><path class="cls-85" d="M458.45,755.84c29.58-22.23,61.42-21.76,94.41-9.29,5.35,2,7.51,6.46,8.13,11.85-1.76,2.55-4.47,2.36-7.09,2.45-4.36,2-8.66.4-12.1-1.57-18.59-10.68-37.06-8.64-55.81-.71-4.53,1.92-9.23,4.32-14.47,2.18A21.89,21.89,0,0,1,458.45,755.84Z"/><path class="cls-86" d="M471.52,760.75c11.27-1.75,19.9-9.86,31.69-11.6,16.76-2.49,30.92,1.4,44.69,9.91,1.71,1.06,4,1.21,6,1.79A48.05,48.05,0,0,1,531,765.93a213.33,213.33,0,0,1-36.8,0A45.18,45.18,0,0,1,471.52,760.75Z"/><path class="cls-87" d="M494.21,765.91a116.48,116.48,0,0,1,36.8,0A69.74,69.74,0,0,1,494.21,765.91Z"/><path class="cls-31" d="M276.05,697c-6.3,2-11.61.92-15.26-5.08C267.27,689.47,272.91,689.48,276.05,697Z"/><ellipse class="cls-1" cx="354.6" cy="566.63" rx="63.44" ry="73.54"/><circle class="cls-88" cx="384.64" cy="542.66" r="17.94"/><ellipse class="cls-1" cx="672.8" cy="566.63" rx="63.44" ry="73.54"/><circle class="cls-88" cx="702.84" cy="542.66" r="17.94"/></svg>