<?xml version="1.0" encoding="utf-8"?>
<!-- Generator: Adobe Illustrator 26.0.1, SVG Export Plug-In . SVG Version: 6.00 Build 0)  -->
<svg version="1.1" id="Layer_1" xmlns="http://www.w3.org/2000/svg" xmlns:xlink="http://www.w3.org/1999/xlink" x="0px" y="0px"
	 viewBox="0 0 1024 1024" style="enable-background:new 0 0 1024 1024;" xml:space="preserve">
<style type="text/css">
	.st0{fill:#14539A;}
	.st1{fill:#FE865A;}
	.st2{fill:#FFFFFF;}
	.st3{fill:#091013;}
	.st4{fill:#FEFDFD;}
</style>
<path class="st0" d="M393,637.3c-21.8,11.7-44.1,13.1-65.9,4c-4.1-1.5-8.2-3.5-12.2-6c-9.8-6-18.8-17.8-22.7-28.9
	c-10.3-29.4-5.2-58,13.9-82.5c3.2-4.1,6.7-7.7,10.4-10.7c5.1-5.1,10.9-9.3,17.3-12.3c26.1-12.2,53-5,70,18.7
	c12.3,17.2,16.5,37,17.3,58.8C420.3,601.9,416.3,624.9,393,637.3z"/>
<path class="st0" d="M640.1,690.1c0.3,0.8,0.4,1.6,0.5,2.5c0,0.3,0,0.6,0,0.9c-0.1,3-1.3,6.9-3.5,11.8
	c-10.3,22.6-24.2,41.1-42.7,57.2c-24.9,21.7-52.3,29.5-82.3,32c-56.3-3.1-98.5-31.2-124.6-87.6c-7.6-16.4-5-21.9,10.9-23.8
	c36.1-4.2,72.3-6,108.5-6c1.7-0.1,3.4-0.2,5.1-0.3c2,0.1,4,0.2,6.1,0.4c23.8,0.2,47.6,1.1,71.4,2.6c12.5,0.8,24.9,1.9,37.3,3.5
	c7.4,0.9,11.7,2.8,13.3,6.4C640,689.8,640.1,690,640.1,690.1z"/>
<path class="st0" d="M728.5,622.5c-13.6,22.7-35.8,26.1-54.7,26.5c-42.5-2.7-61.3-22-63.8-62c-1.4-21.9,2.2-42.9,14.2-61.5
	c21.2-32.7,59.5-37.8,88.3-11.9C740.6,539,748.3,589.5,728.5,622.5z"/>
<path class="st0" d="M987.6,322.7c-28.4-69.5-69.3-130.5-124.1-182.5c-52.3-49.5-112.1-86-179.4-110.4C641.7,14.3,598.3,4,552.7,3
	c-41.5-0.9-83.2-3.2-124.2,3.5C319.5,24.6,225.9,73,147.7,151.7C75,224.8,29.7,312,8.3,412.4c-3.6,17-2.4,34.4-5.7,51.4v12.8
	c1.6,1.7,1.6,3.4,0,5.1v61c0.2,0.1,0.3,0.3,0.4,0.4c1.2,1.4,1,3.5-0.4,4.6v12.7c2.5,44,11.8,87.3,27.5,128.4
	c23.7,62.4,56.7,119.2,102.5,168.2c13.1,14,13.4,13.7,0.1,27.1c-26,26.1-52.3,51.9-78.1,78.3c-11.6,11.9-15.8,25.9-9.2,41.9
	c6.5,15.8,19.6,17.7,34.5,17.7c152.1-0.2,304.3,0,456.4-0.3c19.4,0,38.9-0.7,58.2-4c109.8-19.1,204-67.7,282.5-147.5
	c63.7-64.7,105.8-141.1,130.2-228.1c13.3-47.6,13.7-96.1,14.1-144.9C1021.9,436.7,1010.4,378.5,987.6,322.7z M696.3,149.9
	c40.6,3,73.2,35.2,75.7,74.8c2.7,43.5-23.5,80.9-62.5,89.3c-40.4,8.7-79.7-13.6-93.7-53c-1-2.7-1.9-5.5-2.8-8.3
	c4.1-2.4,8.6-1.1,12.9-1.5c10.6-1,17.9-8.2,18-17.9c0-10.2-7.6-17.6-19-17.9c-4-0.1-8,0-11.9,0.1C621.6,175,657.2,147,696.3,149.9z
	 M868,609.1c-4.4,2.8-9.3,8.7-9.8,13.6c-9.5,92.5-62.5,153.3-136.6,198c-64.4,38.8-135.1,54.3-217.1,55.1
	c-90.6-1.9-181.4-27.4-257-95.7c-45.9-41.5-75.8-92.5-81.2-156.8c-0.4-5.1-6.1-11.2-10.9-14.2c-80.3-50.9-78.3-171.4,4.4-217.7
	c41.1-23,82.8-21.2,122.9,3.7c7.2,4.5,12,5.2,19.5,0.7c55.8-33.4,116.6-49.5,180.6-54.1c3.6-0.3,8.1,1.9,11,4.5
	c0.2,0.2,0.4,0.4,0.7,0.6c-0.1,1.2-0.2,2.3-0.2,3.5c10.3,14.9,27.6,14.6,36.4-0.6c-0.1-1.8-0.1-3.7-0.1-5.5c2.8-1.7,6-2.8,8.8-2.6
	C604.3,346,666,362.2,722.5,396c6.4,3.8,10.9,3.8,17.4-0.4c58.8-37.7,133.4-19.9,169.4,40.2C944.8,495,926.4,571.5,868,609.1z"/>
<path class="st1" d="M3.9,544.4c2.7,1.7,3,3.4,0,5.1V544.4z"/>
<path class="st1" d="M3.9,478.3c3,1.7,2.7,3.4,0,5.1V478.3z"/>
<g>
	<g>
		<path class="st2" d="M403.9,519.8c-17-23.8-44-31-70-18.7c-6.4,3-12.2,7.2-17.3,12.3c27.6-22.5,66.4-14.5,83.1,20.8
			c6.4,13.6,8.5,29.3,12.6,44c-1.8,48.5-44.2,78.6-85.1,63.3c21.8,9,44.1,7.6,65.9-4c23.3-12.4,27.3-35.5,28.1-58.8
			C420.3,556.8,416.2,537,403.9,519.8z M530.7,344.1c-1.2,0.7-2.2,1.5-3.1,2.3c-9.8,8.9-22.6,9-33,0.3c-0.1,1.2-0.2,2.3-0.2,3.5
			c10.3,14.9,27.6,14.6,36.4-0.6C530.6,347.8,530.6,346,530.7,344.1z M626.7,683.3c-12.4-1.6-24.9-2.8-37.3-3.5
			c-23.8-1.4-47.6-2.4-71.4-2.6c36.4,2.2,72.6,4.2,108.8,6.8c7.3,0.5,11.6,2.3,13.2,5.7C638.4,686.1,634.1,684.2,626.7,683.3z
			 M637.5,703.2c-26,53.1-68.1,82-125.9,81.8c-57.2-0.2-99-28.8-124.7-81.6c-6.3-13-3.5-18.4,10.2-19.4c36.5-2.6,73-4.6,109.6-6.8
			c-36.2,0-72.4,1.8-108.5,6c-15.9,1.9-18.5,7.3-10.9,23.8c26.2,56.4,68.3,84.5,124.6,87.6c30-2.5,57.5-10.3,82.3-32
			c18.4-16.1,32.4-34.6,42.7-57.2c2.1-4.7,3.3-8.4,3.5-11.3C640.3,696.5,639.3,699.5,637.5,703.2z M712.4,513.6
			c-28.8-25.9-67.1-20.8-88.3,11.9c-12,18.6-15.6,39.6-14.2,61.5c2.5,39.9,21.3,59.2,63.8,62c19-0.4,41.1-3.8,54.7-26.5
			C748.3,589.5,740.6,539,712.4,513.6z M672.9,643.6c-41.2-3.8-58.9-24.2-60.6-67.6c4.3-14.6,6.6-30.3,13.3-43.6
			c18.4-36.7,60.2-42.2,88.7-13c21.6,22.2,29.1,64.3,16.4,92.8C721.1,633.6,698.5,646,672.9,643.6z"/>
		<path class="st3" d="M643.9,233.3c0,9.6-7.3,16.9-18,17.9c-4.3,0.4-8.8-0.8-12.9,1.5c-44.9,4.9-81.5,46.1-82.3,91.4
			c0,1.8,0,3.7,0.1,5.5c-8.9,15.2-26.1,15.4-36.4,0.6c0.1-1.2,0.1-2.3,0.2-3.5c3.7-47.2,23-85.3,62.8-111.4
			c17-11.2,35.9-17,55.7-19.9c4,0,8-0.2,11.9-0.1C636.2,215.8,643.9,223.1,643.9,233.3z"/>
		<path class="st3" d="M640.6,692.6c0,0.3,0,0.6,0,0.9c-0.1,3-1.3,6.9-3.5,11.8c-10.3,22.6-24.2,41.1-42.7,57.2
			c-24.9,21.7-52.3,29.5-82.3,32c-56.3-3.1-98.5-31.2-124.6-87.6c-7.6-16.4-5-21.9,10.9-23.8c36.1-4.2,72.3-6,108.5-6
			c3.7,0,7.5,0,11.2,0c23.8,0.2,47.6,1.1,71.4,2.6c12.5,0.8,24.9,1.9,37.3,3.5c7.4,0.9,11.7,2.8,13.3,6.4c0.1,0.2,0.1,0.3,0.2,0.4
			C640.4,690.8,640.5,691.7,640.6,692.6z"/>
	</g>
	<g>
		<g>
			<path class="st0" d="M403.9,519.8c-17-23.8-44-31-70-18.7c-6.4,3-12.2,7.2-17.3,12.3c-27.5,27.2-35.6,80-12.5,110.8
				c3.5,4.7,7.8,9.5,12.8,12.3c3.4,1.9,6.8,3.6,10.2,5c21.8,9,44.1,7.6,65.9-4c23.3-12.4,27.3-35.5,28.1-58.8
				C420.3,556.8,416.2,537,403.9,519.8z M371.3,544.3c0.5-8.1,4.7-14.6,13.7-14.1c8.8,0.5,12.8,7.3,12.4,15.4c0,0.1,0,0.2,0,0.3
				c0,0,0,0,0,0c-0.4,7.9-4.6,13.8-14.6,13.7c-7.1-1-11.1-5.8-11.5-12.8c0,0,0,0,0,0C371.3,546,371.3,545.1,371.3,544.3z"/>
			<path class="st4" d="M382.8,562.1c-7.9-1.1-11.9-7-11.5-15.3c0.5-8.1,4.7-14.6,13.7-14.1c8.8,0.5,12.8,7.3,12.4,15.4
				C397.1,556.1,392.9,562.2,382.8,562.1z"/>
		</g>
		<g>
			<path class="st0" d="M712.4,513.6c-28.8-25.9-67.1-20.8-88.3,11.9c-12,18.6-15.6,39.6-14.2,61.5c2.5,39.9,21.3,59.2,63.8,62
				c19-0.4,41.1-3.8,54.7-26.5C748.3,589.5,740.6,539,712.4,513.6z M708.4,548.1L708.4,548.1c-0.4,7.5-4.3,13.3-12.9,13.4
				c-8.8,0.1-12.6-5.1-13-13.4c0,0,0,0,0,0c0-0.3,0-0.6,0-0.9c-0.1-8.8,4-14,12.5-15.3c8.6,1.1,13.5,6.5,13.5,14.9
				C708.4,547.2,708.4,547.6,708.4,548.1z"/>
			<path class="st4" d="M694.9,534.3c8.6,1.1,13.5,6.5,13.5,14.9c0,8.1-3.8,14.7-12.9,14.8c-9.1,0.1-12.9-5.5-13.1-14.3
				C682.3,540.8,686.4,535.7,694.9,534.3z"/>
		</g>
	</g>
</g>
</svg>
