<?xml version="1.0" encoding="utf-8"?>
<!-- Generator: Adobe Illustrator 26.0.1, SVG Export Plug-In . SVG Version: 6.00 Build 0)  -->
<svg version="1.1" id="Layer_1" xmlns="http://www.w3.org/2000/svg" xmlns:xlink="http://www.w3.org/1999/xlink" x="0px" y="0px"
	 viewBox="0 0 24 24" style="enable-background:new 0 0 24 24;" xml:space="preserve">
<style type="text/css">
	.st0{fill:#1D9BF0;}
</style>
<path class="st0" d="M11.5,11.7c-0.3,0.3-0.8,0.3-1.1,0l-0.6-0.6c-0.3-0.3-0.6-0.4-0.9-0.4c-0.4,0-0.7,0.1-0.9,0.4
	c-0.3,0.3-0.4,0.6-0.4,0.9s0.1,0.7,0.4,0.9l1.9,1.9c0.3,0.3,0.7,0.5,1.2,0.5c0.5,0,0.9-0.2,1.2-0.5l4-4c0.3-0.3,0.4-0.6,0.4-0.9
	c0-0.4-0.1-0.7-0.4-0.9c-0.3-0.2-0.6-0.4-0.9-0.4c-0.4,0-0.7,0.1-0.9,0.4L11.5,11.7z M7.3,22.7l-1.2-2.1c-0.1-0.2-0.3-0.3-0.5-0.4
	l-2.3-0.5c-0.4-0.1-0.8-0.3-1-0.7S2,18.3,2,17.9l0.2-2.4c0-0.2,0-0.4-0.2-0.6l-1.6-1.8c-0.3-0.3-0.4-0.7-0.4-1.1
	c0-0.4,0.1-0.8,0.4-1.1L2,9.1c0.1-0.2,0.2-0.4,0.2-0.6L2,6.1C2,5.7,2.1,5.3,2.3,5s0.6-0.6,1-0.7l2.3-0.5c0.2,0,0.4-0.2,0.5-0.4
	l1.2-2.1C7.6,1,7.9,0.7,8.3,0.6s0.8-0.1,1.2,0l2.2,0.9c0.2,0.1,0.4,0.1,0.6,0l2.2-0.9c0.4-0.2,0.8-0.2,1.2,0
	c0.4,0.1,0.7,0.4,0.9,0.7l1.2,2.1c0.1,0.2,0.3,0.3,0.5,0.4l2.3,0.5c0.4,0.1,0.8,0.3,1,0.7s0.4,0.7,0.3,1.2l-0.2,2.4
	c0,0.2,0,0.4,0.2,0.6l1.6,1.8c0.3,0.3,0.4,0.7,0.4,1.1c0,0.4-0.1,0.8-0.4,1.1L22,14.9c-0.1,0.2-0.2,0.4-0.2,0.6l0.2,2.4
	c0.1,0.4-0.1,0.8-0.3,1.2s-0.6,0.6-1,0.7l-2.3,0.5c-0.2,0-0.4,0.2-0.5,0.4l-1.2,2.1c-0.2,0.4-0.5,0.6-0.9,0.7
	c-0.4,0.1-0.8,0.1-1.2,0l-2.2-0.9c-0.2-0.1-0.4-0.1-0.6,0l-2.2,0.9c-0.4,0.1-0.8,0.2-1.2,0S7.6,23,7.3,22.7z"/>
</svg>
