<?xml version="1.0" encoding="utf-8"?>
<!-- Generator: Adobe Illustrator 26.0.1, SVG Export Plug-In . SVG Version: 6.00 Build 0)  -->
<svg version="1.1" id="Layer_1" xmlns="http://www.w3.org/2000/svg" xmlns:xlink="http://www.w3.org/1999/xlink" x="0px" y="0px"
	 viewBox="0 0 1024 1024" style="enable-background:new 0 0 1024 1024;" xml:space="preserve">
<style type="text/css">
	.st0{fill:#14539A;}
</style>
<path class="st0" d="M1019,969.9c-29.9-39.4-59.8-78.7-89.7-118.1c-22.8-30.1-45.6-60.2-68.4-90.4l-1-1.3
	c-34.2-45.4-68.5-90.8-102.6-136.3c-18.2-24.1-36.2-48.4-54.4-72.5c-27.1-35.8-54.2-71.4-81.4-107.1c-2.2-2.9-2.1-4.7,0.1-7.1
	c13.5-15.3,26.9-30.6,40.4-45.9c15.1-17.1,30.3-34,45.3-51.2c18.7-21.4,37.1-42.9,55.7-64.3c16.3-18.7,32.8-37.3,49.1-56
	c16-18.4,31.9-36.9,47.9-55.3c0.4-0.5,0.8-0.9,1.2-1.4c14.4-16.5,29-32.8,43.4-49.2c18.1-20.6,36.2-41.2,54.2-61.9
	c0.9-1.1,2.7-2,2.2-3.6c-0.6-1.8-2.5-1.1-3.9-1.1c-48.3,0-96.7,0-145-0.1c-2.9,0-4.6,1-6.5,3.3c-11,12.8-22.2,25.4-33.3,38.1
	c-9.7,11-19.4,21.9-29.1,32.9c-2.1,2.3-4.2,4.7-6.2,7.1c-15.3,17.4-30.5,34.8-45.7,52.2c-11.2,12.8-22.5,25.6-33.8,38.4
	c-14.5,16.6-29,33.2-43.5,49.9c-10,11.4-20,22.9-30,34.3c-11,12.5-22,25.1-33,37.7c-2.8,3.2-4.6,3.8-7.6-0.3
	c-14.6-19.6-29.6-39-44.4-58.4c-32.7-43.1-65.4-86.2-98-129.3c-8-10.5-15.9-21-23.8-31.6c-17.7-23.5-35.4-47-53-70.5
	c-1.7-2.5-4.5-3.9-7.5-3.8C212.8,47.3,108.9,47.3,5,47.3c-1.6,0-3.6-0.8-4.6,1s0.8,3,1.8,4.2c26.1,33.9,52.1,67.8,78.2,101.7
	c28.1,36.6,56.1,73.3,84.1,110l6.6,8.7c29.8,39,59.5,78.1,89.3,117.1c27.3,35.8,54.6,71.6,81.9,107.4c13.5,17.7,27.1,35.3,40.5,53
	c2.2,2.9,4.5,5.5,0.8,9.6c-15,16.4-29.6,33.1-44.3,49.9c-21.9,25.1-43.8,50.3-65.7,75.5c-19.9,22.9-39.9,45.9-59.9,68.8
	c-16.4,18.8-32.9,37.7-49.3,56.5c-6.7,7.7-13.4,15.3-20.1,23c-17.1,19.5-34.4,38.9-51.5,58.4c-23.5,26.7-46.9,53.5-70.3,80.3
	c-0.9,1-2.8,1.8-1.8,3.6c0.7,1.3,2.4,0.8,3.6,0.8c48.5,0,97,0,145.6,0c2.2,0.2,4.4-0.8,5.9-2.5c11.1-12.9,22.2-25.8,33.4-38.7
	c6-6.9,11.9-13.7,17.9-20.6c12.6-14.3,25.1-28.7,37.7-43c21.6-24.7,43.3-49.3,64.9-73.9c19.7-22.4,39.5-44.7,59.2-67.1
	c22-25.1,43.8-50.3,65.7-75.5c4-4.7,5.3-4.6,8.9,0.2c18.1,23.7,36.2,47.4,54.4,71c33.1,43.2,66.3,86.4,99.4,129.6
	c14.9,19.5,29.8,39.1,44.7,58.7c14.2,18.7,28.3,37.4,42.4,56c3.1,4,6.5,6,12,5.9c100-0.2,200-0.3,300-0.2h7.7
	C1021.8,973.7,1020.5,971.8,1019,969.9z M604.2,692.2c-20.9-27.4-41.7-54.9-62.6-82.3c-32.8-43-65.7-86-98.6-128.9
	c-22.9-29.9-45.7-59.7-68.6-89.6c-33.5-43.7-66.9-87.3-100.4-130.9c-22.8-29.7-45.5-59.4-68.2-89.1c-7.9-10.3-15.9-20.5-23.8-30.8
	c-1.1-1.4-2.8-3-2-4.9c0.9-2.2,3.3-1.2,5-1.2c14.3-0.1,28.6,0,43,0c14.1,0,28.2,0.1,42.4,0c3,0,5,0.7,7,3.3
	c19.1,25.5,38.5,50.8,57.7,76.2c24.1,31.7,48.1,63.5,72,95.3c30.2,40.1,60.4,80.2,90.6,120.3c33,43.6,66,87.2,99,130.7
	c33.6,44.5,67.3,88.9,100.9,133.4c31.5,41.6,63,83.1,94.7,124.7c15.2,20.1,30.4,40.2,45.5,60.3c1.1,1.5,3.5,3.1,2.3,5.2
	s-3.7,1.1-5.6,1.1c-25.8,0.1-51.7,0-77.5,0.1c-3.6,0.2-7-1.4-9-4.4c-19-25.1-38.1-50.2-57.2-75.2C662.1,767.8,633.1,730,604.2,692.2
	z"/>
</svg>
