<svg id="Layer_1" data-name="Layer 1" xmlns="http://www.w3.org/2000/svg" viewBox="0 0 1024 1024"><defs><style>.cls-1{fill:#fff;}.cls-2{fill:#14539a;}</style></defs><path class="cls-1" d="M621.52,437.15c-2.16,2.45-2.31,4.24-.1,7.13q40.91,53.4,81.44,107.06c18.23,24.09,36.25,48.33,54.41,72.46Q808.54,692,859.89,760.06V915h-198q-22.3-29.35-44.67-58.65-49.59-64.9-99.4-129.64-27.22-35.5-54.39-71c-3.63-4.75-4.88-4.84-8.92-.19-21.9,25.16-43.7,50.4-65.66,75.5-19.63,22.45-39.45,44.75-59.16,67.14Q297.19,835.07,264.74,872q-18.88,21.5-37.74,43H164.4V810.65q24.69-28.23,49.34-56.5,30-34.35,59.85-68.75,32.84-37.74,65.66-75.49c14.64-16.74,29.31-33.45,44.29-49.87,3.74-4.1,1.48-6.65-.76-9.58-13.48-17.67-27-35.28-40.55-53q-41-53.68-81.92-107.4Q215.67,331.56,171.05,273l-6.65-8.71V121.51H377.2Q389.1,137.3,401,153.08,450,217.79,499.09,282.37c14.79,19.47,29.78,38.8,44.37,58.42,3,4.06,4.78,3.53,7.58.3q16.4-18.9,32.93-37.68,15-17.15,30-34.27,21.74-24.9,43.43-49.86c11.21-12.84,22.51-25.6,33.75-38.43q22.88-26.11,45.73-52.28,3.11-3.54,6.22-7.06H859.89v42.94c-16,18.36-31.87,36.89-47.89,55.27-16.32,18.71-32.81,37.27-49.12,56-18.61,21.38-37,42.94-55.67,64.29-15,17.17-30.25,34.12-45.33,51.21C648.39,406.5,635,421.86,621.52,437.15Z"/><path class="cls-2" d="M1019,969.87q-44.87-59.05-89.73-118.1Q895,806.62,860.9,761.4l-1-1.34Q808.53,692,757.27,623.8c-18.16-24.13-36.18-48.37-54.41-72.46q-40.58-53.64-81.44-107.06c-2.21-2.89-2.06-4.68.1-7.13,13.48-15.29,26.87-30.65,40.36-45.93,15.08-17.09,30.33-34,45.33-51.21,18.65-21.35,37.06-42.91,55.67-64.29,16.31-18.73,32.8-37.29,49.12-56,16-18.38,31.86-36.91,47.89-55.27.4-.48.82-.95,1.23-1.42,14.38-16.47,29-32.75,43.4-49.17Q931.67,83,958.68,52c.94-1.07,2.73-2,2.24-3.56-.57-1.83-2.54-1.1-3.91-1.1q-72.5,0-145-.07c-2.88,0-4.58,1.05-6.47,3.27-10.95,12.82-22.15,25.43-33.3,38.08-9.69,11-19.42,21.94-29.11,32.93q-3.12,3.52-6.22,7.06Q714,154.67,691.2,180.85c-11.24,12.83-22.54,25.59-33.75,38.43Q635.7,244.18,614,269.14q-15,17.17-30,34.27Q567.49,322.23,551,341.09c-2.8,3.23-4.56,3.76-7.58-.3-14.59-19.62-29.58-39-44.37-58.42Q450,217.75,401,153.08q-11.94-15.78-23.83-31.57-26.55-35.24-53-70.5a8.57,8.57,0,0,0-7.5-3.8q-155.87.12-311.72.09c-1.58,0-3.59-.75-4.61,1s.79,3,1.76,4.24Q41.2,103.42,80.31,154.29q42.1,54.94,84.09,110l6.65,8.71q44.67,58.53,89.26,117.11,40.94,53.72,81.92,107.4c13.5,17.67,27.07,35.28,40.55,53,2.24,2.93,4.5,5.48.76,9.58-15,16.42-29.65,33.13-44.29,49.87q-32.92,37.67-65.66,75.49-29.91,34.4-59.85,68.75-24.66,28.26-49.34,56.5-10.07,11.52-20.14,23c-17.11,19.5-34.37,38.87-51.49,58.36q-35.2,40.1-70.29,80.29c-.89,1-2.78,1.84-1.79,3.6.73,1.31,2.36.76,3.59.76q72.78,0,145.55.05a7,7,0,0,0,5.85-2.48q16.6-19.41,33.38-38.69Q218,925.29,227,915q18.84-21.51,37.74-43,32.46-37,64.94-73.89c19.71-22.39,39.53-44.69,59.16-67.14,22-25.1,43.76-50.34,65.66-75.5,4-4.65,5.29-4.56,8.92.19q27.18,35.53,54.39,71,49.7,64.83,99.4,129.64,22.38,29.29,44.67,58.65Q683.11,943,704.3,970.92c3.07,4.05,6.46,6,12,5.94q150-.36,300-.17H1024C1021.83,973.72,1020.46,971.77,1019,969.87ZM604.19,692.17c-20.91-27.38-41.68-54.88-62.59-82.26Q492.35,545.41,443,481q-34.29-44.79-68.58-89.57Q324.21,325.93,274,260.48q-34.14-44.55-68.19-89.15C197.89,161,189.91,150.82,182,140.56c-1.12-1.45-2.79-3-2-4.89.91-2.17,3.28-1.21,5-1.22,14.32-.07,28.63,0,43,0,14.12,0,28.25.05,42.38,0,3,0,5,.71,7,3.33,19.13,25.48,38.5,50.79,57.74,76.19q36.08,47.6,72.05,95.27,45.36,60.12,90.63,120.3,49.44,65.42,99.05,130.68,50.47,66.68,100.88,133.42Q744.95,756,792.42,818.34q22.85,30.09,45.55,60.29c1.12,1.5,3.46,3.09,2.34,5.25S836.6,885,834.69,885c-25.84.07-51.68,0-77.52.14a10.19,10.19,0,0,1-9-4.37Q719.61,843.14,691,805.57,647.6,748.84,604.19,692.17Z"/></svg>